%TF.GenerationSoftware,KiCad,Pcbnew,9.0.6*%
%TF.CreationDate,2026-03-01T19:07:12+07:00*%
%TF.ProjectId,Circuit_and_KiCAD,43697263-7569-4745-9f61-6e645f4b6943,rev?*%
%TF.SameCoordinates,Original*%
%TF.FileFunction,Copper,L2,Bot*%
%TF.FilePolarity,Positive*%
%FSLAX46Y46*%
G04 Gerber Fmt 4.6, Leading zero omitted, Abs format (unit mm)*
G04 Created by KiCad (PCBNEW 9.0.6) date 2026-03-01 19:07:12*
%MOMM*%
%LPD*%
G01*
G04 APERTURE LIST*
%TA.AperFunction,ComponentPad*%
%ADD10R,1.700000X1.700000*%
%TD*%
%TA.AperFunction,ComponentPad*%
%ADD11C,1.700000*%
%TD*%
%TA.AperFunction,ComponentPad*%
%ADD12R,1.800000X1.800000*%
%TD*%
%TA.AperFunction,ComponentPad*%
%ADD13C,1.800000*%
%TD*%
%TA.AperFunction,ComponentPad*%
%ADD14C,2.000000*%
%TD*%
%TA.AperFunction,ComponentPad*%
%ADD15R,1.500000X1.500000*%
%TD*%
%TA.AperFunction,ComponentPad*%
%ADD16C,1.600000*%
%TD*%
%TA.AperFunction,ComponentPad*%
%ADD17R,2.000000X2.000000*%
%TD*%
G04 APERTURE END LIST*
D10*
%TO.P,+1,1,Pin_1*%
%TO.N,Net-(+1-Pin_1)*%
X140275000Y-110615000D03*
D11*
%TO.P,+1,2,Pin_2*%
%TO.N,Net-(+1-Pin_2)*%
X137735000Y-110615000D03*
%TD*%
D12*
%TO.P,D33,1,K*%
%TO.N,Net-(+1-Pin_1)*%
X156940000Y-41518316D03*
D13*
%TO.P,D33,2,A*%
%TO.N,Net-(BZ1-+)*%
X159480000Y-41518316D03*
%TD*%
D14*
%TO.P,SW1,1,1*%
%TO.N,Net-(J2-Pin_14)*%
X182187500Y-109250000D03*
X188687500Y-109250000D03*
%TO.P,SW1,2,2*%
%TO.N,Net-(+1-Pin_2)*%
X182187500Y-113750000D03*
X188687500Y-113750000D03*
%TD*%
D12*
%TO.P,D49,1,K*%
%TO.N,Net-(+1-Pin_1)*%
X179370656Y-41516364D03*
D13*
%TO.P,D49,2,A*%
%TO.N,Net-(BZ1-+)*%
X181910656Y-41516364D03*
%TD*%
D12*
%TO.P,D51,1,K*%
%TO.N,Net-(+1-Pin_1)*%
X186790173Y-48994478D03*
D13*
%TO.P,D51,2,A*%
%TO.N,Net-(BZ1-+)*%
X189330173Y-48994478D03*
%TD*%
D12*
%TO.P,D30,1,K*%
%TO.N,Net-(+1-Pin_1)*%
X149460000Y-86530000D03*
D13*
%TO.P,D30,2,A*%
%TO.N,Net-(BZ1-+)*%
X152000000Y-86530000D03*
%TD*%
D12*
%TO.P,D52,1,K*%
%TO.N,Net-(+1-Pin_1)*%
X186790173Y-64126162D03*
D13*
%TO.P,D52,2,A*%
%TO.N,Net-(BZ1-+)*%
X189330173Y-64126162D03*
%TD*%
D12*
%TO.P,D28,1,K*%
%TO.N,Net-(+1-Pin_1)*%
X149460000Y-71590000D03*
D13*
%TO.P,D28,2,A*%
%TO.N,Net-(BZ1-+)*%
X152000000Y-71590000D03*
%TD*%
D12*
%TO.P,D43,1,K*%
%TO.N,Net-(+1-Pin_1)*%
X134555327Y-101441270D03*
D13*
%TO.P,D43,2,A*%
%TO.N,Net-(BZ1-+)*%
X137095327Y-101441270D03*
%TD*%
D12*
%TO.P,D53,1,K*%
%TO.N,Net-(+1-Pin_1)*%
X186790173Y-71596162D03*
D13*
%TO.P,D53,2,A*%
%TO.N,Net-(BZ1-+)*%
X189330173Y-71596162D03*
%TD*%
D12*
%TO.P,D50,1,K*%
%TO.N,Net-(+1-Pin_1)*%
X186790173Y-41524478D03*
D13*
%TO.P,D50,2,A*%
%TO.N,Net-(BZ1-+)*%
X189330173Y-41524478D03*
%TD*%
D12*
%TO.P,D42,1,K*%
%TO.N,Net-(+1-Pin_1)*%
X134555327Y-93971270D03*
D13*
%TO.P,D42,2,A*%
%TO.N,Net-(BZ1-+)*%
X137095327Y-93971270D03*
%TD*%
D12*
%TO.P,D55,1,K*%
%TO.N,Net-(+1-Pin_1)*%
X186790173Y-86536162D03*
D13*
%TO.P,D55,2,A*%
%TO.N,Net-(BZ1-+)*%
X189330173Y-86536162D03*
%TD*%
D12*
%TO.P,D44,1,K*%
%TO.N,Net-(+1-Pin_1)*%
X171657245Y-94044919D03*
D13*
%TO.P,D44,2,A*%
%TO.N,Net-(BZ1-+)*%
X174197245Y-94044919D03*
%TD*%
D12*
%TO.P,D24,1,K*%
%TO.N,Net-(+1-Pin_1)*%
X141980000Y-101470000D03*
D13*
%TO.P,D24,2,A*%
%TO.N,Net-(BZ1-+)*%
X144520000Y-101470000D03*
%TD*%
D14*
%TO.P,SW4,1,1*%
%TO.N,Net-(J2-Pin_13)*%
X182250000Y-118250000D03*
X188750000Y-118250000D03*
%TO.P,SW4,2,2*%
X182250000Y-122750000D03*
X188750000Y-122750000D03*
%TD*%
D12*
%TO.P,D29,1,K*%
%TO.N,Net-(+1-Pin_1)*%
X149460000Y-79060000D03*
D13*
%TO.P,D29,2,A*%
%TO.N,Net-(BZ1-+)*%
X152000000Y-79060000D03*
%TD*%
D12*
%TO.P,D27,1,K*%
%TO.N,Net-(+1-Pin_1)*%
X149460000Y-64120000D03*
D13*
%TO.P,D27,2,A*%
%TO.N,Net-(BZ1-+)*%
X152000000Y-64120000D03*
%TD*%
D12*
%TO.P,D31,1,K*%
%TO.N,Net-(+1-Pin_1)*%
X149460000Y-94000000D03*
D13*
%TO.P,D31,2,A*%
%TO.N,Net-(BZ1-+)*%
X152000000Y-94000000D03*
%TD*%
D12*
%TO.P,D25,1,K*%
%TO.N,Net-(+1-Pin_1)*%
X149460000Y-41518316D03*
D13*
%TO.P,D25,2,A*%
%TO.N,Net-(BZ1-+)*%
X152000000Y-41518316D03*
%TD*%
D10*
%TO.P,J2,1,Pin_1*%
%TO.N,unconnected-(J2-Pin_1-Pad1)*%
X119500000Y-48420000D03*
D11*
%TO.P,J2,2,Pin_2*%
%TO.N,Net-(D1-K)*%
X119500000Y-50960000D03*
%TO.P,J2,3,Pin_3*%
%TO.N,unconnected-(J2-Pin_3-Pad3)*%
X119500000Y-53500000D03*
%TO.P,J2,4,Pin_4*%
%TO.N,unconnected-(J2-Pin_4-Pad4)*%
X119500000Y-56040000D03*
%TO.P,J2,5,Pin_5*%
%TO.N,Net-(J2-Pin_5)*%
X119500000Y-58580000D03*
%TO.P,J2,6,Pin_6*%
%TO.N,Net-(J2-Pin_6)*%
X119500000Y-61120000D03*
%TO.P,J2,7,Pin_7*%
%TO.N,Net-(J2-Pin_7)*%
X119500000Y-63660000D03*
%TO.P,J2,8,Pin_8*%
%TO.N,Net-(J2-Pin_8)*%
X119500000Y-66200000D03*
%TO.P,J2,9,Pin_9*%
%TO.N,Net-(J2-Pin_9)*%
X119500000Y-68740000D03*
%TO.P,J2,10,Pin_10*%
%TO.N,Net-(J2-Pin_10)*%
X119500000Y-71280000D03*
%TO.P,J2,11,Pin_11*%
%TO.N,Net-(J2-Pin_11)*%
X119500000Y-73820000D03*
%TO.P,J2,12,Pin_12*%
%TO.N,Net-(J2-Pin_12)*%
X119500000Y-76360000D03*
%TO.P,J2,13,Pin_13*%
%TO.N,Net-(J2-Pin_13)*%
X119500000Y-78900000D03*
%TO.P,J2,14,Pin_14*%
%TO.N,Net-(J2-Pin_14)*%
X119500000Y-81440000D03*
%TO.P,J2,15,Pin_15*%
%TO.N,Net-(D10-A)*%
X119500000Y-83980000D03*
%TD*%
D12*
%TO.P,D37,1,K*%
%TO.N,Net-(+1-Pin_1)*%
X141979772Y-86556557D03*
D13*
%TO.P,D37,2,A*%
%TO.N,Net-(BZ1-+)*%
X144519772Y-86556557D03*
%TD*%
D12*
%TO.P,D41,1,K*%
%TO.N,Net-(+1-Pin_1)*%
X164420000Y-41518316D03*
D13*
%TO.P,D41,2,A*%
%TO.N,Net-(BZ1-+)*%
X166960000Y-41518316D03*
%TD*%
D10*
%TO.P,J1,1,Pin_1*%
%TO.N,unconnected-(J1-Pin_1-Pad1)*%
X106000000Y-48380000D03*
D11*
%TO.P,J1,2,Pin_2*%
%TO.N,unconnected-(J1-Pin_2-Pad2)*%
X106000000Y-50920000D03*
%TO.P,J1,3,Pin_3*%
%TO.N,unconnected-(J1-Pin_3-Pad3)*%
X106000000Y-53460000D03*
%TO.P,J1,4,Pin_4*%
%TO.N,unconnected-(J1-Pin_4-Pad4)*%
X106000000Y-56000000D03*
%TO.P,J1,5,Pin_5*%
%TO.N,unconnected-(J1-Pin_5-Pad5)*%
X106000000Y-58540000D03*
%TO.P,J1,6,Pin_6*%
%TO.N,unconnected-(J1-Pin_6-Pad6)*%
X106000000Y-61080000D03*
%TO.P,J1,7,Pin_7*%
%TO.N,unconnected-(J1-Pin_7-Pad7)*%
X106000000Y-63620000D03*
%TO.P,J1,8,Pin_8*%
%TO.N,unconnected-(J1-Pin_8-Pad8)*%
X106000000Y-66160000D03*
%TO.P,J1,9,Pin_9*%
%TO.N,unconnected-(J1-Pin_9-Pad9)*%
X106000000Y-68700000D03*
%TO.P,J1,10,Pin_10*%
%TO.N,unconnected-(J1-Pin_10-Pad10)*%
X106000000Y-71240000D03*
%TO.P,J1,11,Pin_11*%
%TO.N,unconnected-(J1-Pin_11-Pad11)*%
X106000000Y-73780000D03*
%TO.P,J1,12,Pin_12*%
%TO.N,unconnected-(J1-Pin_12-Pad12)*%
X106000000Y-76320000D03*
%TO.P,J1,13,Pin_13*%
%TO.N,unconnected-(J1-Pin_13-Pad13)*%
X106000000Y-78860000D03*
%TO.P,J1,14,Pin_14*%
%TO.N,unconnected-(J1-Pin_14-Pad14)*%
X106000000Y-81400000D03*
%TO.P,J1,15,Pin_15*%
%TO.N,unconnected-(J1-Pin_15-Pad15)*%
X106000000Y-83940000D03*
%TD*%
D15*
%TO.P,SW2,1,A*%
%TO.N,Net-(Q6-E)*%
X162000000Y-119000000D03*
D16*
%TO.P,SW2,2,B*%
%TO.N,Net-(+1-Pin_2)*%
X159460000Y-119000000D03*
%TO.P,SW2,3*%
%TO.N,N/C*%
X164540000Y-119000000D03*
%TD*%
D12*
%TO.P,D21,1,K*%
%TO.N,Net-(+1-Pin_1)*%
X134530213Y-86557974D03*
D13*
%TO.P,D21,2,A*%
%TO.N,Net-(BZ1-+)*%
X137070213Y-86557974D03*
%TD*%
D12*
%TO.P,D40,1,K*%
%TO.N,Net-(+1-Pin_1)*%
X179266691Y-101505690D03*
D13*
%TO.P,D40,2,A*%
%TO.N,Net-(BZ1-+)*%
X181806691Y-101505690D03*
%TD*%
D12*
%TO.P,D54,1,K*%
%TO.N,Net-(+1-Pin_1)*%
X186790173Y-79066162D03*
D13*
%TO.P,D54,2,A*%
%TO.N,Net-(BZ1-+)*%
X189330173Y-79066162D03*
%TD*%
D12*
%TO.P,D46,1,K*%
%TO.N,Net-(+1-Pin_1)*%
X179246691Y-86535690D03*
D13*
%TO.P,D46,2,A*%
%TO.N,Net-(BZ1-+)*%
X181786691Y-86535690D03*
%TD*%
D12*
%TO.P,D38,1,K*%
%TO.N,Net-(+1-Pin_1)*%
X171641536Y-86550734D03*
D13*
%TO.P,D38,2,A*%
%TO.N,Net-(BZ1-+)*%
X174181536Y-86550734D03*
%TD*%
D12*
%TO.P,D23,1,K*%
%TO.N,Net-(+1-Pin_1)*%
X186778347Y-56555674D03*
D13*
%TO.P,D23,2,A*%
%TO.N,Net-(BZ1-+)*%
X189318347Y-56555674D03*
%TD*%
D12*
%TO.P,D47,1,K*%
%TO.N,Net-(+1-Pin_1)*%
X186706724Y-93992526D03*
D13*
%TO.P,D47,2,A*%
%TO.N,Net-(BZ1-+)*%
X189246724Y-93992526D03*
%TD*%
D12*
%TO.P,D22,1,K*%
%TO.N,Net-(+1-Pin_1)*%
X149445046Y-56509405D03*
D13*
%TO.P,D22,2,A*%
%TO.N,Net-(BZ1-+)*%
X151985046Y-56509405D03*
%TD*%
D12*
%TO.P,D26,1,K*%
%TO.N,Net-(+1-Pin_1)*%
X149460000Y-48988316D03*
D13*
%TO.P,D26,2,A*%
%TO.N,Net-(BZ1-+)*%
X152000000Y-48988316D03*
%TD*%
D15*
%TO.P,SW3,1,A*%
%TO.N,Net-(+1-Pin_1)*%
X162000000Y-110975000D03*
D16*
%TO.P,SW3,2,B*%
%TO.N,Net-(BZ1--)*%
X159460000Y-110975000D03*
%TO.P,SW3,3*%
%TO.N,N/C*%
X164540000Y-110975000D03*
%TD*%
D12*
%TO.P,D39,1,K*%
%TO.N,Net-(+1-Pin_1)*%
X179266691Y-94035690D03*
D13*
%TO.P,D39,2,A*%
%TO.N,Net-(BZ1-+)*%
X181806691Y-94035690D03*
%TD*%
D12*
%TO.P,D45,1,K*%
%TO.N,Net-(+1-Pin_1)*%
X171657245Y-101514919D03*
D13*
%TO.P,D45,2,A*%
%TO.N,Net-(BZ1-+)*%
X174197245Y-101514919D03*
%TD*%
D12*
%TO.P,D34,1,K*%
%TO.N,Net-(+1-Pin_1)*%
X171942326Y-41514559D03*
D13*
%TO.P,D34,2,A*%
%TO.N,Net-(BZ1-+)*%
X174482326Y-41514559D03*
%TD*%
D12*
%TO.P,D35,1,K*%
%TO.N,Net-(+1-Pin_1)*%
X141960000Y-94000000D03*
D13*
%TO.P,D35,2,A*%
%TO.N,Net-(BZ1-+)*%
X144500000Y-94000000D03*
%TD*%
D12*
%TO.P,D48,1,K*%
%TO.N,Net-(+1-Pin_1)*%
X186706724Y-101462526D03*
D13*
%TO.P,D48,2,A*%
%TO.N,Net-(BZ1-+)*%
X189246724Y-101462526D03*
%TD*%
D12*
%TO.P,D32,1,K*%
%TO.N,Net-(+1-Pin_1)*%
X149460000Y-101470000D03*
D13*
%TO.P,D32,2,A*%
%TO.N,Net-(BZ1-+)*%
X152000000Y-101470000D03*
%TD*%
D17*
%TO.P,BZ1,1,+*%
%TO.N,Net-(BZ1-+)*%
X121730000Y-115060000D03*
D14*
%TO.P,BZ1,2,-*%
%TO.N,Net-(BZ1--)*%
X129330000Y-115060000D03*
%TD*%
M02*
