%TF.GenerationSoftware,KiCad,Pcbnew,9.0.6*%
%TF.CreationDate,2026-03-01T19:07:12+07:00*%
%TF.ProjectId,Circuit_and_KiCAD,43697263-7569-4745-9f61-6e645f4b6943,rev?*%
%TF.SameCoordinates,Original*%
%TF.FileFunction,Legend,Top*%
%TF.FilePolarity,Positive*%
%FSLAX46Y46*%
G04 Gerber Fmt 4.6, Leading zero omitted, Abs format (unit mm)*
G04 Created by KiCad (PCBNEW 9.0.6) date 2026-03-01 19:07:12*
%MOMM*%
%LPD*%
G01*
G04 APERTURE LIST*
%ADD10C,0.150000*%
%ADD11C,0.120000*%
G04 APERTURE END LIST*
D10*
X157071428Y-56917438D02*
X158404761Y-56917438D01*
X158404761Y-56917438D02*
X157071428Y-58917438D01*
X157071428Y-58917438D02*
X158404761Y-58917438D01*
X159166666Y-58917438D02*
X159166666Y-57584104D01*
X159166666Y-57774580D02*
X159261904Y-57679342D01*
X159261904Y-57679342D02*
X159452380Y-57584104D01*
X159452380Y-57584104D02*
X159738095Y-57584104D01*
X159738095Y-57584104D02*
X159928571Y-57679342D01*
X159928571Y-57679342D02*
X160023809Y-57869819D01*
X160023809Y-57869819D02*
X160023809Y-58917438D01*
X160023809Y-57869819D02*
X160119047Y-57679342D01*
X160119047Y-57679342D02*
X160309523Y-57584104D01*
X160309523Y-57584104D02*
X160595237Y-57584104D01*
X160595237Y-57584104D02*
X160785714Y-57679342D01*
X160785714Y-57679342D02*
X160880952Y-57869819D01*
X160880952Y-57869819D02*
X160880952Y-58917438D01*
X162690476Y-58822200D02*
X162500000Y-58917438D01*
X162500000Y-58917438D02*
X162119047Y-58917438D01*
X162119047Y-58917438D02*
X161928571Y-58822200D01*
X161928571Y-58822200D02*
X161833333Y-58726961D01*
X161833333Y-58726961D02*
X161738095Y-58536485D01*
X161738095Y-58536485D02*
X161738095Y-57965057D01*
X161738095Y-57965057D02*
X161833333Y-57774580D01*
X161833333Y-57774580D02*
X161928571Y-57679342D01*
X161928571Y-57679342D02*
X162119047Y-57584104D01*
X162119047Y-57584104D02*
X162500000Y-57584104D01*
X162500000Y-57584104D02*
X162690476Y-57679342D01*
X164595238Y-58917438D02*
X163452381Y-58917438D01*
X164023809Y-58917438D02*
X164023809Y-56917438D01*
X164023809Y-56917438D02*
X163833333Y-57203152D01*
X163833333Y-57203152D02*
X163642857Y-57393628D01*
X163642857Y-57393628D02*
X163452381Y-57488866D01*
X165738095Y-57774580D02*
X165547619Y-57679342D01*
X165547619Y-57679342D02*
X165452381Y-57584104D01*
X165452381Y-57584104D02*
X165357143Y-57393628D01*
X165357143Y-57393628D02*
X165357143Y-57298390D01*
X165357143Y-57298390D02*
X165452381Y-57107914D01*
X165452381Y-57107914D02*
X165547619Y-57012676D01*
X165547619Y-57012676D02*
X165738095Y-56917438D01*
X165738095Y-56917438D02*
X166119048Y-56917438D01*
X166119048Y-56917438D02*
X166309524Y-57012676D01*
X166309524Y-57012676D02*
X166404762Y-57107914D01*
X166404762Y-57107914D02*
X166500000Y-57298390D01*
X166500000Y-57298390D02*
X166500000Y-57393628D01*
X166500000Y-57393628D02*
X166404762Y-57584104D01*
X166404762Y-57584104D02*
X166309524Y-57679342D01*
X166309524Y-57679342D02*
X166119048Y-57774580D01*
X166119048Y-57774580D02*
X165738095Y-57774580D01*
X165738095Y-57774580D02*
X165547619Y-57869819D01*
X165547619Y-57869819D02*
X165452381Y-57965057D01*
X165452381Y-57965057D02*
X165357143Y-58155533D01*
X165357143Y-58155533D02*
X165357143Y-58536485D01*
X165357143Y-58536485D02*
X165452381Y-58726961D01*
X165452381Y-58726961D02*
X165547619Y-58822200D01*
X165547619Y-58822200D02*
X165738095Y-58917438D01*
X165738095Y-58917438D02*
X166119048Y-58917438D01*
X166119048Y-58917438D02*
X166309524Y-58822200D01*
X166309524Y-58822200D02*
X166404762Y-58726961D01*
X166404762Y-58726961D02*
X166500000Y-58536485D01*
X166500000Y-58536485D02*
X166500000Y-58155533D01*
X166500000Y-58155533D02*
X166404762Y-57965057D01*
X166404762Y-57965057D02*
X166309524Y-57869819D01*
X166309524Y-57869819D02*
X166119048Y-57774580D01*
X167357143Y-58155533D02*
X168880953Y-58155533D01*
X170976190Y-58917438D02*
X170309523Y-57965057D01*
X169833333Y-58917438D02*
X169833333Y-56917438D01*
X169833333Y-56917438D02*
X170595238Y-56917438D01*
X170595238Y-56917438D02*
X170785714Y-57012676D01*
X170785714Y-57012676D02*
X170880952Y-57107914D01*
X170880952Y-57107914D02*
X170976190Y-57298390D01*
X170976190Y-57298390D02*
X170976190Y-57584104D01*
X170976190Y-57584104D02*
X170880952Y-57774580D01*
X170880952Y-57774580D02*
X170785714Y-57869819D01*
X170785714Y-57869819D02*
X170595238Y-57965057D01*
X170595238Y-57965057D02*
X169833333Y-57965057D01*
X172119047Y-58917438D02*
X171928571Y-58822200D01*
X171928571Y-58822200D02*
X171833333Y-58726961D01*
X171833333Y-58726961D02*
X171738095Y-58536485D01*
X171738095Y-58536485D02*
X171738095Y-57965057D01*
X171738095Y-57965057D02*
X171833333Y-57774580D01*
X171833333Y-57774580D02*
X171928571Y-57679342D01*
X171928571Y-57679342D02*
X172119047Y-57584104D01*
X172119047Y-57584104D02*
X172404762Y-57584104D01*
X172404762Y-57584104D02*
X172595238Y-57679342D01*
X172595238Y-57679342D02*
X172690476Y-57774580D01*
X172690476Y-57774580D02*
X172785714Y-57965057D01*
X172785714Y-57965057D02*
X172785714Y-58536485D01*
X172785714Y-58536485D02*
X172690476Y-58726961D01*
X172690476Y-58726961D02*
X172595238Y-58822200D01*
X172595238Y-58822200D02*
X172404762Y-58917438D01*
X172404762Y-58917438D02*
X172119047Y-58917438D01*
X173642857Y-58917438D02*
X173642857Y-56917438D01*
X173642857Y-57679342D02*
X173833333Y-57584104D01*
X173833333Y-57584104D02*
X174214286Y-57584104D01*
X174214286Y-57584104D02*
X174404762Y-57679342D01*
X174404762Y-57679342D02*
X174500000Y-57774580D01*
X174500000Y-57774580D02*
X174595238Y-57965057D01*
X174595238Y-57965057D02*
X174595238Y-58536485D01*
X174595238Y-58536485D02*
X174500000Y-58726961D01*
X174500000Y-58726961D02*
X174404762Y-58822200D01*
X174404762Y-58822200D02*
X174214286Y-58917438D01*
X174214286Y-58917438D02*
X173833333Y-58917438D01*
X173833333Y-58917438D02*
X173642857Y-58822200D01*
X175738095Y-58917438D02*
X175547619Y-58822200D01*
X175547619Y-58822200D02*
X175452381Y-58726961D01*
X175452381Y-58726961D02*
X175357143Y-58536485D01*
X175357143Y-58536485D02*
X175357143Y-57965057D01*
X175357143Y-57965057D02*
X175452381Y-57774580D01*
X175452381Y-57774580D02*
X175547619Y-57679342D01*
X175547619Y-57679342D02*
X175738095Y-57584104D01*
X175738095Y-57584104D02*
X176023810Y-57584104D01*
X176023810Y-57584104D02*
X176214286Y-57679342D01*
X176214286Y-57679342D02*
X176309524Y-57774580D01*
X176309524Y-57774580D02*
X176404762Y-57965057D01*
X176404762Y-57965057D02*
X176404762Y-58536485D01*
X176404762Y-58536485D02*
X176309524Y-58726961D01*
X176309524Y-58726961D02*
X176214286Y-58822200D01*
X176214286Y-58822200D02*
X176023810Y-58917438D01*
X176023810Y-58917438D02*
X175738095Y-58917438D01*
X176976191Y-57584104D02*
X177738095Y-57584104D01*
X177261905Y-56917438D02*
X177261905Y-58631723D01*
X177261905Y-58631723D02*
X177357143Y-58822200D01*
X177357143Y-58822200D02*
X177547619Y-58917438D01*
X177547619Y-58917438D02*
X177738095Y-58917438D01*
X178404762Y-58917438D02*
X178404762Y-57584104D01*
X178404762Y-56917438D02*
X178309524Y-57012676D01*
X178309524Y-57012676D02*
X178404762Y-57107914D01*
X178404762Y-57107914D02*
X178500000Y-57012676D01*
X178500000Y-57012676D02*
X178404762Y-56917438D01*
X178404762Y-56917438D02*
X178404762Y-57107914D01*
X180214286Y-58822200D02*
X180023810Y-58917438D01*
X180023810Y-58917438D02*
X179642857Y-58917438D01*
X179642857Y-58917438D02*
X179452381Y-58822200D01*
X179452381Y-58822200D02*
X179357143Y-58726961D01*
X179357143Y-58726961D02*
X179261905Y-58536485D01*
X179261905Y-58536485D02*
X179261905Y-57965057D01*
X179261905Y-57965057D02*
X179357143Y-57774580D01*
X179357143Y-57774580D02*
X179452381Y-57679342D01*
X179452381Y-57679342D02*
X179642857Y-57584104D01*
X179642857Y-57584104D02*
X180023810Y-57584104D01*
X180023810Y-57584104D02*
X180214286Y-57679342D01*
X180976191Y-58822200D02*
X181166667Y-58917438D01*
X181166667Y-58917438D02*
X181547619Y-58917438D01*
X181547619Y-58917438D02*
X181738096Y-58822200D01*
X181738096Y-58822200D02*
X181833334Y-58631723D01*
X181833334Y-58631723D02*
X181833334Y-58536485D01*
X181833334Y-58536485D02*
X181738096Y-58346009D01*
X181738096Y-58346009D02*
X181547619Y-58250771D01*
X181547619Y-58250771D02*
X181261905Y-58250771D01*
X181261905Y-58250771D02*
X181071429Y-58155533D01*
X181071429Y-58155533D02*
X180976191Y-57965057D01*
X180976191Y-57965057D02*
X180976191Y-57869819D01*
X180976191Y-57869819D02*
X181071429Y-57679342D01*
X181071429Y-57679342D02*
X181261905Y-57584104D01*
X181261905Y-57584104D02*
X181547619Y-57584104D01*
X181547619Y-57584104D02*
X181738096Y-57679342D01*
X98714284Y-101465057D02*
X98619046Y-101369819D01*
X98619046Y-101369819D02*
X98428570Y-101274580D01*
X98428570Y-101274580D02*
X98238094Y-101274580D01*
X98238094Y-101274580D02*
X98047618Y-101369819D01*
X98047618Y-101369819D02*
X97952379Y-101465057D01*
X97952379Y-101465057D02*
X97857141Y-101655533D01*
X97857141Y-101655533D02*
X97857141Y-101846009D01*
X97857141Y-101846009D02*
X97952379Y-102036485D01*
X97952379Y-102036485D02*
X98047618Y-102131723D01*
X98047618Y-102131723D02*
X98238094Y-102226961D01*
X98238094Y-102226961D02*
X98428570Y-102226961D01*
X98428570Y-102226961D02*
X98619046Y-102131723D01*
X98619046Y-102131723D02*
X98714284Y-102036485D01*
X98714284Y-101274580D02*
X98714284Y-102036485D01*
X98714284Y-102036485D02*
X98809522Y-102131723D01*
X98809522Y-102131723D02*
X98904760Y-102131723D01*
X98904760Y-102131723D02*
X99095237Y-102036485D01*
X99095237Y-102036485D02*
X99190475Y-101846009D01*
X99190475Y-101846009D02*
X99190475Y-101369819D01*
X99190475Y-101369819D02*
X98999999Y-101084104D01*
X98999999Y-101084104D02*
X98714284Y-100893628D01*
X98714284Y-100893628D02*
X98333332Y-100798390D01*
X98333332Y-100798390D02*
X97952379Y-100893628D01*
X97952379Y-100893628D02*
X97666665Y-101084104D01*
X97666665Y-101084104D02*
X97476189Y-101369819D01*
X97476189Y-101369819D02*
X97380951Y-101750771D01*
X97380951Y-101750771D02*
X97476189Y-102131723D01*
X97476189Y-102131723D02*
X97666665Y-102417438D01*
X97666665Y-102417438D02*
X97952379Y-102607914D01*
X97952379Y-102607914D02*
X98333332Y-102703152D01*
X98333332Y-102703152D02*
X98714284Y-102607914D01*
X98714284Y-102607914D02*
X98999999Y-102417438D01*
X100047618Y-102417438D02*
X100047618Y-101084104D01*
X100047618Y-101274580D02*
X100142856Y-101179342D01*
X100142856Y-101179342D02*
X100333332Y-101084104D01*
X100333332Y-101084104D02*
X100619047Y-101084104D01*
X100619047Y-101084104D02*
X100809523Y-101179342D01*
X100809523Y-101179342D02*
X100904761Y-101369819D01*
X100904761Y-101369819D02*
X100904761Y-102417438D01*
X100904761Y-101369819D02*
X100999999Y-101179342D01*
X100999999Y-101179342D02*
X101190475Y-101084104D01*
X101190475Y-101084104D02*
X101476189Y-101084104D01*
X101476189Y-101084104D02*
X101666666Y-101179342D01*
X101666666Y-101179342D02*
X101761904Y-101369819D01*
X101761904Y-101369819D02*
X101761904Y-102417438D01*
X103571428Y-102322200D02*
X103380952Y-102417438D01*
X103380952Y-102417438D02*
X102999999Y-102417438D01*
X102999999Y-102417438D02*
X102809523Y-102322200D01*
X102809523Y-102322200D02*
X102714285Y-102226961D01*
X102714285Y-102226961D02*
X102619047Y-102036485D01*
X102619047Y-102036485D02*
X102619047Y-101465057D01*
X102619047Y-101465057D02*
X102714285Y-101274580D01*
X102714285Y-101274580D02*
X102809523Y-101179342D01*
X102809523Y-101179342D02*
X102999999Y-101084104D01*
X102999999Y-101084104D02*
X103380952Y-101084104D01*
X103380952Y-101084104D02*
X103571428Y-101179342D01*
X104428571Y-102226961D02*
X104523809Y-102322200D01*
X104523809Y-102322200D02*
X104428571Y-102417438D01*
X104428571Y-102417438D02*
X104333333Y-102322200D01*
X104333333Y-102322200D02*
X104428571Y-102226961D01*
X104428571Y-102226961D02*
X104428571Y-102417438D01*
X105190476Y-101084104D02*
X106238095Y-101084104D01*
X106238095Y-101084104D02*
X105190476Y-102417438D01*
X105190476Y-102417438D02*
X106238095Y-102417438D01*
X107000000Y-102417438D02*
X107000000Y-101084104D01*
X107000000Y-101274580D02*
X107095238Y-101179342D01*
X107095238Y-101179342D02*
X107285714Y-101084104D01*
X107285714Y-101084104D02*
X107571429Y-101084104D01*
X107571429Y-101084104D02*
X107761905Y-101179342D01*
X107761905Y-101179342D02*
X107857143Y-101369819D01*
X107857143Y-101369819D02*
X107857143Y-102417438D01*
X107857143Y-101369819D02*
X107952381Y-101179342D01*
X107952381Y-101179342D02*
X108142857Y-101084104D01*
X108142857Y-101084104D02*
X108428571Y-101084104D01*
X108428571Y-101084104D02*
X108619048Y-101179342D01*
X108619048Y-101179342D02*
X108714286Y-101369819D01*
X108714286Y-101369819D02*
X108714286Y-102417438D01*
X109666667Y-102417438D02*
X109666667Y-101084104D01*
X109666667Y-100417438D02*
X109571429Y-100512676D01*
X109571429Y-100512676D02*
X109666667Y-100607914D01*
X109666667Y-100607914D02*
X109761905Y-100512676D01*
X109761905Y-100512676D02*
X109666667Y-100417438D01*
X109666667Y-100417438D02*
X109666667Y-100607914D01*
X110619048Y-101084104D02*
X110619048Y-102417438D01*
X110619048Y-101274580D02*
X110714286Y-101179342D01*
X110714286Y-101179342D02*
X110904762Y-101084104D01*
X110904762Y-101084104D02*
X111190477Y-101084104D01*
X111190477Y-101084104D02*
X111380953Y-101179342D01*
X111380953Y-101179342D02*
X111476191Y-101369819D01*
X111476191Y-101369819D02*
X111476191Y-102417438D01*
X113190477Y-102322200D02*
X113000001Y-102417438D01*
X113000001Y-102417438D02*
X112619048Y-102417438D01*
X112619048Y-102417438D02*
X112428572Y-102322200D01*
X112428572Y-102322200D02*
X112333334Y-102131723D01*
X112333334Y-102131723D02*
X112333334Y-101369819D01*
X112333334Y-101369819D02*
X112428572Y-101179342D01*
X112428572Y-101179342D02*
X112619048Y-101084104D01*
X112619048Y-101084104D02*
X113000001Y-101084104D01*
X113000001Y-101084104D02*
X113190477Y-101179342D01*
X113190477Y-101179342D02*
X113285715Y-101369819D01*
X113285715Y-101369819D02*
X113285715Y-101560295D01*
X113285715Y-101560295D02*
X112333334Y-101750771D01*
X115000001Y-102322200D02*
X114809525Y-102417438D01*
X114809525Y-102417438D02*
X114428572Y-102417438D01*
X114428572Y-102417438D02*
X114238096Y-102322200D01*
X114238096Y-102322200D02*
X114142858Y-102226961D01*
X114142858Y-102226961D02*
X114047620Y-102036485D01*
X114047620Y-102036485D02*
X114047620Y-101465057D01*
X114047620Y-101465057D02*
X114142858Y-101274580D01*
X114142858Y-101274580D02*
X114238096Y-101179342D01*
X114238096Y-101179342D02*
X114428572Y-101084104D01*
X114428572Y-101084104D02*
X114809525Y-101084104D01*
X114809525Y-101084104D02*
X115000001Y-101179342D01*
X115857144Y-102417438D02*
X115857144Y-101084104D01*
X115857144Y-101465057D02*
X115952382Y-101274580D01*
X115952382Y-101274580D02*
X116047620Y-101179342D01*
X116047620Y-101179342D02*
X116238096Y-101084104D01*
X116238096Y-101084104D02*
X116428573Y-101084104D01*
X117952382Y-102417438D02*
X117952382Y-101369819D01*
X117952382Y-101369819D02*
X117857144Y-101179342D01*
X117857144Y-101179342D02*
X117666668Y-101084104D01*
X117666668Y-101084104D02*
X117285715Y-101084104D01*
X117285715Y-101084104D02*
X117095239Y-101179342D01*
X117952382Y-102322200D02*
X117761906Y-102417438D01*
X117761906Y-102417438D02*
X117285715Y-102417438D01*
X117285715Y-102417438D02*
X117095239Y-102322200D01*
X117095239Y-102322200D02*
X117000001Y-102131723D01*
X117000001Y-102131723D02*
X117000001Y-101941247D01*
X117000001Y-101941247D02*
X117095239Y-101750771D01*
X117095239Y-101750771D02*
X117285715Y-101655533D01*
X117285715Y-101655533D02*
X117761906Y-101655533D01*
X117761906Y-101655533D02*
X117952382Y-101560295D01*
X118619049Y-101084104D02*
X119380953Y-101084104D01*
X118904763Y-102417438D02*
X118904763Y-100703152D01*
X118904763Y-100703152D02*
X119000001Y-100512676D01*
X119000001Y-100512676D02*
X119190477Y-100417438D01*
X119190477Y-100417438D02*
X119380953Y-100417438D01*
X119761906Y-101084104D02*
X120523810Y-101084104D01*
X120047620Y-100417438D02*
X120047620Y-102131723D01*
X120047620Y-102131723D02*
X120142858Y-102322200D01*
X120142858Y-102322200D02*
X120333334Y-102417438D01*
X120333334Y-102417438D02*
X120523810Y-102417438D01*
X121952382Y-102322200D02*
X121761906Y-102417438D01*
X121761906Y-102417438D02*
X121380953Y-102417438D01*
X121380953Y-102417438D02*
X121190477Y-102322200D01*
X121190477Y-102322200D02*
X121095239Y-102131723D01*
X121095239Y-102131723D02*
X121095239Y-101369819D01*
X121095239Y-101369819D02*
X121190477Y-101179342D01*
X121190477Y-101179342D02*
X121380953Y-101084104D01*
X121380953Y-101084104D02*
X121761906Y-101084104D01*
X121761906Y-101084104D02*
X121952382Y-101179342D01*
X121952382Y-101179342D02*
X122047620Y-101369819D01*
X122047620Y-101369819D02*
X122047620Y-101560295D01*
X122047620Y-101560295D02*
X121095239Y-101750771D01*
X122904763Y-102417438D02*
X122904763Y-101084104D01*
X122904763Y-101465057D02*
X123000001Y-101274580D01*
X123000001Y-101274580D02*
X123095239Y-101179342D01*
X123095239Y-101179342D02*
X123285715Y-101084104D01*
X123285715Y-101084104D02*
X123476192Y-101084104D01*
X123666668Y-102607914D02*
X125190477Y-102607914D01*
X126714287Y-102417438D02*
X125571430Y-102417438D01*
X126142858Y-102417438D02*
X126142858Y-100417438D01*
X126142858Y-100417438D02*
X125952382Y-100703152D01*
X125952382Y-100703152D02*
X125761906Y-100893628D01*
X125761906Y-100893628D02*
X125571430Y-100988866D01*
X127857144Y-101274580D02*
X127666668Y-101179342D01*
X127666668Y-101179342D02*
X127571430Y-101084104D01*
X127571430Y-101084104D02*
X127476192Y-100893628D01*
X127476192Y-100893628D02*
X127476192Y-100798390D01*
X127476192Y-100798390D02*
X127571430Y-100607914D01*
X127571430Y-100607914D02*
X127666668Y-100512676D01*
X127666668Y-100512676D02*
X127857144Y-100417438D01*
X127857144Y-100417438D02*
X128238097Y-100417438D01*
X128238097Y-100417438D02*
X128428573Y-100512676D01*
X128428573Y-100512676D02*
X128523811Y-100607914D01*
X128523811Y-100607914D02*
X128619049Y-100798390D01*
X128619049Y-100798390D02*
X128619049Y-100893628D01*
X128619049Y-100893628D02*
X128523811Y-101084104D01*
X128523811Y-101084104D02*
X128428573Y-101179342D01*
X128428573Y-101179342D02*
X128238097Y-101274580D01*
X128238097Y-101274580D02*
X127857144Y-101274580D01*
X127857144Y-101274580D02*
X127666668Y-101369819D01*
X127666668Y-101369819D02*
X127571430Y-101465057D01*
X127571430Y-101465057D02*
X127476192Y-101655533D01*
X127476192Y-101655533D02*
X127476192Y-102036485D01*
X127476192Y-102036485D02*
X127571430Y-102226961D01*
X127571430Y-102226961D02*
X127666668Y-102322200D01*
X127666668Y-102322200D02*
X127857144Y-102417438D01*
X127857144Y-102417438D02*
X128238097Y-102417438D01*
X128238097Y-102417438D02*
X128428573Y-102322200D01*
X128428573Y-102322200D02*
X128523811Y-102226961D01*
X128523811Y-102226961D02*
X128619049Y-102036485D01*
X128619049Y-102036485D02*
X128619049Y-101655533D01*
X128619049Y-101655533D02*
X128523811Y-101465057D01*
X128523811Y-101465057D02*
X128428573Y-101369819D01*
X128428573Y-101369819D02*
X128238097Y-101274580D01*
X142618866Y-115857142D02*
X142618866Y-115095238D01*
X142999819Y-115476190D02*
X142237914Y-115476190D01*
X142999819Y-114095238D02*
X142999819Y-114666666D01*
X142999819Y-114380952D02*
X141999819Y-114380952D01*
X141999819Y-114380952D02*
X142142676Y-114476190D01*
X142142676Y-114476190D02*
X142237914Y-114571428D01*
X142237914Y-114571428D02*
X142285533Y-114666666D01*
X119544133Y-94582078D02*
X118544133Y-94582078D01*
X118544133Y-94582078D02*
X118544133Y-94343983D01*
X118544133Y-94343983D02*
X118591752Y-94201126D01*
X118591752Y-94201126D02*
X118686990Y-94105888D01*
X118686990Y-94105888D02*
X118782228Y-94058269D01*
X118782228Y-94058269D02*
X118972704Y-94010650D01*
X118972704Y-94010650D02*
X119115561Y-94010650D01*
X119115561Y-94010650D02*
X119306037Y-94058269D01*
X119306037Y-94058269D02*
X119401275Y-94105888D01*
X119401275Y-94105888D02*
X119496514Y-94201126D01*
X119496514Y-94201126D02*
X119544133Y-94343983D01*
X119544133Y-94343983D02*
X119544133Y-94582078D01*
X118544133Y-93677316D02*
X118544133Y-93010650D01*
X118544133Y-93010650D02*
X119544133Y-93439221D01*
X115907142Y-108564819D02*
X115573809Y-108088628D01*
X115335714Y-108564819D02*
X115335714Y-107564819D01*
X115335714Y-107564819D02*
X115716666Y-107564819D01*
X115716666Y-107564819D02*
X115811904Y-107612438D01*
X115811904Y-107612438D02*
X115859523Y-107660057D01*
X115859523Y-107660057D02*
X115907142Y-107755295D01*
X115907142Y-107755295D02*
X115907142Y-107898152D01*
X115907142Y-107898152D02*
X115859523Y-107993390D01*
X115859523Y-107993390D02*
X115811904Y-108041009D01*
X115811904Y-108041009D02*
X115716666Y-108088628D01*
X115716666Y-108088628D02*
X115335714Y-108088628D01*
X116859523Y-108564819D02*
X116288095Y-108564819D01*
X116573809Y-108564819D02*
X116573809Y-107564819D01*
X116573809Y-107564819D02*
X116478571Y-107707676D01*
X116478571Y-107707676D02*
X116383333Y-107802914D01*
X116383333Y-107802914D02*
X116288095Y-107850533D01*
X117192857Y-107564819D02*
X117811904Y-107564819D01*
X117811904Y-107564819D02*
X117478571Y-107945771D01*
X117478571Y-107945771D02*
X117621428Y-107945771D01*
X117621428Y-107945771D02*
X117716666Y-107993390D01*
X117716666Y-107993390D02*
X117764285Y-108041009D01*
X117764285Y-108041009D02*
X117811904Y-108136247D01*
X117811904Y-108136247D02*
X117811904Y-108374342D01*
X117811904Y-108374342D02*
X117764285Y-108469580D01*
X117764285Y-108469580D02*
X117716666Y-108517200D01*
X117716666Y-108517200D02*
X117621428Y-108564819D01*
X117621428Y-108564819D02*
X117335714Y-108564819D01*
X117335714Y-108564819D02*
X117240476Y-108517200D01*
X117240476Y-108517200D02*
X117192857Y-108469580D01*
X156995714Y-38013135D02*
X156995714Y-37013135D01*
X156995714Y-37013135D02*
X157233809Y-37013135D01*
X157233809Y-37013135D02*
X157376666Y-37060754D01*
X157376666Y-37060754D02*
X157471904Y-37155992D01*
X157471904Y-37155992D02*
X157519523Y-37251230D01*
X157519523Y-37251230D02*
X157567142Y-37441706D01*
X157567142Y-37441706D02*
X157567142Y-37584563D01*
X157567142Y-37584563D02*
X157519523Y-37775039D01*
X157519523Y-37775039D02*
X157471904Y-37870277D01*
X157471904Y-37870277D02*
X157376666Y-37965516D01*
X157376666Y-37965516D02*
X157233809Y-38013135D01*
X157233809Y-38013135D02*
X156995714Y-38013135D01*
X157900476Y-37013135D02*
X158519523Y-37013135D01*
X158519523Y-37013135D02*
X158186190Y-37394087D01*
X158186190Y-37394087D02*
X158329047Y-37394087D01*
X158329047Y-37394087D02*
X158424285Y-37441706D01*
X158424285Y-37441706D02*
X158471904Y-37489325D01*
X158471904Y-37489325D02*
X158519523Y-37584563D01*
X158519523Y-37584563D02*
X158519523Y-37822658D01*
X158519523Y-37822658D02*
X158471904Y-37917896D01*
X158471904Y-37917896D02*
X158424285Y-37965516D01*
X158424285Y-37965516D02*
X158329047Y-38013135D01*
X158329047Y-38013135D02*
X158043333Y-38013135D01*
X158043333Y-38013135D02*
X157948095Y-37965516D01*
X157948095Y-37965516D02*
X157900476Y-37917896D01*
X158852857Y-37013135D02*
X159471904Y-37013135D01*
X159471904Y-37013135D02*
X159138571Y-37394087D01*
X159138571Y-37394087D02*
X159281428Y-37394087D01*
X159281428Y-37394087D02*
X159376666Y-37441706D01*
X159376666Y-37441706D02*
X159424285Y-37489325D01*
X159424285Y-37489325D02*
X159471904Y-37584563D01*
X159471904Y-37584563D02*
X159471904Y-37822658D01*
X159471904Y-37822658D02*
X159424285Y-37917896D01*
X159424285Y-37917896D02*
X159376666Y-37965516D01*
X159376666Y-37965516D02*
X159281428Y-38013135D01*
X159281428Y-38013135D02*
X158995714Y-38013135D01*
X158995714Y-38013135D02*
X158900476Y-37965516D01*
X158900476Y-37965516D02*
X158852857Y-37917896D01*
X111973333Y-108564819D02*
X111640000Y-108088628D01*
X111401905Y-108564819D02*
X111401905Y-107564819D01*
X111401905Y-107564819D02*
X111782857Y-107564819D01*
X111782857Y-107564819D02*
X111878095Y-107612438D01*
X111878095Y-107612438D02*
X111925714Y-107660057D01*
X111925714Y-107660057D02*
X111973333Y-107755295D01*
X111973333Y-107755295D02*
X111973333Y-107898152D01*
X111973333Y-107898152D02*
X111925714Y-107993390D01*
X111925714Y-107993390D02*
X111878095Y-108041009D01*
X111878095Y-108041009D02*
X111782857Y-108088628D01*
X111782857Y-108088628D02*
X111401905Y-108088628D01*
X112449524Y-108564819D02*
X112640000Y-108564819D01*
X112640000Y-108564819D02*
X112735238Y-108517200D01*
X112735238Y-108517200D02*
X112782857Y-108469580D01*
X112782857Y-108469580D02*
X112878095Y-108326723D01*
X112878095Y-108326723D02*
X112925714Y-108136247D01*
X112925714Y-108136247D02*
X112925714Y-107755295D01*
X112925714Y-107755295D02*
X112878095Y-107660057D01*
X112878095Y-107660057D02*
X112830476Y-107612438D01*
X112830476Y-107612438D02*
X112735238Y-107564819D01*
X112735238Y-107564819D02*
X112544762Y-107564819D01*
X112544762Y-107564819D02*
X112449524Y-107612438D01*
X112449524Y-107612438D02*
X112401905Y-107660057D01*
X112401905Y-107660057D02*
X112354286Y-107755295D01*
X112354286Y-107755295D02*
X112354286Y-107993390D01*
X112354286Y-107993390D02*
X112401905Y-108088628D01*
X112401905Y-108088628D02*
X112449524Y-108136247D01*
X112449524Y-108136247D02*
X112544762Y-108183866D01*
X112544762Y-108183866D02*
X112735238Y-108183866D01*
X112735238Y-108183866D02*
X112830476Y-108136247D01*
X112830476Y-108136247D02*
X112878095Y-108088628D01*
X112878095Y-108088628D02*
X112925714Y-107993390D01*
X111497142Y-114464819D02*
X111163809Y-113988628D01*
X110925714Y-114464819D02*
X110925714Y-113464819D01*
X110925714Y-113464819D02*
X111306666Y-113464819D01*
X111306666Y-113464819D02*
X111401904Y-113512438D01*
X111401904Y-113512438D02*
X111449523Y-113560057D01*
X111449523Y-113560057D02*
X111497142Y-113655295D01*
X111497142Y-113655295D02*
X111497142Y-113798152D01*
X111497142Y-113798152D02*
X111449523Y-113893390D01*
X111449523Y-113893390D02*
X111401904Y-113941009D01*
X111401904Y-113941009D02*
X111306666Y-113988628D01*
X111306666Y-113988628D02*
X110925714Y-113988628D01*
X112449523Y-114464819D02*
X111878095Y-114464819D01*
X112163809Y-114464819D02*
X112163809Y-113464819D01*
X112163809Y-113464819D02*
X112068571Y-113607676D01*
X112068571Y-113607676D02*
X111973333Y-113702914D01*
X111973333Y-113702914D02*
X111878095Y-113750533D01*
X113401904Y-114464819D02*
X112830476Y-114464819D01*
X113116190Y-114464819D02*
X113116190Y-113464819D01*
X113116190Y-113464819D02*
X113020952Y-113607676D01*
X113020952Y-113607676D02*
X112925714Y-113702914D01*
X112925714Y-113702914D02*
X112830476Y-113750533D01*
X103153333Y-108564819D02*
X102820000Y-108088628D01*
X102581905Y-108564819D02*
X102581905Y-107564819D01*
X102581905Y-107564819D02*
X102962857Y-107564819D01*
X102962857Y-107564819D02*
X103058095Y-107612438D01*
X103058095Y-107612438D02*
X103105714Y-107660057D01*
X103105714Y-107660057D02*
X103153333Y-107755295D01*
X103153333Y-107755295D02*
X103153333Y-107898152D01*
X103153333Y-107898152D02*
X103105714Y-107993390D01*
X103105714Y-107993390D02*
X103058095Y-108041009D01*
X103058095Y-108041009D02*
X102962857Y-108088628D01*
X102962857Y-108088628D02*
X102581905Y-108088628D01*
X104105714Y-108564819D02*
X103534286Y-108564819D01*
X103820000Y-108564819D02*
X103820000Y-107564819D01*
X103820000Y-107564819D02*
X103724762Y-107707676D01*
X103724762Y-107707676D02*
X103629524Y-107802914D01*
X103629524Y-107802914D02*
X103534286Y-107850533D01*
X115907142Y-117414819D02*
X115573809Y-116938628D01*
X115335714Y-117414819D02*
X115335714Y-116414819D01*
X115335714Y-116414819D02*
X115716666Y-116414819D01*
X115716666Y-116414819D02*
X115811904Y-116462438D01*
X115811904Y-116462438D02*
X115859523Y-116510057D01*
X115859523Y-116510057D02*
X115907142Y-116605295D01*
X115907142Y-116605295D02*
X115907142Y-116748152D01*
X115907142Y-116748152D02*
X115859523Y-116843390D01*
X115859523Y-116843390D02*
X115811904Y-116891009D01*
X115811904Y-116891009D02*
X115716666Y-116938628D01*
X115716666Y-116938628D02*
X115335714Y-116938628D01*
X116859523Y-117414819D02*
X116288095Y-117414819D01*
X116573809Y-117414819D02*
X116573809Y-116414819D01*
X116573809Y-116414819D02*
X116478571Y-116557676D01*
X116478571Y-116557676D02*
X116383333Y-116652914D01*
X116383333Y-116652914D02*
X116288095Y-116700533D01*
X117716666Y-116414819D02*
X117526190Y-116414819D01*
X117526190Y-116414819D02*
X117430952Y-116462438D01*
X117430952Y-116462438D02*
X117383333Y-116510057D01*
X117383333Y-116510057D02*
X117288095Y-116652914D01*
X117288095Y-116652914D02*
X117240476Y-116843390D01*
X117240476Y-116843390D02*
X117240476Y-117224342D01*
X117240476Y-117224342D02*
X117288095Y-117319580D01*
X117288095Y-117319580D02*
X117335714Y-117367200D01*
X117335714Y-117367200D02*
X117430952Y-117414819D01*
X117430952Y-117414819D02*
X117621428Y-117414819D01*
X117621428Y-117414819D02*
X117716666Y-117367200D01*
X117716666Y-117367200D02*
X117764285Y-117319580D01*
X117764285Y-117319580D02*
X117811904Y-117224342D01*
X117811904Y-117224342D02*
X117811904Y-116986247D01*
X117811904Y-116986247D02*
X117764285Y-116891009D01*
X117764285Y-116891009D02*
X117716666Y-116843390D01*
X117716666Y-116843390D02*
X117621428Y-116795771D01*
X117621428Y-116795771D02*
X117430952Y-116795771D01*
X117430952Y-116795771D02*
X117335714Y-116843390D01*
X117335714Y-116843390D02*
X117288095Y-116891009D01*
X117288095Y-116891009D02*
X117240476Y-116986247D01*
X184104167Y-107657200D02*
X184247024Y-107704819D01*
X184247024Y-107704819D02*
X184485119Y-107704819D01*
X184485119Y-107704819D02*
X184580357Y-107657200D01*
X184580357Y-107657200D02*
X184627976Y-107609580D01*
X184627976Y-107609580D02*
X184675595Y-107514342D01*
X184675595Y-107514342D02*
X184675595Y-107419104D01*
X184675595Y-107419104D02*
X184627976Y-107323866D01*
X184627976Y-107323866D02*
X184580357Y-107276247D01*
X184580357Y-107276247D02*
X184485119Y-107228628D01*
X184485119Y-107228628D02*
X184294643Y-107181009D01*
X184294643Y-107181009D02*
X184199405Y-107133390D01*
X184199405Y-107133390D02*
X184151786Y-107085771D01*
X184151786Y-107085771D02*
X184104167Y-106990533D01*
X184104167Y-106990533D02*
X184104167Y-106895295D01*
X184104167Y-106895295D02*
X184151786Y-106800057D01*
X184151786Y-106800057D02*
X184199405Y-106752438D01*
X184199405Y-106752438D02*
X184294643Y-106704819D01*
X184294643Y-106704819D02*
X184532738Y-106704819D01*
X184532738Y-106704819D02*
X184675595Y-106752438D01*
X185008929Y-106704819D02*
X185247024Y-107704819D01*
X185247024Y-107704819D02*
X185437500Y-106990533D01*
X185437500Y-106990533D02*
X185627976Y-107704819D01*
X185627976Y-107704819D02*
X185866072Y-106704819D01*
X186770833Y-107704819D02*
X186199405Y-107704819D01*
X186485119Y-107704819D02*
X186485119Y-106704819D01*
X186485119Y-106704819D02*
X186389881Y-106847676D01*
X186389881Y-106847676D02*
X186294643Y-106942914D01*
X186294643Y-106942914D02*
X186199405Y-106990533D01*
X179426370Y-38011183D02*
X179426370Y-37011183D01*
X179426370Y-37011183D02*
X179664465Y-37011183D01*
X179664465Y-37011183D02*
X179807322Y-37058802D01*
X179807322Y-37058802D02*
X179902560Y-37154040D01*
X179902560Y-37154040D02*
X179950179Y-37249278D01*
X179950179Y-37249278D02*
X179997798Y-37439754D01*
X179997798Y-37439754D02*
X179997798Y-37582611D01*
X179997798Y-37582611D02*
X179950179Y-37773087D01*
X179950179Y-37773087D02*
X179902560Y-37868325D01*
X179902560Y-37868325D02*
X179807322Y-37963564D01*
X179807322Y-37963564D02*
X179664465Y-38011183D01*
X179664465Y-38011183D02*
X179426370Y-38011183D01*
X180854941Y-37344516D02*
X180854941Y-38011183D01*
X180616846Y-36963564D02*
X180378751Y-37677849D01*
X180378751Y-37677849D02*
X180997798Y-37677849D01*
X181426370Y-38011183D02*
X181616846Y-38011183D01*
X181616846Y-38011183D02*
X181712084Y-37963564D01*
X181712084Y-37963564D02*
X181759703Y-37915944D01*
X181759703Y-37915944D02*
X181854941Y-37773087D01*
X181854941Y-37773087D02*
X181902560Y-37582611D01*
X181902560Y-37582611D02*
X181902560Y-37201659D01*
X181902560Y-37201659D02*
X181854941Y-37106421D01*
X181854941Y-37106421D02*
X181807322Y-37058802D01*
X181807322Y-37058802D02*
X181712084Y-37011183D01*
X181712084Y-37011183D02*
X181521608Y-37011183D01*
X181521608Y-37011183D02*
X181426370Y-37058802D01*
X181426370Y-37058802D02*
X181378751Y-37106421D01*
X181378751Y-37106421D02*
X181331132Y-37201659D01*
X181331132Y-37201659D02*
X181331132Y-37439754D01*
X181331132Y-37439754D02*
X181378751Y-37534992D01*
X181378751Y-37534992D02*
X181426370Y-37582611D01*
X181426370Y-37582611D02*
X181521608Y-37630230D01*
X181521608Y-37630230D02*
X181712084Y-37630230D01*
X181712084Y-37630230D02*
X181807322Y-37582611D01*
X181807322Y-37582611D02*
X181854941Y-37534992D01*
X181854941Y-37534992D02*
X181902560Y-37439754D01*
X186845887Y-45489297D02*
X186845887Y-44489297D01*
X186845887Y-44489297D02*
X187083982Y-44489297D01*
X187083982Y-44489297D02*
X187226839Y-44536916D01*
X187226839Y-44536916D02*
X187322077Y-44632154D01*
X187322077Y-44632154D02*
X187369696Y-44727392D01*
X187369696Y-44727392D02*
X187417315Y-44917868D01*
X187417315Y-44917868D02*
X187417315Y-45060725D01*
X187417315Y-45060725D02*
X187369696Y-45251201D01*
X187369696Y-45251201D02*
X187322077Y-45346439D01*
X187322077Y-45346439D02*
X187226839Y-45441678D01*
X187226839Y-45441678D02*
X187083982Y-45489297D01*
X187083982Y-45489297D02*
X186845887Y-45489297D01*
X188322077Y-44489297D02*
X187845887Y-44489297D01*
X187845887Y-44489297D02*
X187798268Y-44965487D01*
X187798268Y-44965487D02*
X187845887Y-44917868D01*
X187845887Y-44917868D02*
X187941125Y-44870249D01*
X187941125Y-44870249D02*
X188179220Y-44870249D01*
X188179220Y-44870249D02*
X188274458Y-44917868D01*
X188274458Y-44917868D02*
X188322077Y-44965487D01*
X188322077Y-44965487D02*
X188369696Y-45060725D01*
X188369696Y-45060725D02*
X188369696Y-45298820D01*
X188369696Y-45298820D02*
X188322077Y-45394058D01*
X188322077Y-45394058D02*
X188274458Y-45441678D01*
X188274458Y-45441678D02*
X188179220Y-45489297D01*
X188179220Y-45489297D02*
X187941125Y-45489297D01*
X187941125Y-45489297D02*
X187845887Y-45441678D01*
X187845887Y-45441678D02*
X187798268Y-45394058D01*
X189322077Y-45489297D02*
X188750649Y-45489297D01*
X189036363Y-45489297D02*
X189036363Y-44489297D01*
X189036363Y-44489297D02*
X188941125Y-44632154D01*
X188941125Y-44632154D02*
X188845887Y-44727392D01*
X188845887Y-44727392D02*
X188750649Y-44775011D01*
X149515714Y-83024819D02*
X149515714Y-82024819D01*
X149515714Y-82024819D02*
X149753809Y-82024819D01*
X149753809Y-82024819D02*
X149896666Y-82072438D01*
X149896666Y-82072438D02*
X149991904Y-82167676D01*
X149991904Y-82167676D02*
X150039523Y-82262914D01*
X150039523Y-82262914D02*
X150087142Y-82453390D01*
X150087142Y-82453390D02*
X150087142Y-82596247D01*
X150087142Y-82596247D02*
X150039523Y-82786723D01*
X150039523Y-82786723D02*
X149991904Y-82881961D01*
X149991904Y-82881961D02*
X149896666Y-82977200D01*
X149896666Y-82977200D02*
X149753809Y-83024819D01*
X149753809Y-83024819D02*
X149515714Y-83024819D01*
X150420476Y-82024819D02*
X151039523Y-82024819D01*
X151039523Y-82024819D02*
X150706190Y-82405771D01*
X150706190Y-82405771D02*
X150849047Y-82405771D01*
X150849047Y-82405771D02*
X150944285Y-82453390D01*
X150944285Y-82453390D02*
X150991904Y-82501009D01*
X150991904Y-82501009D02*
X151039523Y-82596247D01*
X151039523Y-82596247D02*
X151039523Y-82834342D01*
X151039523Y-82834342D02*
X150991904Y-82929580D01*
X150991904Y-82929580D02*
X150944285Y-82977200D01*
X150944285Y-82977200D02*
X150849047Y-83024819D01*
X150849047Y-83024819D02*
X150563333Y-83024819D01*
X150563333Y-83024819D02*
X150468095Y-82977200D01*
X150468095Y-82977200D02*
X150420476Y-82929580D01*
X151658571Y-82024819D02*
X151753809Y-82024819D01*
X151753809Y-82024819D02*
X151849047Y-82072438D01*
X151849047Y-82072438D02*
X151896666Y-82120057D01*
X151896666Y-82120057D02*
X151944285Y-82215295D01*
X151944285Y-82215295D02*
X151991904Y-82405771D01*
X151991904Y-82405771D02*
X151991904Y-82643866D01*
X151991904Y-82643866D02*
X151944285Y-82834342D01*
X151944285Y-82834342D02*
X151896666Y-82929580D01*
X151896666Y-82929580D02*
X151849047Y-82977200D01*
X151849047Y-82977200D02*
X151753809Y-83024819D01*
X151753809Y-83024819D02*
X151658571Y-83024819D01*
X151658571Y-83024819D02*
X151563333Y-82977200D01*
X151563333Y-82977200D02*
X151515714Y-82929580D01*
X151515714Y-82929580D02*
X151468095Y-82834342D01*
X151468095Y-82834342D02*
X151420476Y-82643866D01*
X151420476Y-82643866D02*
X151420476Y-82405771D01*
X151420476Y-82405771D02*
X151468095Y-82215295D01*
X151468095Y-82215295D02*
X151515714Y-82120057D01*
X151515714Y-82120057D02*
X151563333Y-82072438D01*
X151563333Y-82072438D02*
X151658571Y-82024819D01*
X128160714Y-72304819D02*
X128160714Y-71304819D01*
X128160714Y-71304819D02*
X128398809Y-71304819D01*
X128398809Y-71304819D02*
X128541666Y-71352438D01*
X128541666Y-71352438D02*
X128636904Y-71447676D01*
X128636904Y-71447676D02*
X128684523Y-71542914D01*
X128684523Y-71542914D02*
X128732142Y-71733390D01*
X128732142Y-71733390D02*
X128732142Y-71876247D01*
X128732142Y-71876247D02*
X128684523Y-72066723D01*
X128684523Y-72066723D02*
X128636904Y-72161961D01*
X128636904Y-72161961D02*
X128541666Y-72257200D01*
X128541666Y-72257200D02*
X128398809Y-72304819D01*
X128398809Y-72304819D02*
X128160714Y-72304819D01*
X129684523Y-72304819D02*
X129113095Y-72304819D01*
X129398809Y-72304819D02*
X129398809Y-71304819D01*
X129398809Y-71304819D02*
X129303571Y-71447676D01*
X129303571Y-71447676D02*
X129208333Y-71542914D01*
X129208333Y-71542914D02*
X129113095Y-71590533D01*
X130255952Y-71733390D02*
X130160714Y-71685771D01*
X130160714Y-71685771D02*
X130113095Y-71638152D01*
X130113095Y-71638152D02*
X130065476Y-71542914D01*
X130065476Y-71542914D02*
X130065476Y-71495295D01*
X130065476Y-71495295D02*
X130113095Y-71400057D01*
X130113095Y-71400057D02*
X130160714Y-71352438D01*
X130160714Y-71352438D02*
X130255952Y-71304819D01*
X130255952Y-71304819D02*
X130446428Y-71304819D01*
X130446428Y-71304819D02*
X130541666Y-71352438D01*
X130541666Y-71352438D02*
X130589285Y-71400057D01*
X130589285Y-71400057D02*
X130636904Y-71495295D01*
X130636904Y-71495295D02*
X130636904Y-71542914D01*
X130636904Y-71542914D02*
X130589285Y-71638152D01*
X130589285Y-71638152D02*
X130541666Y-71685771D01*
X130541666Y-71685771D02*
X130446428Y-71733390D01*
X130446428Y-71733390D02*
X130255952Y-71733390D01*
X130255952Y-71733390D02*
X130160714Y-71781009D01*
X130160714Y-71781009D02*
X130113095Y-71828628D01*
X130113095Y-71828628D02*
X130065476Y-71923866D01*
X130065476Y-71923866D02*
X130065476Y-72114342D01*
X130065476Y-72114342D02*
X130113095Y-72209580D01*
X130113095Y-72209580D02*
X130160714Y-72257200D01*
X130160714Y-72257200D02*
X130255952Y-72304819D01*
X130255952Y-72304819D02*
X130446428Y-72304819D01*
X130446428Y-72304819D02*
X130541666Y-72257200D01*
X130541666Y-72257200D02*
X130589285Y-72209580D01*
X130589285Y-72209580D02*
X130636904Y-72114342D01*
X130636904Y-72114342D02*
X130636904Y-71923866D01*
X130636904Y-71923866D02*
X130589285Y-71828628D01*
X130589285Y-71828628D02*
X130541666Y-71781009D01*
X130541666Y-71781009D02*
X130446428Y-71733390D01*
X186845887Y-60620981D02*
X186845887Y-59620981D01*
X186845887Y-59620981D02*
X187083982Y-59620981D01*
X187083982Y-59620981D02*
X187226839Y-59668600D01*
X187226839Y-59668600D02*
X187322077Y-59763838D01*
X187322077Y-59763838D02*
X187369696Y-59859076D01*
X187369696Y-59859076D02*
X187417315Y-60049552D01*
X187417315Y-60049552D02*
X187417315Y-60192409D01*
X187417315Y-60192409D02*
X187369696Y-60382885D01*
X187369696Y-60382885D02*
X187322077Y-60478123D01*
X187322077Y-60478123D02*
X187226839Y-60573362D01*
X187226839Y-60573362D02*
X187083982Y-60620981D01*
X187083982Y-60620981D02*
X186845887Y-60620981D01*
X188322077Y-59620981D02*
X187845887Y-59620981D01*
X187845887Y-59620981D02*
X187798268Y-60097171D01*
X187798268Y-60097171D02*
X187845887Y-60049552D01*
X187845887Y-60049552D02*
X187941125Y-60001933D01*
X187941125Y-60001933D02*
X188179220Y-60001933D01*
X188179220Y-60001933D02*
X188274458Y-60049552D01*
X188274458Y-60049552D02*
X188322077Y-60097171D01*
X188322077Y-60097171D02*
X188369696Y-60192409D01*
X188369696Y-60192409D02*
X188369696Y-60430504D01*
X188369696Y-60430504D02*
X188322077Y-60525742D01*
X188322077Y-60525742D02*
X188274458Y-60573362D01*
X188274458Y-60573362D02*
X188179220Y-60620981D01*
X188179220Y-60620981D02*
X187941125Y-60620981D01*
X187941125Y-60620981D02*
X187845887Y-60573362D01*
X187845887Y-60573362D02*
X187798268Y-60525742D01*
X188750649Y-59716219D02*
X188798268Y-59668600D01*
X188798268Y-59668600D02*
X188893506Y-59620981D01*
X188893506Y-59620981D02*
X189131601Y-59620981D01*
X189131601Y-59620981D02*
X189226839Y-59668600D01*
X189226839Y-59668600D02*
X189274458Y-59716219D01*
X189274458Y-59716219D02*
X189322077Y-59811457D01*
X189322077Y-59811457D02*
X189322077Y-59906695D01*
X189322077Y-59906695D02*
X189274458Y-60049552D01*
X189274458Y-60049552D02*
X188703030Y-60620981D01*
X188703030Y-60620981D02*
X189322077Y-60620981D01*
X128223214Y-61804819D02*
X128223214Y-60804819D01*
X128223214Y-60804819D02*
X128461309Y-60804819D01*
X128461309Y-60804819D02*
X128604166Y-60852438D01*
X128604166Y-60852438D02*
X128699404Y-60947676D01*
X128699404Y-60947676D02*
X128747023Y-61042914D01*
X128747023Y-61042914D02*
X128794642Y-61233390D01*
X128794642Y-61233390D02*
X128794642Y-61376247D01*
X128794642Y-61376247D02*
X128747023Y-61566723D01*
X128747023Y-61566723D02*
X128699404Y-61661961D01*
X128699404Y-61661961D02*
X128604166Y-61757200D01*
X128604166Y-61757200D02*
X128461309Y-61804819D01*
X128461309Y-61804819D02*
X128223214Y-61804819D01*
X129747023Y-61804819D02*
X129175595Y-61804819D01*
X129461309Y-61804819D02*
X129461309Y-60804819D01*
X129461309Y-60804819D02*
X129366071Y-60947676D01*
X129366071Y-60947676D02*
X129270833Y-61042914D01*
X129270833Y-61042914D02*
X129175595Y-61090533D01*
X130651785Y-60804819D02*
X130175595Y-60804819D01*
X130175595Y-60804819D02*
X130127976Y-61281009D01*
X130127976Y-61281009D02*
X130175595Y-61233390D01*
X130175595Y-61233390D02*
X130270833Y-61185771D01*
X130270833Y-61185771D02*
X130508928Y-61185771D01*
X130508928Y-61185771D02*
X130604166Y-61233390D01*
X130604166Y-61233390D02*
X130651785Y-61281009D01*
X130651785Y-61281009D02*
X130699404Y-61376247D01*
X130699404Y-61376247D02*
X130699404Y-61614342D01*
X130699404Y-61614342D02*
X130651785Y-61709580D01*
X130651785Y-61709580D02*
X130604166Y-61757200D01*
X130604166Y-61757200D02*
X130508928Y-61804819D01*
X130508928Y-61804819D02*
X130270833Y-61804819D01*
X130270833Y-61804819D02*
X130175595Y-61757200D01*
X130175595Y-61757200D02*
X130127976Y-61709580D01*
X149515714Y-68084819D02*
X149515714Y-67084819D01*
X149515714Y-67084819D02*
X149753809Y-67084819D01*
X149753809Y-67084819D02*
X149896666Y-67132438D01*
X149896666Y-67132438D02*
X149991904Y-67227676D01*
X149991904Y-67227676D02*
X150039523Y-67322914D01*
X150039523Y-67322914D02*
X150087142Y-67513390D01*
X150087142Y-67513390D02*
X150087142Y-67656247D01*
X150087142Y-67656247D02*
X150039523Y-67846723D01*
X150039523Y-67846723D02*
X149991904Y-67941961D01*
X149991904Y-67941961D02*
X149896666Y-68037200D01*
X149896666Y-68037200D02*
X149753809Y-68084819D01*
X149753809Y-68084819D02*
X149515714Y-68084819D01*
X150468095Y-67180057D02*
X150515714Y-67132438D01*
X150515714Y-67132438D02*
X150610952Y-67084819D01*
X150610952Y-67084819D02*
X150849047Y-67084819D01*
X150849047Y-67084819D02*
X150944285Y-67132438D01*
X150944285Y-67132438D02*
X150991904Y-67180057D01*
X150991904Y-67180057D02*
X151039523Y-67275295D01*
X151039523Y-67275295D02*
X151039523Y-67370533D01*
X151039523Y-67370533D02*
X150991904Y-67513390D01*
X150991904Y-67513390D02*
X150420476Y-68084819D01*
X150420476Y-68084819D02*
X151039523Y-68084819D01*
X151610952Y-67513390D02*
X151515714Y-67465771D01*
X151515714Y-67465771D02*
X151468095Y-67418152D01*
X151468095Y-67418152D02*
X151420476Y-67322914D01*
X151420476Y-67322914D02*
X151420476Y-67275295D01*
X151420476Y-67275295D02*
X151468095Y-67180057D01*
X151468095Y-67180057D02*
X151515714Y-67132438D01*
X151515714Y-67132438D02*
X151610952Y-67084819D01*
X151610952Y-67084819D02*
X151801428Y-67084819D01*
X151801428Y-67084819D02*
X151896666Y-67132438D01*
X151896666Y-67132438D02*
X151944285Y-67180057D01*
X151944285Y-67180057D02*
X151991904Y-67275295D01*
X151991904Y-67275295D02*
X151991904Y-67322914D01*
X151991904Y-67322914D02*
X151944285Y-67418152D01*
X151944285Y-67418152D02*
X151896666Y-67465771D01*
X151896666Y-67465771D02*
X151801428Y-67513390D01*
X151801428Y-67513390D02*
X151610952Y-67513390D01*
X151610952Y-67513390D02*
X151515714Y-67561009D01*
X151515714Y-67561009D02*
X151468095Y-67608628D01*
X151468095Y-67608628D02*
X151420476Y-67703866D01*
X151420476Y-67703866D02*
X151420476Y-67894342D01*
X151420476Y-67894342D02*
X151468095Y-67989580D01*
X151468095Y-67989580D02*
X151515714Y-68037200D01*
X151515714Y-68037200D02*
X151610952Y-68084819D01*
X151610952Y-68084819D02*
X151801428Y-68084819D01*
X151801428Y-68084819D02*
X151896666Y-68037200D01*
X151896666Y-68037200D02*
X151944285Y-67989580D01*
X151944285Y-67989580D02*
X151991904Y-67894342D01*
X151991904Y-67894342D02*
X151991904Y-67703866D01*
X151991904Y-67703866D02*
X151944285Y-67608628D01*
X151944285Y-67608628D02*
X151896666Y-67561009D01*
X151896666Y-67561009D02*
X151801428Y-67513390D01*
X128128006Y-77647900D02*
X128128006Y-76647900D01*
X128128006Y-76647900D02*
X128366101Y-76647900D01*
X128366101Y-76647900D02*
X128508958Y-76695519D01*
X128508958Y-76695519D02*
X128604196Y-76790757D01*
X128604196Y-76790757D02*
X128651815Y-76885995D01*
X128651815Y-76885995D02*
X128699434Y-77076471D01*
X128699434Y-77076471D02*
X128699434Y-77219328D01*
X128699434Y-77219328D02*
X128651815Y-77409804D01*
X128651815Y-77409804D02*
X128604196Y-77505042D01*
X128604196Y-77505042D02*
X128508958Y-77600281D01*
X128508958Y-77600281D02*
X128366101Y-77647900D01*
X128366101Y-77647900D02*
X128128006Y-77647900D01*
X129080387Y-76743138D02*
X129128006Y-76695519D01*
X129128006Y-76695519D02*
X129223244Y-76647900D01*
X129223244Y-76647900D02*
X129461339Y-76647900D01*
X129461339Y-76647900D02*
X129556577Y-76695519D01*
X129556577Y-76695519D02*
X129604196Y-76743138D01*
X129604196Y-76743138D02*
X129651815Y-76838376D01*
X129651815Y-76838376D02*
X129651815Y-76933614D01*
X129651815Y-76933614D02*
X129604196Y-77076471D01*
X129604196Y-77076471D02*
X129032768Y-77647900D01*
X129032768Y-77647900D02*
X129651815Y-77647900D01*
X130270863Y-76647900D02*
X130366101Y-76647900D01*
X130366101Y-76647900D02*
X130461339Y-76695519D01*
X130461339Y-76695519D02*
X130508958Y-76743138D01*
X130508958Y-76743138D02*
X130556577Y-76838376D01*
X130556577Y-76838376D02*
X130604196Y-77028852D01*
X130604196Y-77028852D02*
X130604196Y-77266947D01*
X130604196Y-77266947D02*
X130556577Y-77457423D01*
X130556577Y-77457423D02*
X130508958Y-77552661D01*
X130508958Y-77552661D02*
X130461339Y-77600281D01*
X130461339Y-77600281D02*
X130366101Y-77647900D01*
X130366101Y-77647900D02*
X130270863Y-77647900D01*
X130270863Y-77647900D02*
X130175625Y-77600281D01*
X130175625Y-77600281D02*
X130128006Y-77552661D01*
X130128006Y-77552661D02*
X130080387Y-77457423D01*
X130080387Y-77457423D02*
X130032768Y-77266947D01*
X130032768Y-77266947D02*
X130032768Y-77028852D01*
X130032768Y-77028852D02*
X130080387Y-76838376D01*
X130080387Y-76838376D02*
X130128006Y-76743138D01*
X130128006Y-76743138D02*
X130175625Y-76695519D01*
X130175625Y-76695519D02*
X130270863Y-76647900D01*
X134611041Y-97936089D02*
X134611041Y-96936089D01*
X134611041Y-96936089D02*
X134849136Y-96936089D01*
X134849136Y-96936089D02*
X134991993Y-96983708D01*
X134991993Y-96983708D02*
X135087231Y-97078946D01*
X135087231Y-97078946D02*
X135134850Y-97174184D01*
X135134850Y-97174184D02*
X135182469Y-97364660D01*
X135182469Y-97364660D02*
X135182469Y-97507517D01*
X135182469Y-97507517D02*
X135134850Y-97697993D01*
X135134850Y-97697993D02*
X135087231Y-97793231D01*
X135087231Y-97793231D02*
X134991993Y-97888470D01*
X134991993Y-97888470D02*
X134849136Y-97936089D01*
X134849136Y-97936089D02*
X134611041Y-97936089D01*
X136039612Y-97269422D02*
X136039612Y-97936089D01*
X135801517Y-96888470D02*
X135563422Y-97602755D01*
X135563422Y-97602755D02*
X136182469Y-97602755D01*
X136468184Y-96936089D02*
X137087231Y-96936089D01*
X137087231Y-96936089D02*
X136753898Y-97317041D01*
X136753898Y-97317041D02*
X136896755Y-97317041D01*
X136896755Y-97317041D02*
X136991993Y-97364660D01*
X136991993Y-97364660D02*
X137039612Y-97412279D01*
X137039612Y-97412279D02*
X137087231Y-97507517D01*
X137087231Y-97507517D02*
X137087231Y-97745612D01*
X137087231Y-97745612D02*
X137039612Y-97840850D01*
X137039612Y-97840850D02*
X136991993Y-97888470D01*
X136991993Y-97888470D02*
X136896755Y-97936089D01*
X136896755Y-97936089D02*
X136611041Y-97936089D01*
X136611041Y-97936089D02*
X136515803Y-97888470D01*
X136515803Y-97888470D02*
X136468184Y-97840850D01*
X194283879Y-75825203D02*
X194283879Y-74825203D01*
X194283879Y-74825203D02*
X194521974Y-74825203D01*
X194521974Y-74825203D02*
X194664831Y-74872822D01*
X194664831Y-74872822D02*
X194760069Y-74968060D01*
X194760069Y-74968060D02*
X194807688Y-75063298D01*
X194807688Y-75063298D02*
X194855307Y-75253774D01*
X194855307Y-75253774D02*
X194855307Y-75396631D01*
X194855307Y-75396631D02*
X194807688Y-75587107D01*
X194807688Y-75587107D02*
X194760069Y-75682345D01*
X194760069Y-75682345D02*
X194664831Y-75777584D01*
X194664831Y-75777584D02*
X194521974Y-75825203D01*
X194521974Y-75825203D02*
X194283879Y-75825203D01*
X195807688Y-75825203D02*
X195236260Y-75825203D01*
X195521974Y-75825203D02*
X195521974Y-74825203D01*
X195521974Y-74825203D02*
X195426736Y-74968060D01*
X195426736Y-74968060D02*
X195331498Y-75063298D01*
X195331498Y-75063298D02*
X195236260Y-75110917D01*
X196664831Y-75158536D02*
X196664831Y-75825203D01*
X196426736Y-74777584D02*
X196188641Y-75491869D01*
X196188641Y-75491869D02*
X196807688Y-75491869D01*
X186845887Y-68090981D02*
X186845887Y-67090981D01*
X186845887Y-67090981D02*
X187083982Y-67090981D01*
X187083982Y-67090981D02*
X187226839Y-67138600D01*
X187226839Y-67138600D02*
X187322077Y-67233838D01*
X187322077Y-67233838D02*
X187369696Y-67329076D01*
X187369696Y-67329076D02*
X187417315Y-67519552D01*
X187417315Y-67519552D02*
X187417315Y-67662409D01*
X187417315Y-67662409D02*
X187369696Y-67852885D01*
X187369696Y-67852885D02*
X187322077Y-67948123D01*
X187322077Y-67948123D02*
X187226839Y-68043362D01*
X187226839Y-68043362D02*
X187083982Y-68090981D01*
X187083982Y-68090981D02*
X186845887Y-68090981D01*
X188322077Y-67090981D02*
X187845887Y-67090981D01*
X187845887Y-67090981D02*
X187798268Y-67567171D01*
X187798268Y-67567171D02*
X187845887Y-67519552D01*
X187845887Y-67519552D02*
X187941125Y-67471933D01*
X187941125Y-67471933D02*
X188179220Y-67471933D01*
X188179220Y-67471933D02*
X188274458Y-67519552D01*
X188274458Y-67519552D02*
X188322077Y-67567171D01*
X188322077Y-67567171D02*
X188369696Y-67662409D01*
X188369696Y-67662409D02*
X188369696Y-67900504D01*
X188369696Y-67900504D02*
X188322077Y-67995742D01*
X188322077Y-67995742D02*
X188274458Y-68043362D01*
X188274458Y-68043362D02*
X188179220Y-68090981D01*
X188179220Y-68090981D02*
X187941125Y-68090981D01*
X187941125Y-68090981D02*
X187845887Y-68043362D01*
X187845887Y-68043362D02*
X187798268Y-67995742D01*
X188703030Y-67090981D02*
X189322077Y-67090981D01*
X189322077Y-67090981D02*
X188988744Y-67471933D01*
X188988744Y-67471933D02*
X189131601Y-67471933D01*
X189131601Y-67471933D02*
X189226839Y-67519552D01*
X189226839Y-67519552D02*
X189274458Y-67567171D01*
X189274458Y-67567171D02*
X189322077Y-67662409D01*
X189322077Y-67662409D02*
X189322077Y-67900504D01*
X189322077Y-67900504D02*
X189274458Y-67995742D01*
X189274458Y-67995742D02*
X189226839Y-68043362D01*
X189226839Y-68043362D02*
X189131601Y-68090981D01*
X189131601Y-68090981D02*
X188845887Y-68090981D01*
X188845887Y-68090981D02*
X188750649Y-68043362D01*
X188750649Y-68043362D02*
X188703030Y-67995742D01*
X186845887Y-38019297D02*
X186845887Y-37019297D01*
X186845887Y-37019297D02*
X187083982Y-37019297D01*
X187083982Y-37019297D02*
X187226839Y-37066916D01*
X187226839Y-37066916D02*
X187322077Y-37162154D01*
X187322077Y-37162154D02*
X187369696Y-37257392D01*
X187369696Y-37257392D02*
X187417315Y-37447868D01*
X187417315Y-37447868D02*
X187417315Y-37590725D01*
X187417315Y-37590725D02*
X187369696Y-37781201D01*
X187369696Y-37781201D02*
X187322077Y-37876439D01*
X187322077Y-37876439D02*
X187226839Y-37971678D01*
X187226839Y-37971678D02*
X187083982Y-38019297D01*
X187083982Y-38019297D02*
X186845887Y-38019297D01*
X188322077Y-37019297D02*
X187845887Y-37019297D01*
X187845887Y-37019297D02*
X187798268Y-37495487D01*
X187798268Y-37495487D02*
X187845887Y-37447868D01*
X187845887Y-37447868D02*
X187941125Y-37400249D01*
X187941125Y-37400249D02*
X188179220Y-37400249D01*
X188179220Y-37400249D02*
X188274458Y-37447868D01*
X188274458Y-37447868D02*
X188322077Y-37495487D01*
X188322077Y-37495487D02*
X188369696Y-37590725D01*
X188369696Y-37590725D02*
X188369696Y-37828820D01*
X188369696Y-37828820D02*
X188322077Y-37924058D01*
X188322077Y-37924058D02*
X188274458Y-37971678D01*
X188274458Y-37971678D02*
X188179220Y-38019297D01*
X188179220Y-38019297D02*
X187941125Y-38019297D01*
X187941125Y-38019297D02*
X187845887Y-37971678D01*
X187845887Y-37971678D02*
X187798268Y-37924058D01*
X188988744Y-37019297D02*
X189083982Y-37019297D01*
X189083982Y-37019297D02*
X189179220Y-37066916D01*
X189179220Y-37066916D02*
X189226839Y-37114535D01*
X189226839Y-37114535D02*
X189274458Y-37209773D01*
X189274458Y-37209773D02*
X189322077Y-37400249D01*
X189322077Y-37400249D02*
X189322077Y-37638344D01*
X189322077Y-37638344D02*
X189274458Y-37828820D01*
X189274458Y-37828820D02*
X189226839Y-37924058D01*
X189226839Y-37924058D02*
X189179220Y-37971678D01*
X189179220Y-37971678D02*
X189083982Y-38019297D01*
X189083982Y-38019297D02*
X188988744Y-38019297D01*
X188988744Y-38019297D02*
X188893506Y-37971678D01*
X188893506Y-37971678D02*
X188845887Y-37924058D01*
X188845887Y-37924058D02*
X188798268Y-37828820D01*
X188798268Y-37828820D02*
X188750649Y-37638344D01*
X188750649Y-37638344D02*
X188750649Y-37400249D01*
X188750649Y-37400249D02*
X188798268Y-37209773D01*
X188798268Y-37209773D02*
X188845887Y-37114535D01*
X188845887Y-37114535D02*
X188893506Y-37066916D01*
X188893506Y-37066916D02*
X188988744Y-37019297D01*
X134611041Y-90466089D02*
X134611041Y-89466089D01*
X134611041Y-89466089D02*
X134849136Y-89466089D01*
X134849136Y-89466089D02*
X134991993Y-89513708D01*
X134991993Y-89513708D02*
X135087231Y-89608946D01*
X135087231Y-89608946D02*
X135134850Y-89704184D01*
X135134850Y-89704184D02*
X135182469Y-89894660D01*
X135182469Y-89894660D02*
X135182469Y-90037517D01*
X135182469Y-90037517D02*
X135134850Y-90227993D01*
X135134850Y-90227993D02*
X135087231Y-90323231D01*
X135087231Y-90323231D02*
X134991993Y-90418470D01*
X134991993Y-90418470D02*
X134849136Y-90466089D01*
X134849136Y-90466089D02*
X134611041Y-90466089D01*
X136039612Y-89799422D02*
X136039612Y-90466089D01*
X135801517Y-89418470D02*
X135563422Y-90132755D01*
X135563422Y-90132755D02*
X136182469Y-90132755D01*
X136515803Y-89561327D02*
X136563422Y-89513708D01*
X136563422Y-89513708D02*
X136658660Y-89466089D01*
X136658660Y-89466089D02*
X136896755Y-89466089D01*
X136896755Y-89466089D02*
X136991993Y-89513708D01*
X136991993Y-89513708D02*
X137039612Y-89561327D01*
X137039612Y-89561327D02*
X137087231Y-89656565D01*
X137087231Y-89656565D02*
X137087231Y-89751803D01*
X137087231Y-89751803D02*
X137039612Y-89894660D01*
X137039612Y-89894660D02*
X136468184Y-90466089D01*
X136468184Y-90466089D02*
X137087231Y-90466089D01*
X103153333Y-117414819D02*
X102820000Y-116938628D01*
X102581905Y-117414819D02*
X102581905Y-116414819D01*
X102581905Y-116414819D02*
X102962857Y-116414819D01*
X102962857Y-116414819D02*
X103058095Y-116462438D01*
X103058095Y-116462438D02*
X103105714Y-116510057D01*
X103105714Y-116510057D02*
X103153333Y-116605295D01*
X103153333Y-116605295D02*
X103153333Y-116748152D01*
X103153333Y-116748152D02*
X103105714Y-116843390D01*
X103105714Y-116843390D02*
X103058095Y-116891009D01*
X103058095Y-116891009D02*
X102962857Y-116938628D01*
X102962857Y-116938628D02*
X102581905Y-116938628D01*
X104010476Y-116748152D02*
X104010476Y-117414819D01*
X103772381Y-116367200D02*
X103534286Y-117081485D01*
X103534286Y-117081485D02*
X104153333Y-117081485D01*
X186845887Y-83030981D02*
X186845887Y-82030981D01*
X186845887Y-82030981D02*
X187083982Y-82030981D01*
X187083982Y-82030981D02*
X187226839Y-82078600D01*
X187226839Y-82078600D02*
X187322077Y-82173838D01*
X187322077Y-82173838D02*
X187369696Y-82269076D01*
X187369696Y-82269076D02*
X187417315Y-82459552D01*
X187417315Y-82459552D02*
X187417315Y-82602409D01*
X187417315Y-82602409D02*
X187369696Y-82792885D01*
X187369696Y-82792885D02*
X187322077Y-82888123D01*
X187322077Y-82888123D02*
X187226839Y-82983362D01*
X187226839Y-82983362D02*
X187083982Y-83030981D01*
X187083982Y-83030981D02*
X186845887Y-83030981D01*
X188322077Y-82030981D02*
X187845887Y-82030981D01*
X187845887Y-82030981D02*
X187798268Y-82507171D01*
X187798268Y-82507171D02*
X187845887Y-82459552D01*
X187845887Y-82459552D02*
X187941125Y-82411933D01*
X187941125Y-82411933D02*
X188179220Y-82411933D01*
X188179220Y-82411933D02*
X188274458Y-82459552D01*
X188274458Y-82459552D02*
X188322077Y-82507171D01*
X188322077Y-82507171D02*
X188369696Y-82602409D01*
X188369696Y-82602409D02*
X188369696Y-82840504D01*
X188369696Y-82840504D02*
X188322077Y-82935742D01*
X188322077Y-82935742D02*
X188274458Y-82983362D01*
X188274458Y-82983362D02*
X188179220Y-83030981D01*
X188179220Y-83030981D02*
X187941125Y-83030981D01*
X187941125Y-83030981D02*
X187845887Y-82983362D01*
X187845887Y-82983362D02*
X187798268Y-82935742D01*
X189274458Y-82030981D02*
X188798268Y-82030981D01*
X188798268Y-82030981D02*
X188750649Y-82507171D01*
X188750649Y-82507171D02*
X188798268Y-82459552D01*
X188798268Y-82459552D02*
X188893506Y-82411933D01*
X188893506Y-82411933D02*
X189131601Y-82411933D01*
X189131601Y-82411933D02*
X189226839Y-82459552D01*
X189226839Y-82459552D02*
X189274458Y-82507171D01*
X189274458Y-82507171D02*
X189322077Y-82602409D01*
X189322077Y-82602409D02*
X189322077Y-82840504D01*
X189322077Y-82840504D02*
X189274458Y-82935742D01*
X189274458Y-82935742D02*
X189226839Y-82983362D01*
X189226839Y-82983362D02*
X189131601Y-83030981D01*
X189131601Y-83030981D02*
X188893506Y-83030981D01*
X188893506Y-83030981D02*
X188798268Y-82983362D01*
X188798268Y-82983362D02*
X188750649Y-82935742D01*
X115907142Y-111514819D02*
X115573809Y-111038628D01*
X115335714Y-111514819D02*
X115335714Y-110514819D01*
X115335714Y-110514819D02*
X115716666Y-110514819D01*
X115716666Y-110514819D02*
X115811904Y-110562438D01*
X115811904Y-110562438D02*
X115859523Y-110610057D01*
X115859523Y-110610057D02*
X115907142Y-110705295D01*
X115907142Y-110705295D02*
X115907142Y-110848152D01*
X115907142Y-110848152D02*
X115859523Y-110943390D01*
X115859523Y-110943390D02*
X115811904Y-110991009D01*
X115811904Y-110991009D02*
X115716666Y-111038628D01*
X115716666Y-111038628D02*
X115335714Y-111038628D01*
X116859523Y-111514819D02*
X116288095Y-111514819D01*
X116573809Y-111514819D02*
X116573809Y-110514819D01*
X116573809Y-110514819D02*
X116478571Y-110657676D01*
X116478571Y-110657676D02*
X116383333Y-110752914D01*
X116383333Y-110752914D02*
X116288095Y-110800533D01*
X117716666Y-110848152D02*
X117716666Y-111514819D01*
X117478571Y-110467200D02*
X117240476Y-111181485D01*
X117240476Y-111181485D02*
X117859523Y-111181485D01*
X171712959Y-90539738D02*
X171712959Y-89539738D01*
X171712959Y-89539738D02*
X171951054Y-89539738D01*
X171951054Y-89539738D02*
X172093911Y-89587357D01*
X172093911Y-89587357D02*
X172189149Y-89682595D01*
X172189149Y-89682595D02*
X172236768Y-89777833D01*
X172236768Y-89777833D02*
X172284387Y-89968309D01*
X172284387Y-89968309D02*
X172284387Y-90111166D01*
X172284387Y-90111166D02*
X172236768Y-90301642D01*
X172236768Y-90301642D02*
X172189149Y-90396880D01*
X172189149Y-90396880D02*
X172093911Y-90492119D01*
X172093911Y-90492119D02*
X171951054Y-90539738D01*
X171951054Y-90539738D02*
X171712959Y-90539738D01*
X173141530Y-89873071D02*
X173141530Y-90539738D01*
X172903435Y-89492119D02*
X172665340Y-90206404D01*
X172665340Y-90206404D02*
X173284387Y-90206404D01*
X174093911Y-89873071D02*
X174093911Y-90539738D01*
X173855816Y-89492119D02*
X173617721Y-90206404D01*
X173617721Y-90206404D02*
X174236768Y-90206404D01*
X107563333Y-117414819D02*
X107230000Y-116938628D01*
X106991905Y-117414819D02*
X106991905Y-116414819D01*
X106991905Y-116414819D02*
X107372857Y-116414819D01*
X107372857Y-116414819D02*
X107468095Y-116462438D01*
X107468095Y-116462438D02*
X107515714Y-116510057D01*
X107515714Y-116510057D02*
X107563333Y-116605295D01*
X107563333Y-116605295D02*
X107563333Y-116748152D01*
X107563333Y-116748152D02*
X107515714Y-116843390D01*
X107515714Y-116843390D02*
X107468095Y-116891009D01*
X107468095Y-116891009D02*
X107372857Y-116938628D01*
X107372857Y-116938628D02*
X106991905Y-116938628D01*
X108134762Y-116843390D02*
X108039524Y-116795771D01*
X108039524Y-116795771D02*
X107991905Y-116748152D01*
X107991905Y-116748152D02*
X107944286Y-116652914D01*
X107944286Y-116652914D02*
X107944286Y-116605295D01*
X107944286Y-116605295D02*
X107991905Y-116510057D01*
X107991905Y-116510057D02*
X108039524Y-116462438D01*
X108039524Y-116462438D02*
X108134762Y-116414819D01*
X108134762Y-116414819D02*
X108325238Y-116414819D01*
X108325238Y-116414819D02*
X108420476Y-116462438D01*
X108420476Y-116462438D02*
X108468095Y-116510057D01*
X108468095Y-116510057D02*
X108515714Y-116605295D01*
X108515714Y-116605295D02*
X108515714Y-116652914D01*
X108515714Y-116652914D02*
X108468095Y-116748152D01*
X108468095Y-116748152D02*
X108420476Y-116795771D01*
X108420476Y-116795771D02*
X108325238Y-116843390D01*
X108325238Y-116843390D02*
X108134762Y-116843390D01*
X108134762Y-116843390D02*
X108039524Y-116891009D01*
X108039524Y-116891009D02*
X107991905Y-116938628D01*
X107991905Y-116938628D02*
X107944286Y-117033866D01*
X107944286Y-117033866D02*
X107944286Y-117224342D01*
X107944286Y-117224342D02*
X107991905Y-117319580D01*
X107991905Y-117319580D02*
X108039524Y-117367200D01*
X108039524Y-117367200D02*
X108134762Y-117414819D01*
X108134762Y-117414819D02*
X108325238Y-117414819D01*
X108325238Y-117414819D02*
X108420476Y-117367200D01*
X108420476Y-117367200D02*
X108468095Y-117319580D01*
X108468095Y-117319580D02*
X108515714Y-117224342D01*
X108515714Y-117224342D02*
X108515714Y-117033866D01*
X108515714Y-117033866D02*
X108468095Y-116938628D01*
X108468095Y-116938628D02*
X108420476Y-116891009D01*
X108420476Y-116891009D02*
X108325238Y-116843390D01*
X142035714Y-97964819D02*
X142035714Y-96964819D01*
X142035714Y-96964819D02*
X142273809Y-96964819D01*
X142273809Y-96964819D02*
X142416666Y-97012438D01*
X142416666Y-97012438D02*
X142511904Y-97107676D01*
X142511904Y-97107676D02*
X142559523Y-97202914D01*
X142559523Y-97202914D02*
X142607142Y-97393390D01*
X142607142Y-97393390D02*
X142607142Y-97536247D01*
X142607142Y-97536247D02*
X142559523Y-97726723D01*
X142559523Y-97726723D02*
X142511904Y-97821961D01*
X142511904Y-97821961D02*
X142416666Y-97917200D01*
X142416666Y-97917200D02*
X142273809Y-97964819D01*
X142273809Y-97964819D02*
X142035714Y-97964819D01*
X142988095Y-97060057D02*
X143035714Y-97012438D01*
X143035714Y-97012438D02*
X143130952Y-96964819D01*
X143130952Y-96964819D02*
X143369047Y-96964819D01*
X143369047Y-96964819D02*
X143464285Y-97012438D01*
X143464285Y-97012438D02*
X143511904Y-97060057D01*
X143511904Y-97060057D02*
X143559523Y-97155295D01*
X143559523Y-97155295D02*
X143559523Y-97250533D01*
X143559523Y-97250533D02*
X143511904Y-97393390D01*
X143511904Y-97393390D02*
X142940476Y-97964819D01*
X142940476Y-97964819D02*
X143559523Y-97964819D01*
X144416666Y-97298152D02*
X144416666Y-97964819D01*
X144178571Y-96917200D02*
X143940476Y-97631485D01*
X143940476Y-97631485D02*
X144559523Y-97631485D01*
X109657849Y-94654337D02*
X108657849Y-94654337D01*
X108657849Y-94654337D02*
X108657849Y-94416242D01*
X108657849Y-94416242D02*
X108705468Y-94273385D01*
X108705468Y-94273385D02*
X108800706Y-94178147D01*
X108800706Y-94178147D02*
X108895944Y-94130528D01*
X108895944Y-94130528D02*
X109086420Y-94082909D01*
X109086420Y-94082909D02*
X109229277Y-94082909D01*
X109229277Y-94082909D02*
X109419753Y-94130528D01*
X109419753Y-94130528D02*
X109514991Y-94178147D01*
X109514991Y-94178147D02*
X109610230Y-94273385D01*
X109610230Y-94273385D02*
X109657849Y-94416242D01*
X109657849Y-94416242D02*
X109657849Y-94654337D01*
X108991182Y-93225766D02*
X109657849Y-93225766D01*
X108610230Y-93463861D02*
X109324515Y-93701956D01*
X109324515Y-93701956D02*
X109324515Y-93082909D01*
X184166667Y-116657200D02*
X184309524Y-116704819D01*
X184309524Y-116704819D02*
X184547619Y-116704819D01*
X184547619Y-116704819D02*
X184642857Y-116657200D01*
X184642857Y-116657200D02*
X184690476Y-116609580D01*
X184690476Y-116609580D02*
X184738095Y-116514342D01*
X184738095Y-116514342D02*
X184738095Y-116419104D01*
X184738095Y-116419104D02*
X184690476Y-116323866D01*
X184690476Y-116323866D02*
X184642857Y-116276247D01*
X184642857Y-116276247D02*
X184547619Y-116228628D01*
X184547619Y-116228628D02*
X184357143Y-116181009D01*
X184357143Y-116181009D02*
X184261905Y-116133390D01*
X184261905Y-116133390D02*
X184214286Y-116085771D01*
X184214286Y-116085771D02*
X184166667Y-115990533D01*
X184166667Y-115990533D02*
X184166667Y-115895295D01*
X184166667Y-115895295D02*
X184214286Y-115800057D01*
X184214286Y-115800057D02*
X184261905Y-115752438D01*
X184261905Y-115752438D02*
X184357143Y-115704819D01*
X184357143Y-115704819D02*
X184595238Y-115704819D01*
X184595238Y-115704819D02*
X184738095Y-115752438D01*
X185071429Y-115704819D02*
X185309524Y-116704819D01*
X185309524Y-116704819D02*
X185500000Y-115990533D01*
X185500000Y-115990533D02*
X185690476Y-116704819D01*
X185690476Y-116704819D02*
X185928572Y-115704819D01*
X186738095Y-116038152D02*
X186738095Y-116704819D01*
X186500000Y-115657200D02*
X186261905Y-116371485D01*
X186261905Y-116371485D02*
X186880952Y-116371485D01*
X128223214Y-56304819D02*
X128223214Y-55304819D01*
X128223214Y-55304819D02*
X128461309Y-55304819D01*
X128461309Y-55304819D02*
X128604166Y-55352438D01*
X128604166Y-55352438D02*
X128699404Y-55447676D01*
X128699404Y-55447676D02*
X128747023Y-55542914D01*
X128747023Y-55542914D02*
X128794642Y-55733390D01*
X128794642Y-55733390D02*
X128794642Y-55876247D01*
X128794642Y-55876247D02*
X128747023Y-56066723D01*
X128747023Y-56066723D02*
X128699404Y-56161961D01*
X128699404Y-56161961D02*
X128604166Y-56257200D01*
X128604166Y-56257200D02*
X128461309Y-56304819D01*
X128461309Y-56304819D02*
X128223214Y-56304819D01*
X129747023Y-56304819D02*
X129175595Y-56304819D01*
X129461309Y-56304819D02*
X129461309Y-55304819D01*
X129461309Y-55304819D02*
X129366071Y-55447676D01*
X129366071Y-55447676D02*
X129270833Y-55542914D01*
X129270833Y-55542914D02*
X129175595Y-55590533D01*
X130080357Y-55304819D02*
X130699404Y-55304819D01*
X130699404Y-55304819D02*
X130366071Y-55685771D01*
X130366071Y-55685771D02*
X130508928Y-55685771D01*
X130508928Y-55685771D02*
X130604166Y-55733390D01*
X130604166Y-55733390D02*
X130651785Y-55781009D01*
X130651785Y-55781009D02*
X130699404Y-55876247D01*
X130699404Y-55876247D02*
X130699404Y-56114342D01*
X130699404Y-56114342D02*
X130651785Y-56209580D01*
X130651785Y-56209580D02*
X130604166Y-56257200D01*
X130604166Y-56257200D02*
X130508928Y-56304819D01*
X130508928Y-56304819D02*
X130223214Y-56304819D01*
X130223214Y-56304819D02*
X130127976Y-56257200D01*
X130127976Y-56257200D02*
X130080357Y-56209580D01*
X177814761Y-112650057D02*
X177719523Y-112602438D01*
X177719523Y-112602438D02*
X177624285Y-112507200D01*
X177624285Y-112507200D02*
X177481428Y-112364342D01*
X177481428Y-112364342D02*
X177386190Y-112316723D01*
X177386190Y-112316723D02*
X177290952Y-112316723D01*
X177338571Y-112554819D02*
X177243333Y-112507200D01*
X177243333Y-112507200D02*
X177148095Y-112411961D01*
X177148095Y-112411961D02*
X177100476Y-112221485D01*
X177100476Y-112221485D02*
X177100476Y-111888152D01*
X177100476Y-111888152D02*
X177148095Y-111697676D01*
X177148095Y-111697676D02*
X177243333Y-111602438D01*
X177243333Y-111602438D02*
X177338571Y-111554819D01*
X177338571Y-111554819D02*
X177529047Y-111554819D01*
X177529047Y-111554819D02*
X177624285Y-111602438D01*
X177624285Y-111602438D02*
X177719523Y-111697676D01*
X177719523Y-111697676D02*
X177767142Y-111888152D01*
X177767142Y-111888152D02*
X177767142Y-112221485D01*
X177767142Y-112221485D02*
X177719523Y-112411961D01*
X177719523Y-112411961D02*
X177624285Y-112507200D01*
X177624285Y-112507200D02*
X177529047Y-112554819D01*
X177529047Y-112554819D02*
X177338571Y-112554819D01*
X178624285Y-111554819D02*
X178433809Y-111554819D01*
X178433809Y-111554819D02*
X178338571Y-111602438D01*
X178338571Y-111602438D02*
X178290952Y-111650057D01*
X178290952Y-111650057D02*
X178195714Y-111792914D01*
X178195714Y-111792914D02*
X178148095Y-111983390D01*
X178148095Y-111983390D02*
X178148095Y-112364342D01*
X178148095Y-112364342D02*
X178195714Y-112459580D01*
X178195714Y-112459580D02*
X178243333Y-112507200D01*
X178243333Y-112507200D02*
X178338571Y-112554819D01*
X178338571Y-112554819D02*
X178529047Y-112554819D01*
X178529047Y-112554819D02*
X178624285Y-112507200D01*
X178624285Y-112507200D02*
X178671904Y-112459580D01*
X178671904Y-112459580D02*
X178719523Y-112364342D01*
X178719523Y-112364342D02*
X178719523Y-112126247D01*
X178719523Y-112126247D02*
X178671904Y-112031009D01*
X178671904Y-112031009D02*
X178624285Y-111983390D01*
X178624285Y-111983390D02*
X178529047Y-111935771D01*
X178529047Y-111935771D02*
X178338571Y-111935771D01*
X178338571Y-111935771D02*
X178243333Y-111983390D01*
X178243333Y-111983390D02*
X178195714Y-112031009D01*
X178195714Y-112031009D02*
X178148095Y-112126247D01*
X149515714Y-75554819D02*
X149515714Y-74554819D01*
X149515714Y-74554819D02*
X149753809Y-74554819D01*
X149753809Y-74554819D02*
X149896666Y-74602438D01*
X149896666Y-74602438D02*
X149991904Y-74697676D01*
X149991904Y-74697676D02*
X150039523Y-74792914D01*
X150039523Y-74792914D02*
X150087142Y-74983390D01*
X150087142Y-74983390D02*
X150087142Y-75126247D01*
X150087142Y-75126247D02*
X150039523Y-75316723D01*
X150039523Y-75316723D02*
X149991904Y-75411961D01*
X149991904Y-75411961D02*
X149896666Y-75507200D01*
X149896666Y-75507200D02*
X149753809Y-75554819D01*
X149753809Y-75554819D02*
X149515714Y-75554819D01*
X150468095Y-74650057D02*
X150515714Y-74602438D01*
X150515714Y-74602438D02*
X150610952Y-74554819D01*
X150610952Y-74554819D02*
X150849047Y-74554819D01*
X150849047Y-74554819D02*
X150944285Y-74602438D01*
X150944285Y-74602438D02*
X150991904Y-74650057D01*
X150991904Y-74650057D02*
X151039523Y-74745295D01*
X151039523Y-74745295D02*
X151039523Y-74840533D01*
X151039523Y-74840533D02*
X150991904Y-74983390D01*
X150991904Y-74983390D02*
X150420476Y-75554819D01*
X150420476Y-75554819D02*
X151039523Y-75554819D01*
X151515714Y-75554819D02*
X151706190Y-75554819D01*
X151706190Y-75554819D02*
X151801428Y-75507200D01*
X151801428Y-75507200D02*
X151849047Y-75459580D01*
X151849047Y-75459580D02*
X151944285Y-75316723D01*
X151944285Y-75316723D02*
X151991904Y-75126247D01*
X151991904Y-75126247D02*
X151991904Y-74745295D01*
X151991904Y-74745295D02*
X151944285Y-74650057D01*
X151944285Y-74650057D02*
X151896666Y-74602438D01*
X151896666Y-74602438D02*
X151801428Y-74554819D01*
X151801428Y-74554819D02*
X151610952Y-74554819D01*
X151610952Y-74554819D02*
X151515714Y-74602438D01*
X151515714Y-74602438D02*
X151468095Y-74650057D01*
X151468095Y-74650057D02*
X151420476Y-74745295D01*
X151420476Y-74745295D02*
X151420476Y-74983390D01*
X151420476Y-74983390D02*
X151468095Y-75078628D01*
X151468095Y-75078628D02*
X151515714Y-75126247D01*
X151515714Y-75126247D02*
X151610952Y-75173866D01*
X151610952Y-75173866D02*
X151801428Y-75173866D01*
X151801428Y-75173866D02*
X151896666Y-75126247D01*
X151896666Y-75126247D02*
X151944285Y-75078628D01*
X151944285Y-75078628D02*
X151991904Y-74983390D01*
X99804819Y-94675594D02*
X98804819Y-94675594D01*
X98804819Y-94675594D02*
X98804819Y-94437499D01*
X98804819Y-94437499D02*
X98852438Y-94294642D01*
X98852438Y-94294642D02*
X98947676Y-94199404D01*
X98947676Y-94199404D02*
X99042914Y-94151785D01*
X99042914Y-94151785D02*
X99233390Y-94104166D01*
X99233390Y-94104166D02*
X99376247Y-94104166D01*
X99376247Y-94104166D02*
X99566723Y-94151785D01*
X99566723Y-94151785D02*
X99661961Y-94199404D01*
X99661961Y-94199404D02*
X99757200Y-94294642D01*
X99757200Y-94294642D02*
X99804819Y-94437499D01*
X99804819Y-94437499D02*
X99804819Y-94675594D01*
X99804819Y-93151785D02*
X99804819Y-93723213D01*
X99804819Y-93437499D02*
X98804819Y-93437499D01*
X98804819Y-93437499D02*
X98947676Y-93532737D01*
X98947676Y-93532737D02*
X99042914Y-93627975D01*
X99042914Y-93627975D02*
X99090533Y-93723213D01*
X149515714Y-60614819D02*
X149515714Y-59614819D01*
X149515714Y-59614819D02*
X149753809Y-59614819D01*
X149753809Y-59614819D02*
X149896666Y-59662438D01*
X149896666Y-59662438D02*
X149991904Y-59757676D01*
X149991904Y-59757676D02*
X150039523Y-59852914D01*
X150039523Y-59852914D02*
X150087142Y-60043390D01*
X150087142Y-60043390D02*
X150087142Y-60186247D01*
X150087142Y-60186247D02*
X150039523Y-60376723D01*
X150039523Y-60376723D02*
X149991904Y-60471961D01*
X149991904Y-60471961D02*
X149896666Y-60567200D01*
X149896666Y-60567200D02*
X149753809Y-60614819D01*
X149753809Y-60614819D02*
X149515714Y-60614819D01*
X150468095Y-59710057D02*
X150515714Y-59662438D01*
X150515714Y-59662438D02*
X150610952Y-59614819D01*
X150610952Y-59614819D02*
X150849047Y-59614819D01*
X150849047Y-59614819D02*
X150944285Y-59662438D01*
X150944285Y-59662438D02*
X150991904Y-59710057D01*
X150991904Y-59710057D02*
X151039523Y-59805295D01*
X151039523Y-59805295D02*
X151039523Y-59900533D01*
X151039523Y-59900533D02*
X150991904Y-60043390D01*
X150991904Y-60043390D02*
X150420476Y-60614819D01*
X150420476Y-60614819D02*
X151039523Y-60614819D01*
X151372857Y-59614819D02*
X152039523Y-59614819D01*
X152039523Y-59614819D02*
X151610952Y-60614819D01*
X149515714Y-90494819D02*
X149515714Y-89494819D01*
X149515714Y-89494819D02*
X149753809Y-89494819D01*
X149753809Y-89494819D02*
X149896666Y-89542438D01*
X149896666Y-89542438D02*
X149991904Y-89637676D01*
X149991904Y-89637676D02*
X150039523Y-89732914D01*
X150039523Y-89732914D02*
X150087142Y-89923390D01*
X150087142Y-89923390D02*
X150087142Y-90066247D01*
X150087142Y-90066247D02*
X150039523Y-90256723D01*
X150039523Y-90256723D02*
X149991904Y-90351961D01*
X149991904Y-90351961D02*
X149896666Y-90447200D01*
X149896666Y-90447200D02*
X149753809Y-90494819D01*
X149753809Y-90494819D02*
X149515714Y-90494819D01*
X150420476Y-89494819D02*
X151039523Y-89494819D01*
X151039523Y-89494819D02*
X150706190Y-89875771D01*
X150706190Y-89875771D02*
X150849047Y-89875771D01*
X150849047Y-89875771D02*
X150944285Y-89923390D01*
X150944285Y-89923390D02*
X150991904Y-89971009D01*
X150991904Y-89971009D02*
X151039523Y-90066247D01*
X151039523Y-90066247D02*
X151039523Y-90304342D01*
X151039523Y-90304342D02*
X150991904Y-90399580D01*
X150991904Y-90399580D02*
X150944285Y-90447200D01*
X150944285Y-90447200D02*
X150849047Y-90494819D01*
X150849047Y-90494819D02*
X150563333Y-90494819D01*
X150563333Y-90494819D02*
X150468095Y-90447200D01*
X150468095Y-90447200D02*
X150420476Y-90399580D01*
X151991904Y-90494819D02*
X151420476Y-90494819D01*
X151706190Y-90494819D02*
X151706190Y-89494819D01*
X151706190Y-89494819D02*
X151610952Y-89637676D01*
X151610952Y-89637676D02*
X151515714Y-89732914D01*
X151515714Y-89732914D02*
X151420476Y-89780533D01*
X149515714Y-38013135D02*
X149515714Y-37013135D01*
X149515714Y-37013135D02*
X149753809Y-37013135D01*
X149753809Y-37013135D02*
X149896666Y-37060754D01*
X149896666Y-37060754D02*
X149991904Y-37155992D01*
X149991904Y-37155992D02*
X150039523Y-37251230D01*
X150039523Y-37251230D02*
X150087142Y-37441706D01*
X150087142Y-37441706D02*
X150087142Y-37584563D01*
X150087142Y-37584563D02*
X150039523Y-37775039D01*
X150039523Y-37775039D02*
X149991904Y-37870277D01*
X149991904Y-37870277D02*
X149896666Y-37965516D01*
X149896666Y-37965516D02*
X149753809Y-38013135D01*
X149753809Y-38013135D02*
X149515714Y-38013135D01*
X150468095Y-37108373D02*
X150515714Y-37060754D01*
X150515714Y-37060754D02*
X150610952Y-37013135D01*
X150610952Y-37013135D02*
X150849047Y-37013135D01*
X150849047Y-37013135D02*
X150944285Y-37060754D01*
X150944285Y-37060754D02*
X150991904Y-37108373D01*
X150991904Y-37108373D02*
X151039523Y-37203611D01*
X151039523Y-37203611D02*
X151039523Y-37298849D01*
X151039523Y-37298849D02*
X150991904Y-37441706D01*
X150991904Y-37441706D02*
X150420476Y-38013135D01*
X150420476Y-38013135D02*
X151039523Y-38013135D01*
X151944285Y-37013135D02*
X151468095Y-37013135D01*
X151468095Y-37013135D02*
X151420476Y-37489325D01*
X151420476Y-37489325D02*
X151468095Y-37441706D01*
X151468095Y-37441706D02*
X151563333Y-37394087D01*
X151563333Y-37394087D02*
X151801428Y-37394087D01*
X151801428Y-37394087D02*
X151896666Y-37441706D01*
X151896666Y-37441706D02*
X151944285Y-37489325D01*
X151944285Y-37489325D02*
X151991904Y-37584563D01*
X151991904Y-37584563D02*
X151991904Y-37822658D01*
X151991904Y-37822658D02*
X151944285Y-37917896D01*
X151944285Y-37917896D02*
X151896666Y-37965516D01*
X151896666Y-37965516D02*
X151801428Y-38013135D01*
X151801428Y-38013135D02*
X151563333Y-38013135D01*
X151563333Y-38013135D02*
X151468095Y-37965516D01*
X151468095Y-37965516D02*
X151420476Y-37917896D01*
X172904761Y-112650057D02*
X172809523Y-112602438D01*
X172809523Y-112602438D02*
X172714285Y-112507200D01*
X172714285Y-112507200D02*
X172571428Y-112364342D01*
X172571428Y-112364342D02*
X172476190Y-112316723D01*
X172476190Y-112316723D02*
X172380952Y-112316723D01*
X172428571Y-112554819D02*
X172333333Y-112507200D01*
X172333333Y-112507200D02*
X172238095Y-112411961D01*
X172238095Y-112411961D02*
X172190476Y-112221485D01*
X172190476Y-112221485D02*
X172190476Y-111888152D01*
X172190476Y-111888152D02*
X172238095Y-111697676D01*
X172238095Y-111697676D02*
X172333333Y-111602438D01*
X172333333Y-111602438D02*
X172428571Y-111554819D01*
X172428571Y-111554819D02*
X172619047Y-111554819D01*
X172619047Y-111554819D02*
X172714285Y-111602438D01*
X172714285Y-111602438D02*
X172809523Y-111697676D01*
X172809523Y-111697676D02*
X172857142Y-111888152D01*
X172857142Y-111888152D02*
X172857142Y-112221485D01*
X172857142Y-112221485D02*
X172809523Y-112411961D01*
X172809523Y-112411961D02*
X172714285Y-112507200D01*
X172714285Y-112507200D02*
X172619047Y-112554819D01*
X172619047Y-112554819D02*
X172428571Y-112554819D01*
X173238095Y-111650057D02*
X173285714Y-111602438D01*
X173285714Y-111602438D02*
X173380952Y-111554819D01*
X173380952Y-111554819D02*
X173619047Y-111554819D01*
X173619047Y-111554819D02*
X173714285Y-111602438D01*
X173714285Y-111602438D02*
X173761904Y-111650057D01*
X173761904Y-111650057D02*
X173809523Y-111745295D01*
X173809523Y-111745295D02*
X173809523Y-111840533D01*
X173809523Y-111840533D02*
X173761904Y-111983390D01*
X173761904Y-111983390D02*
X173190476Y-112554819D01*
X173190476Y-112554819D02*
X173809523Y-112554819D01*
X107563333Y-108564819D02*
X107230000Y-108088628D01*
X106991905Y-108564819D02*
X106991905Y-107564819D01*
X106991905Y-107564819D02*
X107372857Y-107564819D01*
X107372857Y-107564819D02*
X107468095Y-107612438D01*
X107468095Y-107612438D02*
X107515714Y-107660057D01*
X107515714Y-107660057D02*
X107563333Y-107755295D01*
X107563333Y-107755295D02*
X107563333Y-107898152D01*
X107563333Y-107898152D02*
X107515714Y-107993390D01*
X107515714Y-107993390D02*
X107468095Y-108041009D01*
X107468095Y-108041009D02*
X107372857Y-108088628D01*
X107372857Y-108088628D02*
X106991905Y-108088628D01*
X108468095Y-107564819D02*
X107991905Y-107564819D01*
X107991905Y-107564819D02*
X107944286Y-108041009D01*
X107944286Y-108041009D02*
X107991905Y-107993390D01*
X107991905Y-107993390D02*
X108087143Y-107945771D01*
X108087143Y-107945771D02*
X108325238Y-107945771D01*
X108325238Y-107945771D02*
X108420476Y-107993390D01*
X108420476Y-107993390D02*
X108468095Y-108041009D01*
X108468095Y-108041009D02*
X108515714Y-108136247D01*
X108515714Y-108136247D02*
X108515714Y-108374342D01*
X108515714Y-108374342D02*
X108468095Y-108469580D01*
X108468095Y-108469580D02*
X108420476Y-108517200D01*
X108420476Y-108517200D02*
X108325238Y-108564819D01*
X108325238Y-108564819D02*
X108087143Y-108564819D01*
X108087143Y-108564819D02*
X107991905Y-108517200D01*
X107991905Y-108517200D02*
X107944286Y-108469580D01*
X103153333Y-114464819D02*
X102820000Y-113988628D01*
X102581905Y-114464819D02*
X102581905Y-113464819D01*
X102581905Y-113464819D02*
X102962857Y-113464819D01*
X102962857Y-113464819D02*
X103058095Y-113512438D01*
X103058095Y-113512438D02*
X103105714Y-113560057D01*
X103105714Y-113560057D02*
X103153333Y-113655295D01*
X103153333Y-113655295D02*
X103153333Y-113798152D01*
X103153333Y-113798152D02*
X103105714Y-113893390D01*
X103105714Y-113893390D02*
X103058095Y-113941009D01*
X103058095Y-113941009D02*
X102962857Y-113988628D01*
X102962857Y-113988628D02*
X102581905Y-113988628D01*
X103486667Y-113464819D02*
X104105714Y-113464819D01*
X104105714Y-113464819D02*
X103772381Y-113845771D01*
X103772381Y-113845771D02*
X103915238Y-113845771D01*
X103915238Y-113845771D02*
X104010476Y-113893390D01*
X104010476Y-113893390D02*
X104058095Y-113941009D01*
X104058095Y-113941009D02*
X104105714Y-114036247D01*
X104105714Y-114036247D02*
X104105714Y-114274342D01*
X104105714Y-114274342D02*
X104058095Y-114369580D01*
X104058095Y-114369580D02*
X104010476Y-114417200D01*
X104010476Y-114417200D02*
X103915238Y-114464819D01*
X103915238Y-114464819D02*
X103629524Y-114464819D01*
X103629524Y-114464819D02*
X103534286Y-114417200D01*
X103534286Y-114417200D02*
X103486667Y-114369580D01*
X194285714Y-53334819D02*
X194285714Y-52334819D01*
X194285714Y-52334819D02*
X194523809Y-52334819D01*
X194523809Y-52334819D02*
X194666666Y-52382438D01*
X194666666Y-52382438D02*
X194761904Y-52477676D01*
X194761904Y-52477676D02*
X194809523Y-52572914D01*
X194809523Y-52572914D02*
X194857142Y-52763390D01*
X194857142Y-52763390D02*
X194857142Y-52906247D01*
X194857142Y-52906247D02*
X194809523Y-53096723D01*
X194809523Y-53096723D02*
X194761904Y-53191961D01*
X194761904Y-53191961D02*
X194666666Y-53287200D01*
X194666666Y-53287200D02*
X194523809Y-53334819D01*
X194523809Y-53334819D02*
X194285714Y-53334819D01*
X195809523Y-53334819D02*
X195238095Y-53334819D01*
X195523809Y-53334819D02*
X195523809Y-52334819D01*
X195523809Y-52334819D02*
X195428571Y-52477676D01*
X195428571Y-52477676D02*
X195333333Y-52572914D01*
X195333333Y-52572914D02*
X195238095Y-52620533D01*
X196428571Y-52334819D02*
X196523809Y-52334819D01*
X196523809Y-52334819D02*
X196619047Y-52382438D01*
X196619047Y-52382438D02*
X196666666Y-52430057D01*
X196666666Y-52430057D02*
X196714285Y-52525295D01*
X196714285Y-52525295D02*
X196761904Y-52715771D01*
X196761904Y-52715771D02*
X196761904Y-52953866D01*
X196761904Y-52953866D02*
X196714285Y-53144342D01*
X196714285Y-53144342D02*
X196666666Y-53239580D01*
X196666666Y-53239580D02*
X196619047Y-53287200D01*
X196619047Y-53287200D02*
X196523809Y-53334819D01*
X196523809Y-53334819D02*
X196428571Y-53334819D01*
X196428571Y-53334819D02*
X196333333Y-53287200D01*
X196333333Y-53287200D02*
X196285714Y-53239580D01*
X196285714Y-53239580D02*
X196238095Y-53144342D01*
X196238095Y-53144342D02*
X196190476Y-52953866D01*
X196190476Y-52953866D02*
X196190476Y-52715771D01*
X196190476Y-52715771D02*
X196238095Y-52525295D01*
X196238095Y-52525295D02*
X196285714Y-52430057D01*
X196285714Y-52430057D02*
X196333333Y-52382438D01*
X196333333Y-52382438D02*
X196428571Y-52334819D01*
X116269761Y-94605981D02*
X115269761Y-94605981D01*
X115269761Y-94605981D02*
X115269761Y-94367886D01*
X115269761Y-94367886D02*
X115317380Y-94225029D01*
X115317380Y-94225029D02*
X115412618Y-94129791D01*
X115412618Y-94129791D02*
X115507856Y-94082172D01*
X115507856Y-94082172D02*
X115698332Y-94034553D01*
X115698332Y-94034553D02*
X115841189Y-94034553D01*
X115841189Y-94034553D02*
X116031665Y-94082172D01*
X116031665Y-94082172D02*
X116126903Y-94129791D01*
X116126903Y-94129791D02*
X116222142Y-94225029D01*
X116222142Y-94225029D02*
X116269761Y-94367886D01*
X116269761Y-94367886D02*
X116269761Y-94605981D01*
X115269761Y-93177410D02*
X115269761Y-93367886D01*
X115269761Y-93367886D02*
X115317380Y-93463124D01*
X115317380Y-93463124D02*
X115364999Y-93510743D01*
X115364999Y-93510743D02*
X115507856Y-93605981D01*
X115507856Y-93605981D02*
X115698332Y-93653600D01*
X115698332Y-93653600D02*
X116079284Y-93653600D01*
X116079284Y-93653600D02*
X116174522Y-93605981D01*
X116174522Y-93605981D02*
X116222142Y-93558362D01*
X116222142Y-93558362D02*
X116269761Y-93463124D01*
X116269761Y-93463124D02*
X116269761Y-93272648D01*
X116269761Y-93272648D02*
X116222142Y-93177410D01*
X116222142Y-93177410D02*
X116174522Y-93129791D01*
X116174522Y-93129791D02*
X116079284Y-93082172D01*
X116079284Y-93082172D02*
X115841189Y-93082172D01*
X115841189Y-93082172D02*
X115745951Y-93129791D01*
X115745951Y-93129791D02*
X115698332Y-93177410D01*
X115698332Y-93177410D02*
X115650713Y-93272648D01*
X115650713Y-93272648D02*
X115650713Y-93463124D01*
X115650713Y-93463124D02*
X115698332Y-93558362D01*
X115698332Y-93558362D02*
X115745951Y-93605981D01*
X115745951Y-93605981D02*
X115841189Y-93653600D01*
X194285714Y-68274819D02*
X194285714Y-67274819D01*
X194285714Y-67274819D02*
X194523809Y-67274819D01*
X194523809Y-67274819D02*
X194666666Y-67322438D01*
X194666666Y-67322438D02*
X194761904Y-67417676D01*
X194761904Y-67417676D02*
X194809523Y-67512914D01*
X194809523Y-67512914D02*
X194857142Y-67703390D01*
X194857142Y-67703390D02*
X194857142Y-67846247D01*
X194857142Y-67846247D02*
X194809523Y-68036723D01*
X194809523Y-68036723D02*
X194761904Y-68131961D01*
X194761904Y-68131961D02*
X194666666Y-68227200D01*
X194666666Y-68227200D02*
X194523809Y-68274819D01*
X194523809Y-68274819D02*
X194285714Y-68274819D01*
X195809523Y-68274819D02*
X195238095Y-68274819D01*
X195523809Y-68274819D02*
X195523809Y-67274819D01*
X195523809Y-67274819D02*
X195428571Y-67417676D01*
X195428571Y-67417676D02*
X195333333Y-67512914D01*
X195333333Y-67512914D02*
X195238095Y-67560533D01*
X196190476Y-67370057D02*
X196238095Y-67322438D01*
X196238095Y-67322438D02*
X196333333Y-67274819D01*
X196333333Y-67274819D02*
X196571428Y-67274819D01*
X196571428Y-67274819D02*
X196666666Y-67322438D01*
X196666666Y-67322438D02*
X196714285Y-67370057D01*
X196714285Y-67370057D02*
X196761904Y-67465295D01*
X196761904Y-67465295D02*
X196761904Y-67560533D01*
X196761904Y-67560533D02*
X196714285Y-67703390D01*
X196714285Y-67703390D02*
X196142857Y-68274819D01*
X196142857Y-68274819D02*
X196761904Y-68274819D01*
X119166666Y-45104819D02*
X119166666Y-45819104D01*
X119166666Y-45819104D02*
X119119047Y-45961961D01*
X119119047Y-45961961D02*
X119023809Y-46057200D01*
X119023809Y-46057200D02*
X118880952Y-46104819D01*
X118880952Y-46104819D02*
X118785714Y-46104819D01*
X119595238Y-45200057D02*
X119642857Y-45152438D01*
X119642857Y-45152438D02*
X119738095Y-45104819D01*
X119738095Y-45104819D02*
X119976190Y-45104819D01*
X119976190Y-45104819D02*
X120071428Y-45152438D01*
X120071428Y-45152438D02*
X120119047Y-45200057D01*
X120119047Y-45200057D02*
X120166666Y-45295295D01*
X120166666Y-45295295D02*
X120166666Y-45390533D01*
X120166666Y-45390533D02*
X120119047Y-45533390D01*
X120119047Y-45533390D02*
X119547619Y-46104819D01*
X119547619Y-46104819D02*
X120166666Y-46104819D01*
X142035486Y-83051376D02*
X142035486Y-82051376D01*
X142035486Y-82051376D02*
X142273581Y-82051376D01*
X142273581Y-82051376D02*
X142416438Y-82098995D01*
X142416438Y-82098995D02*
X142511676Y-82194233D01*
X142511676Y-82194233D02*
X142559295Y-82289471D01*
X142559295Y-82289471D02*
X142606914Y-82479947D01*
X142606914Y-82479947D02*
X142606914Y-82622804D01*
X142606914Y-82622804D02*
X142559295Y-82813280D01*
X142559295Y-82813280D02*
X142511676Y-82908518D01*
X142511676Y-82908518D02*
X142416438Y-83003757D01*
X142416438Y-83003757D02*
X142273581Y-83051376D01*
X142273581Y-83051376D02*
X142035486Y-83051376D01*
X142940248Y-82051376D02*
X143559295Y-82051376D01*
X143559295Y-82051376D02*
X143225962Y-82432328D01*
X143225962Y-82432328D02*
X143368819Y-82432328D01*
X143368819Y-82432328D02*
X143464057Y-82479947D01*
X143464057Y-82479947D02*
X143511676Y-82527566D01*
X143511676Y-82527566D02*
X143559295Y-82622804D01*
X143559295Y-82622804D02*
X143559295Y-82860899D01*
X143559295Y-82860899D02*
X143511676Y-82956137D01*
X143511676Y-82956137D02*
X143464057Y-83003757D01*
X143464057Y-83003757D02*
X143368819Y-83051376D01*
X143368819Y-83051376D02*
X143083105Y-83051376D01*
X143083105Y-83051376D02*
X142987867Y-83003757D01*
X142987867Y-83003757D02*
X142940248Y-82956137D01*
X143892629Y-82051376D02*
X144559295Y-82051376D01*
X144559295Y-82051376D02*
X144130724Y-83051376D01*
X164475714Y-38013135D02*
X164475714Y-37013135D01*
X164475714Y-37013135D02*
X164713809Y-37013135D01*
X164713809Y-37013135D02*
X164856666Y-37060754D01*
X164856666Y-37060754D02*
X164951904Y-37155992D01*
X164951904Y-37155992D02*
X164999523Y-37251230D01*
X164999523Y-37251230D02*
X165047142Y-37441706D01*
X165047142Y-37441706D02*
X165047142Y-37584563D01*
X165047142Y-37584563D02*
X164999523Y-37775039D01*
X164999523Y-37775039D02*
X164951904Y-37870277D01*
X164951904Y-37870277D02*
X164856666Y-37965516D01*
X164856666Y-37965516D02*
X164713809Y-38013135D01*
X164713809Y-38013135D02*
X164475714Y-38013135D01*
X165904285Y-37346468D02*
X165904285Y-38013135D01*
X165666190Y-36965516D02*
X165428095Y-37679801D01*
X165428095Y-37679801D02*
X166047142Y-37679801D01*
X166951904Y-38013135D02*
X166380476Y-38013135D01*
X166666190Y-38013135D02*
X166666190Y-37013135D01*
X166666190Y-37013135D02*
X166570952Y-37155992D01*
X166570952Y-37155992D02*
X166475714Y-37251230D01*
X166475714Y-37251230D02*
X166380476Y-37298849D01*
X105666666Y-45064819D02*
X105666666Y-45779104D01*
X105666666Y-45779104D02*
X105619047Y-45921961D01*
X105619047Y-45921961D02*
X105523809Y-46017200D01*
X105523809Y-46017200D02*
X105380952Y-46064819D01*
X105380952Y-46064819D02*
X105285714Y-46064819D01*
X106666666Y-46064819D02*
X106095238Y-46064819D01*
X106380952Y-46064819D02*
X106380952Y-45064819D01*
X106380952Y-45064819D02*
X106285714Y-45207676D01*
X106285714Y-45207676D02*
X106190476Y-45302914D01*
X106190476Y-45302914D02*
X106095238Y-45350533D01*
X172904761Y-108200057D02*
X172809523Y-108152438D01*
X172809523Y-108152438D02*
X172714285Y-108057200D01*
X172714285Y-108057200D02*
X172571428Y-107914342D01*
X172571428Y-107914342D02*
X172476190Y-107866723D01*
X172476190Y-107866723D02*
X172380952Y-107866723D01*
X172428571Y-108104819D02*
X172333333Y-108057200D01*
X172333333Y-108057200D02*
X172238095Y-107961961D01*
X172238095Y-107961961D02*
X172190476Y-107771485D01*
X172190476Y-107771485D02*
X172190476Y-107438152D01*
X172190476Y-107438152D02*
X172238095Y-107247676D01*
X172238095Y-107247676D02*
X172333333Y-107152438D01*
X172333333Y-107152438D02*
X172428571Y-107104819D01*
X172428571Y-107104819D02*
X172619047Y-107104819D01*
X172619047Y-107104819D02*
X172714285Y-107152438D01*
X172714285Y-107152438D02*
X172809523Y-107247676D01*
X172809523Y-107247676D02*
X172857142Y-107438152D01*
X172857142Y-107438152D02*
X172857142Y-107771485D01*
X172857142Y-107771485D02*
X172809523Y-107961961D01*
X172809523Y-107961961D02*
X172714285Y-108057200D01*
X172714285Y-108057200D02*
X172619047Y-108104819D01*
X172619047Y-108104819D02*
X172428571Y-108104819D01*
X173809523Y-108104819D02*
X173238095Y-108104819D01*
X173523809Y-108104819D02*
X173523809Y-107104819D01*
X173523809Y-107104819D02*
X173428571Y-107247676D01*
X173428571Y-107247676D02*
X173333333Y-107342914D01*
X173333333Y-107342914D02*
X173238095Y-107390533D01*
X160666667Y-116867200D02*
X160809524Y-116914819D01*
X160809524Y-116914819D02*
X161047619Y-116914819D01*
X161047619Y-116914819D02*
X161142857Y-116867200D01*
X161142857Y-116867200D02*
X161190476Y-116819580D01*
X161190476Y-116819580D02*
X161238095Y-116724342D01*
X161238095Y-116724342D02*
X161238095Y-116629104D01*
X161238095Y-116629104D02*
X161190476Y-116533866D01*
X161190476Y-116533866D02*
X161142857Y-116486247D01*
X161142857Y-116486247D02*
X161047619Y-116438628D01*
X161047619Y-116438628D02*
X160857143Y-116391009D01*
X160857143Y-116391009D02*
X160761905Y-116343390D01*
X160761905Y-116343390D02*
X160714286Y-116295771D01*
X160714286Y-116295771D02*
X160666667Y-116200533D01*
X160666667Y-116200533D02*
X160666667Y-116105295D01*
X160666667Y-116105295D02*
X160714286Y-116010057D01*
X160714286Y-116010057D02*
X160761905Y-115962438D01*
X160761905Y-115962438D02*
X160857143Y-115914819D01*
X160857143Y-115914819D02*
X161095238Y-115914819D01*
X161095238Y-115914819D02*
X161238095Y-115962438D01*
X161571429Y-115914819D02*
X161809524Y-116914819D01*
X161809524Y-116914819D02*
X162000000Y-116200533D01*
X162000000Y-116200533D02*
X162190476Y-116914819D01*
X162190476Y-116914819D02*
X162428572Y-115914819D01*
X162761905Y-116010057D02*
X162809524Y-115962438D01*
X162809524Y-115962438D02*
X162904762Y-115914819D01*
X162904762Y-115914819D02*
X163142857Y-115914819D01*
X163142857Y-115914819D02*
X163238095Y-115962438D01*
X163238095Y-115962438D02*
X163285714Y-116010057D01*
X163285714Y-116010057D02*
X163333333Y-116105295D01*
X163333333Y-116105295D02*
X163333333Y-116200533D01*
X163333333Y-116200533D02*
X163285714Y-116343390D01*
X163285714Y-116343390D02*
X162714286Y-116914819D01*
X162714286Y-116914819D02*
X163333333Y-116914819D01*
X134585927Y-83052793D02*
X134585927Y-82052793D01*
X134585927Y-82052793D02*
X134824022Y-82052793D01*
X134824022Y-82052793D02*
X134966879Y-82100412D01*
X134966879Y-82100412D02*
X135062117Y-82195650D01*
X135062117Y-82195650D02*
X135109736Y-82290888D01*
X135109736Y-82290888D02*
X135157355Y-82481364D01*
X135157355Y-82481364D02*
X135157355Y-82624221D01*
X135157355Y-82624221D02*
X135109736Y-82814697D01*
X135109736Y-82814697D02*
X135062117Y-82909935D01*
X135062117Y-82909935D02*
X134966879Y-83005174D01*
X134966879Y-83005174D02*
X134824022Y-83052793D01*
X134824022Y-83052793D02*
X134585927Y-83052793D01*
X135538308Y-82148031D02*
X135585927Y-82100412D01*
X135585927Y-82100412D02*
X135681165Y-82052793D01*
X135681165Y-82052793D02*
X135919260Y-82052793D01*
X135919260Y-82052793D02*
X136014498Y-82100412D01*
X136014498Y-82100412D02*
X136062117Y-82148031D01*
X136062117Y-82148031D02*
X136109736Y-82243269D01*
X136109736Y-82243269D02*
X136109736Y-82338507D01*
X136109736Y-82338507D02*
X136062117Y-82481364D01*
X136062117Y-82481364D02*
X135490689Y-83052793D01*
X135490689Y-83052793D02*
X136109736Y-83052793D01*
X137062117Y-83052793D02*
X136490689Y-83052793D01*
X136776403Y-83052793D02*
X136776403Y-82052793D01*
X136776403Y-82052793D02*
X136681165Y-82195650D01*
X136681165Y-82195650D02*
X136585927Y-82290888D01*
X136585927Y-82290888D02*
X136490689Y-82338507D01*
X179322405Y-98000509D02*
X179322405Y-97000509D01*
X179322405Y-97000509D02*
X179560500Y-97000509D01*
X179560500Y-97000509D02*
X179703357Y-97048128D01*
X179703357Y-97048128D02*
X179798595Y-97143366D01*
X179798595Y-97143366D02*
X179846214Y-97238604D01*
X179846214Y-97238604D02*
X179893833Y-97429080D01*
X179893833Y-97429080D02*
X179893833Y-97571937D01*
X179893833Y-97571937D02*
X179846214Y-97762413D01*
X179846214Y-97762413D02*
X179798595Y-97857651D01*
X179798595Y-97857651D02*
X179703357Y-97952890D01*
X179703357Y-97952890D02*
X179560500Y-98000509D01*
X179560500Y-98000509D02*
X179322405Y-98000509D01*
X180750976Y-97333842D02*
X180750976Y-98000509D01*
X180512881Y-96952890D02*
X180274786Y-97667175D01*
X180274786Y-97667175D02*
X180893833Y-97667175D01*
X181465262Y-97000509D02*
X181560500Y-97000509D01*
X181560500Y-97000509D02*
X181655738Y-97048128D01*
X181655738Y-97048128D02*
X181703357Y-97095747D01*
X181703357Y-97095747D02*
X181750976Y-97190985D01*
X181750976Y-97190985D02*
X181798595Y-97381461D01*
X181798595Y-97381461D02*
X181798595Y-97619556D01*
X181798595Y-97619556D02*
X181750976Y-97810032D01*
X181750976Y-97810032D02*
X181703357Y-97905270D01*
X181703357Y-97905270D02*
X181655738Y-97952890D01*
X181655738Y-97952890D02*
X181560500Y-98000509D01*
X181560500Y-98000509D02*
X181465262Y-98000509D01*
X181465262Y-98000509D02*
X181370024Y-97952890D01*
X181370024Y-97952890D02*
X181322405Y-97905270D01*
X181322405Y-97905270D02*
X181274786Y-97810032D01*
X181274786Y-97810032D02*
X181227167Y-97619556D01*
X181227167Y-97619556D02*
X181227167Y-97381461D01*
X181227167Y-97381461D02*
X181274786Y-97190985D01*
X181274786Y-97190985D02*
X181322405Y-97095747D01*
X181322405Y-97095747D02*
X181370024Y-97048128D01*
X181370024Y-97048128D02*
X181465262Y-97000509D01*
X186845887Y-75560981D02*
X186845887Y-74560981D01*
X186845887Y-74560981D02*
X187083982Y-74560981D01*
X187083982Y-74560981D02*
X187226839Y-74608600D01*
X187226839Y-74608600D02*
X187322077Y-74703838D01*
X187322077Y-74703838D02*
X187369696Y-74799076D01*
X187369696Y-74799076D02*
X187417315Y-74989552D01*
X187417315Y-74989552D02*
X187417315Y-75132409D01*
X187417315Y-75132409D02*
X187369696Y-75322885D01*
X187369696Y-75322885D02*
X187322077Y-75418123D01*
X187322077Y-75418123D02*
X187226839Y-75513362D01*
X187226839Y-75513362D02*
X187083982Y-75560981D01*
X187083982Y-75560981D02*
X186845887Y-75560981D01*
X188322077Y-74560981D02*
X187845887Y-74560981D01*
X187845887Y-74560981D02*
X187798268Y-75037171D01*
X187798268Y-75037171D02*
X187845887Y-74989552D01*
X187845887Y-74989552D02*
X187941125Y-74941933D01*
X187941125Y-74941933D02*
X188179220Y-74941933D01*
X188179220Y-74941933D02*
X188274458Y-74989552D01*
X188274458Y-74989552D02*
X188322077Y-75037171D01*
X188322077Y-75037171D02*
X188369696Y-75132409D01*
X188369696Y-75132409D02*
X188369696Y-75370504D01*
X188369696Y-75370504D02*
X188322077Y-75465742D01*
X188322077Y-75465742D02*
X188274458Y-75513362D01*
X188274458Y-75513362D02*
X188179220Y-75560981D01*
X188179220Y-75560981D02*
X187941125Y-75560981D01*
X187941125Y-75560981D02*
X187845887Y-75513362D01*
X187845887Y-75513362D02*
X187798268Y-75465742D01*
X189226839Y-74894314D02*
X189226839Y-75560981D01*
X188988744Y-74513362D02*
X188750649Y-75227647D01*
X188750649Y-75227647D02*
X189369696Y-75227647D01*
X150133333Y-110509580D02*
X150085714Y-110557200D01*
X150085714Y-110557200D02*
X149942857Y-110604819D01*
X149942857Y-110604819D02*
X149847619Y-110604819D01*
X149847619Y-110604819D02*
X149704762Y-110557200D01*
X149704762Y-110557200D02*
X149609524Y-110461961D01*
X149609524Y-110461961D02*
X149561905Y-110366723D01*
X149561905Y-110366723D02*
X149514286Y-110176247D01*
X149514286Y-110176247D02*
X149514286Y-110033390D01*
X149514286Y-110033390D02*
X149561905Y-109842914D01*
X149561905Y-109842914D02*
X149609524Y-109747676D01*
X149609524Y-109747676D02*
X149704762Y-109652438D01*
X149704762Y-109652438D02*
X149847619Y-109604819D01*
X149847619Y-109604819D02*
X149942857Y-109604819D01*
X149942857Y-109604819D02*
X150085714Y-109652438D01*
X150085714Y-109652438D02*
X150133333Y-109700057D01*
X151085714Y-110604819D02*
X150514286Y-110604819D01*
X150800000Y-110604819D02*
X150800000Y-109604819D01*
X150800000Y-109604819D02*
X150704762Y-109747676D01*
X150704762Y-109747676D02*
X150609524Y-109842914D01*
X150609524Y-109842914D02*
X150514286Y-109890533D01*
X194285714Y-60804819D02*
X194285714Y-59804819D01*
X194285714Y-59804819D02*
X194523809Y-59804819D01*
X194523809Y-59804819D02*
X194666666Y-59852438D01*
X194666666Y-59852438D02*
X194761904Y-59947676D01*
X194761904Y-59947676D02*
X194809523Y-60042914D01*
X194809523Y-60042914D02*
X194857142Y-60233390D01*
X194857142Y-60233390D02*
X194857142Y-60376247D01*
X194857142Y-60376247D02*
X194809523Y-60566723D01*
X194809523Y-60566723D02*
X194761904Y-60661961D01*
X194761904Y-60661961D02*
X194666666Y-60757200D01*
X194666666Y-60757200D02*
X194523809Y-60804819D01*
X194523809Y-60804819D02*
X194285714Y-60804819D01*
X195809523Y-60804819D02*
X195238095Y-60804819D01*
X195523809Y-60804819D02*
X195523809Y-59804819D01*
X195523809Y-59804819D02*
X195428571Y-59947676D01*
X195428571Y-59947676D02*
X195333333Y-60042914D01*
X195333333Y-60042914D02*
X195238095Y-60090533D01*
X196761904Y-60804819D02*
X196190476Y-60804819D01*
X196476190Y-60804819D02*
X196476190Y-59804819D01*
X196476190Y-59804819D02*
X196380952Y-59947676D01*
X196380952Y-59947676D02*
X196285714Y-60042914D01*
X196285714Y-60042914D02*
X196190476Y-60090533D01*
X179302405Y-83030509D02*
X179302405Y-82030509D01*
X179302405Y-82030509D02*
X179540500Y-82030509D01*
X179540500Y-82030509D02*
X179683357Y-82078128D01*
X179683357Y-82078128D02*
X179778595Y-82173366D01*
X179778595Y-82173366D02*
X179826214Y-82268604D01*
X179826214Y-82268604D02*
X179873833Y-82459080D01*
X179873833Y-82459080D02*
X179873833Y-82601937D01*
X179873833Y-82601937D02*
X179826214Y-82792413D01*
X179826214Y-82792413D02*
X179778595Y-82887651D01*
X179778595Y-82887651D02*
X179683357Y-82982890D01*
X179683357Y-82982890D02*
X179540500Y-83030509D01*
X179540500Y-83030509D02*
X179302405Y-83030509D01*
X180730976Y-82363842D02*
X180730976Y-83030509D01*
X180492881Y-81982890D02*
X180254786Y-82697175D01*
X180254786Y-82697175D02*
X180873833Y-82697175D01*
X181683357Y-82030509D02*
X181492881Y-82030509D01*
X181492881Y-82030509D02*
X181397643Y-82078128D01*
X181397643Y-82078128D02*
X181350024Y-82125747D01*
X181350024Y-82125747D02*
X181254786Y-82268604D01*
X181254786Y-82268604D02*
X181207167Y-82459080D01*
X181207167Y-82459080D02*
X181207167Y-82840032D01*
X181207167Y-82840032D02*
X181254786Y-82935270D01*
X181254786Y-82935270D02*
X181302405Y-82982890D01*
X181302405Y-82982890D02*
X181397643Y-83030509D01*
X181397643Y-83030509D02*
X181588119Y-83030509D01*
X181588119Y-83030509D02*
X181683357Y-82982890D01*
X181683357Y-82982890D02*
X181730976Y-82935270D01*
X181730976Y-82935270D02*
X181778595Y-82840032D01*
X181778595Y-82840032D02*
X181778595Y-82601937D01*
X181778595Y-82601937D02*
X181730976Y-82506699D01*
X181730976Y-82506699D02*
X181683357Y-82459080D01*
X181683357Y-82459080D02*
X181588119Y-82411461D01*
X181588119Y-82411461D02*
X181397643Y-82411461D01*
X181397643Y-82411461D02*
X181302405Y-82459080D01*
X181302405Y-82459080D02*
X181254786Y-82506699D01*
X181254786Y-82506699D02*
X181207167Y-82601937D01*
X171697250Y-83045553D02*
X171697250Y-82045553D01*
X171697250Y-82045553D02*
X171935345Y-82045553D01*
X171935345Y-82045553D02*
X172078202Y-82093172D01*
X172078202Y-82093172D02*
X172173440Y-82188410D01*
X172173440Y-82188410D02*
X172221059Y-82283648D01*
X172221059Y-82283648D02*
X172268678Y-82474124D01*
X172268678Y-82474124D02*
X172268678Y-82616981D01*
X172268678Y-82616981D02*
X172221059Y-82807457D01*
X172221059Y-82807457D02*
X172173440Y-82902695D01*
X172173440Y-82902695D02*
X172078202Y-82997934D01*
X172078202Y-82997934D02*
X171935345Y-83045553D01*
X171935345Y-83045553D02*
X171697250Y-83045553D01*
X172602012Y-82045553D02*
X173221059Y-82045553D01*
X173221059Y-82045553D02*
X172887726Y-82426505D01*
X172887726Y-82426505D02*
X173030583Y-82426505D01*
X173030583Y-82426505D02*
X173125821Y-82474124D01*
X173125821Y-82474124D02*
X173173440Y-82521743D01*
X173173440Y-82521743D02*
X173221059Y-82616981D01*
X173221059Y-82616981D02*
X173221059Y-82855076D01*
X173221059Y-82855076D02*
X173173440Y-82950314D01*
X173173440Y-82950314D02*
X173125821Y-82997934D01*
X173125821Y-82997934D02*
X173030583Y-83045553D01*
X173030583Y-83045553D02*
X172744869Y-83045553D01*
X172744869Y-83045553D02*
X172649631Y-82997934D01*
X172649631Y-82997934D02*
X172602012Y-82950314D01*
X173792488Y-82474124D02*
X173697250Y-82426505D01*
X173697250Y-82426505D02*
X173649631Y-82378886D01*
X173649631Y-82378886D02*
X173602012Y-82283648D01*
X173602012Y-82283648D02*
X173602012Y-82236029D01*
X173602012Y-82236029D02*
X173649631Y-82140791D01*
X173649631Y-82140791D02*
X173697250Y-82093172D01*
X173697250Y-82093172D02*
X173792488Y-82045553D01*
X173792488Y-82045553D02*
X173982964Y-82045553D01*
X173982964Y-82045553D02*
X174078202Y-82093172D01*
X174078202Y-82093172D02*
X174125821Y-82140791D01*
X174125821Y-82140791D02*
X174173440Y-82236029D01*
X174173440Y-82236029D02*
X174173440Y-82283648D01*
X174173440Y-82283648D02*
X174125821Y-82378886D01*
X174125821Y-82378886D02*
X174078202Y-82426505D01*
X174078202Y-82426505D02*
X173982964Y-82474124D01*
X173982964Y-82474124D02*
X173792488Y-82474124D01*
X173792488Y-82474124D02*
X173697250Y-82521743D01*
X173697250Y-82521743D02*
X173649631Y-82569362D01*
X173649631Y-82569362D02*
X173602012Y-82664600D01*
X173602012Y-82664600D02*
X173602012Y-82855076D01*
X173602012Y-82855076D02*
X173649631Y-82950314D01*
X173649631Y-82950314D02*
X173697250Y-82997934D01*
X173697250Y-82997934D02*
X173792488Y-83045553D01*
X173792488Y-83045553D02*
X173982964Y-83045553D01*
X173982964Y-83045553D02*
X174078202Y-82997934D01*
X174078202Y-82997934D02*
X174125821Y-82950314D01*
X174125821Y-82950314D02*
X174173440Y-82855076D01*
X174173440Y-82855076D02*
X174173440Y-82664600D01*
X174173440Y-82664600D02*
X174125821Y-82569362D01*
X174125821Y-82569362D02*
X174078202Y-82521743D01*
X174078202Y-82521743D02*
X173982964Y-82474124D01*
X128223214Y-66804819D02*
X128223214Y-65804819D01*
X128223214Y-65804819D02*
X128461309Y-65804819D01*
X128461309Y-65804819D02*
X128604166Y-65852438D01*
X128604166Y-65852438D02*
X128699404Y-65947676D01*
X128699404Y-65947676D02*
X128747023Y-66042914D01*
X128747023Y-66042914D02*
X128794642Y-66233390D01*
X128794642Y-66233390D02*
X128794642Y-66376247D01*
X128794642Y-66376247D02*
X128747023Y-66566723D01*
X128747023Y-66566723D02*
X128699404Y-66661961D01*
X128699404Y-66661961D02*
X128604166Y-66757200D01*
X128604166Y-66757200D02*
X128461309Y-66804819D01*
X128461309Y-66804819D02*
X128223214Y-66804819D01*
X129747023Y-66804819D02*
X129175595Y-66804819D01*
X129461309Y-66804819D02*
X129461309Y-65804819D01*
X129461309Y-65804819D02*
X129366071Y-65947676D01*
X129366071Y-65947676D02*
X129270833Y-66042914D01*
X129270833Y-66042914D02*
X129175595Y-66090533D01*
X130604166Y-65804819D02*
X130413690Y-65804819D01*
X130413690Y-65804819D02*
X130318452Y-65852438D01*
X130318452Y-65852438D02*
X130270833Y-65900057D01*
X130270833Y-65900057D02*
X130175595Y-66042914D01*
X130175595Y-66042914D02*
X130127976Y-66233390D01*
X130127976Y-66233390D02*
X130127976Y-66614342D01*
X130127976Y-66614342D02*
X130175595Y-66709580D01*
X130175595Y-66709580D02*
X130223214Y-66757200D01*
X130223214Y-66757200D02*
X130318452Y-66804819D01*
X130318452Y-66804819D02*
X130508928Y-66804819D01*
X130508928Y-66804819D02*
X130604166Y-66757200D01*
X130604166Y-66757200D02*
X130651785Y-66709580D01*
X130651785Y-66709580D02*
X130699404Y-66614342D01*
X130699404Y-66614342D02*
X130699404Y-66376247D01*
X130699404Y-66376247D02*
X130651785Y-66281009D01*
X130651785Y-66281009D02*
X130604166Y-66233390D01*
X130604166Y-66233390D02*
X130508928Y-66185771D01*
X130508928Y-66185771D02*
X130318452Y-66185771D01*
X130318452Y-66185771D02*
X130223214Y-66233390D01*
X130223214Y-66233390D02*
X130175595Y-66281009D01*
X130175595Y-66281009D02*
X130127976Y-66376247D01*
X103078803Y-94675050D02*
X102078803Y-94675050D01*
X102078803Y-94675050D02*
X102078803Y-94436955D01*
X102078803Y-94436955D02*
X102126422Y-94294098D01*
X102126422Y-94294098D02*
X102221660Y-94198860D01*
X102221660Y-94198860D02*
X102316898Y-94151241D01*
X102316898Y-94151241D02*
X102507374Y-94103622D01*
X102507374Y-94103622D02*
X102650231Y-94103622D01*
X102650231Y-94103622D02*
X102840707Y-94151241D01*
X102840707Y-94151241D02*
X102935945Y-94198860D01*
X102935945Y-94198860D02*
X103031184Y-94294098D01*
X103031184Y-94294098D02*
X103078803Y-94436955D01*
X103078803Y-94436955D02*
X103078803Y-94675050D01*
X102174041Y-93722669D02*
X102126422Y-93675050D01*
X102126422Y-93675050D02*
X102078803Y-93579812D01*
X102078803Y-93579812D02*
X102078803Y-93341717D01*
X102078803Y-93341717D02*
X102126422Y-93246479D01*
X102126422Y-93246479D02*
X102174041Y-93198860D01*
X102174041Y-93198860D02*
X102269279Y-93151241D01*
X102269279Y-93151241D02*
X102364517Y-93151241D01*
X102364517Y-93151241D02*
X102507374Y-93198860D01*
X102507374Y-93198860D02*
X103078803Y-93770288D01*
X103078803Y-93770288D02*
X103078803Y-93151241D01*
X172904761Y-117100057D02*
X172809523Y-117052438D01*
X172809523Y-117052438D02*
X172714285Y-116957200D01*
X172714285Y-116957200D02*
X172571428Y-116814342D01*
X172571428Y-116814342D02*
X172476190Y-116766723D01*
X172476190Y-116766723D02*
X172380952Y-116766723D01*
X172428571Y-117004819D02*
X172333333Y-116957200D01*
X172333333Y-116957200D02*
X172238095Y-116861961D01*
X172238095Y-116861961D02*
X172190476Y-116671485D01*
X172190476Y-116671485D02*
X172190476Y-116338152D01*
X172190476Y-116338152D02*
X172238095Y-116147676D01*
X172238095Y-116147676D02*
X172333333Y-116052438D01*
X172333333Y-116052438D02*
X172428571Y-116004819D01*
X172428571Y-116004819D02*
X172619047Y-116004819D01*
X172619047Y-116004819D02*
X172714285Y-116052438D01*
X172714285Y-116052438D02*
X172809523Y-116147676D01*
X172809523Y-116147676D02*
X172857142Y-116338152D01*
X172857142Y-116338152D02*
X172857142Y-116671485D01*
X172857142Y-116671485D02*
X172809523Y-116861961D01*
X172809523Y-116861961D02*
X172714285Y-116957200D01*
X172714285Y-116957200D02*
X172619047Y-117004819D01*
X172619047Y-117004819D02*
X172428571Y-117004819D01*
X173190476Y-116004819D02*
X173809523Y-116004819D01*
X173809523Y-116004819D02*
X173476190Y-116385771D01*
X173476190Y-116385771D02*
X173619047Y-116385771D01*
X173619047Y-116385771D02*
X173714285Y-116433390D01*
X173714285Y-116433390D02*
X173761904Y-116481009D01*
X173761904Y-116481009D02*
X173809523Y-116576247D01*
X173809523Y-116576247D02*
X173809523Y-116814342D01*
X173809523Y-116814342D02*
X173761904Y-116909580D01*
X173761904Y-116909580D02*
X173714285Y-116957200D01*
X173714285Y-116957200D02*
X173619047Y-117004819D01*
X173619047Y-117004819D02*
X173333333Y-117004819D01*
X173333333Y-117004819D02*
X173238095Y-116957200D01*
X173238095Y-116957200D02*
X173190476Y-116909580D01*
X186834061Y-52538809D02*
X186834061Y-51538809D01*
X186834061Y-51538809D02*
X187072156Y-51538809D01*
X187072156Y-51538809D02*
X187215013Y-51586428D01*
X187215013Y-51586428D02*
X187310251Y-51681666D01*
X187310251Y-51681666D02*
X187357870Y-51776904D01*
X187357870Y-51776904D02*
X187405489Y-51967380D01*
X187405489Y-51967380D02*
X187405489Y-52110237D01*
X187405489Y-52110237D02*
X187357870Y-52300713D01*
X187357870Y-52300713D02*
X187310251Y-52395951D01*
X187310251Y-52395951D02*
X187215013Y-52491190D01*
X187215013Y-52491190D02*
X187072156Y-52538809D01*
X187072156Y-52538809D02*
X186834061Y-52538809D01*
X187786442Y-51634047D02*
X187834061Y-51586428D01*
X187834061Y-51586428D02*
X187929299Y-51538809D01*
X187929299Y-51538809D02*
X188167394Y-51538809D01*
X188167394Y-51538809D02*
X188262632Y-51586428D01*
X188262632Y-51586428D02*
X188310251Y-51634047D01*
X188310251Y-51634047D02*
X188357870Y-51729285D01*
X188357870Y-51729285D02*
X188357870Y-51824523D01*
X188357870Y-51824523D02*
X188310251Y-51967380D01*
X188310251Y-51967380D02*
X187738823Y-52538809D01*
X187738823Y-52538809D02*
X188357870Y-52538809D01*
X188691204Y-51538809D02*
X189310251Y-51538809D01*
X189310251Y-51538809D02*
X188976918Y-51919761D01*
X188976918Y-51919761D02*
X189119775Y-51919761D01*
X189119775Y-51919761D02*
X189215013Y-51967380D01*
X189215013Y-51967380D02*
X189262632Y-52014999D01*
X189262632Y-52014999D02*
X189310251Y-52110237D01*
X189310251Y-52110237D02*
X189310251Y-52348332D01*
X189310251Y-52348332D02*
X189262632Y-52443570D01*
X189262632Y-52443570D02*
X189215013Y-52491190D01*
X189215013Y-52491190D02*
X189119775Y-52538809D01*
X189119775Y-52538809D02*
X188834061Y-52538809D01*
X188834061Y-52538809D02*
X188738823Y-52491190D01*
X188738823Y-52491190D02*
X188691204Y-52443570D01*
X122864133Y-94582078D02*
X121864133Y-94582078D01*
X121864133Y-94582078D02*
X121864133Y-94343983D01*
X121864133Y-94343983D02*
X121911752Y-94201126D01*
X121911752Y-94201126D02*
X122006990Y-94105888D01*
X122006990Y-94105888D02*
X122102228Y-94058269D01*
X122102228Y-94058269D02*
X122292704Y-94010650D01*
X122292704Y-94010650D02*
X122435561Y-94010650D01*
X122435561Y-94010650D02*
X122626037Y-94058269D01*
X122626037Y-94058269D02*
X122721275Y-94105888D01*
X122721275Y-94105888D02*
X122816514Y-94201126D01*
X122816514Y-94201126D02*
X122864133Y-94343983D01*
X122864133Y-94343983D02*
X122864133Y-94582078D01*
X122292704Y-93439221D02*
X122245085Y-93534459D01*
X122245085Y-93534459D02*
X122197466Y-93582078D01*
X122197466Y-93582078D02*
X122102228Y-93629697D01*
X122102228Y-93629697D02*
X122054609Y-93629697D01*
X122054609Y-93629697D02*
X121959371Y-93582078D01*
X121959371Y-93582078D02*
X121911752Y-93534459D01*
X121911752Y-93534459D02*
X121864133Y-93439221D01*
X121864133Y-93439221D02*
X121864133Y-93248745D01*
X121864133Y-93248745D02*
X121911752Y-93153507D01*
X121911752Y-93153507D02*
X121959371Y-93105888D01*
X121959371Y-93105888D02*
X122054609Y-93058269D01*
X122054609Y-93058269D02*
X122102228Y-93058269D01*
X122102228Y-93058269D02*
X122197466Y-93105888D01*
X122197466Y-93105888D02*
X122245085Y-93153507D01*
X122245085Y-93153507D02*
X122292704Y-93248745D01*
X122292704Y-93248745D02*
X122292704Y-93439221D01*
X122292704Y-93439221D02*
X122340323Y-93534459D01*
X122340323Y-93534459D02*
X122387942Y-93582078D01*
X122387942Y-93582078D02*
X122483180Y-93629697D01*
X122483180Y-93629697D02*
X122673656Y-93629697D01*
X122673656Y-93629697D02*
X122768894Y-93582078D01*
X122768894Y-93582078D02*
X122816514Y-93534459D01*
X122816514Y-93534459D02*
X122864133Y-93439221D01*
X122864133Y-93439221D02*
X122864133Y-93248745D01*
X122864133Y-93248745D02*
X122816514Y-93153507D01*
X122816514Y-93153507D02*
X122768894Y-93105888D01*
X122768894Y-93105888D02*
X122673656Y-93058269D01*
X122673656Y-93058269D02*
X122483180Y-93058269D01*
X122483180Y-93058269D02*
X122387942Y-93105888D01*
X122387942Y-93105888D02*
X122340323Y-93153507D01*
X122340323Y-93153507D02*
X122292704Y-93248745D01*
X186762438Y-90487345D02*
X186762438Y-89487345D01*
X186762438Y-89487345D02*
X187000533Y-89487345D01*
X187000533Y-89487345D02*
X187143390Y-89534964D01*
X187143390Y-89534964D02*
X187238628Y-89630202D01*
X187238628Y-89630202D02*
X187286247Y-89725440D01*
X187286247Y-89725440D02*
X187333866Y-89915916D01*
X187333866Y-89915916D02*
X187333866Y-90058773D01*
X187333866Y-90058773D02*
X187286247Y-90249249D01*
X187286247Y-90249249D02*
X187238628Y-90344487D01*
X187238628Y-90344487D02*
X187143390Y-90439726D01*
X187143390Y-90439726D02*
X187000533Y-90487345D01*
X187000533Y-90487345D02*
X186762438Y-90487345D01*
X188191009Y-89820678D02*
X188191009Y-90487345D01*
X187952914Y-89439726D02*
X187714819Y-90154011D01*
X187714819Y-90154011D02*
X188333866Y-90154011D01*
X188619581Y-89487345D02*
X189286247Y-89487345D01*
X189286247Y-89487345D02*
X188857676Y-90487345D01*
X149500760Y-52492540D02*
X149500760Y-51492540D01*
X149500760Y-51492540D02*
X149738855Y-51492540D01*
X149738855Y-51492540D02*
X149881712Y-51540159D01*
X149881712Y-51540159D02*
X149976950Y-51635397D01*
X149976950Y-51635397D02*
X150024569Y-51730635D01*
X150024569Y-51730635D02*
X150072188Y-51921111D01*
X150072188Y-51921111D02*
X150072188Y-52063968D01*
X150072188Y-52063968D02*
X150024569Y-52254444D01*
X150024569Y-52254444D02*
X149976950Y-52349682D01*
X149976950Y-52349682D02*
X149881712Y-52444921D01*
X149881712Y-52444921D02*
X149738855Y-52492540D01*
X149738855Y-52492540D02*
X149500760Y-52492540D01*
X150453141Y-51587778D02*
X150500760Y-51540159D01*
X150500760Y-51540159D02*
X150595998Y-51492540D01*
X150595998Y-51492540D02*
X150834093Y-51492540D01*
X150834093Y-51492540D02*
X150929331Y-51540159D01*
X150929331Y-51540159D02*
X150976950Y-51587778D01*
X150976950Y-51587778D02*
X151024569Y-51683016D01*
X151024569Y-51683016D02*
X151024569Y-51778254D01*
X151024569Y-51778254D02*
X150976950Y-51921111D01*
X150976950Y-51921111D02*
X150405522Y-52492540D01*
X150405522Y-52492540D02*
X151024569Y-52492540D01*
X151405522Y-51587778D02*
X151453141Y-51540159D01*
X151453141Y-51540159D02*
X151548379Y-51492540D01*
X151548379Y-51492540D02*
X151786474Y-51492540D01*
X151786474Y-51492540D02*
X151881712Y-51540159D01*
X151881712Y-51540159D02*
X151929331Y-51587778D01*
X151929331Y-51587778D02*
X151976950Y-51683016D01*
X151976950Y-51683016D02*
X151976950Y-51778254D01*
X151976950Y-51778254D02*
X151929331Y-51921111D01*
X151929331Y-51921111D02*
X151357903Y-52492540D01*
X151357903Y-52492540D02*
X151976950Y-52492540D01*
X149515714Y-45483135D02*
X149515714Y-44483135D01*
X149515714Y-44483135D02*
X149753809Y-44483135D01*
X149753809Y-44483135D02*
X149896666Y-44530754D01*
X149896666Y-44530754D02*
X149991904Y-44625992D01*
X149991904Y-44625992D02*
X150039523Y-44721230D01*
X150039523Y-44721230D02*
X150087142Y-44911706D01*
X150087142Y-44911706D02*
X150087142Y-45054563D01*
X150087142Y-45054563D02*
X150039523Y-45245039D01*
X150039523Y-45245039D02*
X149991904Y-45340277D01*
X149991904Y-45340277D02*
X149896666Y-45435516D01*
X149896666Y-45435516D02*
X149753809Y-45483135D01*
X149753809Y-45483135D02*
X149515714Y-45483135D01*
X150468095Y-44578373D02*
X150515714Y-44530754D01*
X150515714Y-44530754D02*
X150610952Y-44483135D01*
X150610952Y-44483135D02*
X150849047Y-44483135D01*
X150849047Y-44483135D02*
X150944285Y-44530754D01*
X150944285Y-44530754D02*
X150991904Y-44578373D01*
X150991904Y-44578373D02*
X151039523Y-44673611D01*
X151039523Y-44673611D02*
X151039523Y-44768849D01*
X151039523Y-44768849D02*
X150991904Y-44911706D01*
X150991904Y-44911706D02*
X150420476Y-45483135D01*
X150420476Y-45483135D02*
X151039523Y-45483135D01*
X151896666Y-44483135D02*
X151706190Y-44483135D01*
X151706190Y-44483135D02*
X151610952Y-44530754D01*
X151610952Y-44530754D02*
X151563333Y-44578373D01*
X151563333Y-44578373D02*
X151468095Y-44721230D01*
X151468095Y-44721230D02*
X151420476Y-44911706D01*
X151420476Y-44911706D02*
X151420476Y-45292658D01*
X151420476Y-45292658D02*
X151468095Y-45387896D01*
X151468095Y-45387896D02*
X151515714Y-45435516D01*
X151515714Y-45435516D02*
X151610952Y-45483135D01*
X151610952Y-45483135D02*
X151801428Y-45483135D01*
X151801428Y-45483135D02*
X151896666Y-45435516D01*
X151896666Y-45435516D02*
X151944285Y-45387896D01*
X151944285Y-45387896D02*
X151991904Y-45292658D01*
X151991904Y-45292658D02*
X151991904Y-45054563D01*
X151991904Y-45054563D02*
X151944285Y-44959325D01*
X151944285Y-44959325D02*
X151896666Y-44911706D01*
X151896666Y-44911706D02*
X151801428Y-44864087D01*
X151801428Y-44864087D02*
X151610952Y-44864087D01*
X151610952Y-44864087D02*
X151515714Y-44911706D01*
X151515714Y-44911706D02*
X151468095Y-44959325D01*
X151468095Y-44959325D02*
X151420476Y-45054563D01*
X172904761Y-121550057D02*
X172809523Y-121502438D01*
X172809523Y-121502438D02*
X172714285Y-121407200D01*
X172714285Y-121407200D02*
X172571428Y-121264342D01*
X172571428Y-121264342D02*
X172476190Y-121216723D01*
X172476190Y-121216723D02*
X172380952Y-121216723D01*
X172428571Y-121454819D02*
X172333333Y-121407200D01*
X172333333Y-121407200D02*
X172238095Y-121311961D01*
X172238095Y-121311961D02*
X172190476Y-121121485D01*
X172190476Y-121121485D02*
X172190476Y-120788152D01*
X172190476Y-120788152D02*
X172238095Y-120597676D01*
X172238095Y-120597676D02*
X172333333Y-120502438D01*
X172333333Y-120502438D02*
X172428571Y-120454819D01*
X172428571Y-120454819D02*
X172619047Y-120454819D01*
X172619047Y-120454819D02*
X172714285Y-120502438D01*
X172714285Y-120502438D02*
X172809523Y-120597676D01*
X172809523Y-120597676D02*
X172857142Y-120788152D01*
X172857142Y-120788152D02*
X172857142Y-121121485D01*
X172857142Y-121121485D02*
X172809523Y-121311961D01*
X172809523Y-121311961D02*
X172714285Y-121407200D01*
X172714285Y-121407200D02*
X172619047Y-121454819D01*
X172619047Y-121454819D02*
X172428571Y-121454819D01*
X173714285Y-120788152D02*
X173714285Y-121454819D01*
X173476190Y-120407200D02*
X173238095Y-121121485D01*
X173238095Y-121121485D02*
X173857142Y-121121485D01*
X103153333Y-111514819D02*
X102820000Y-111038628D01*
X102581905Y-111514819D02*
X102581905Y-110514819D01*
X102581905Y-110514819D02*
X102962857Y-110514819D01*
X102962857Y-110514819D02*
X103058095Y-110562438D01*
X103058095Y-110562438D02*
X103105714Y-110610057D01*
X103105714Y-110610057D02*
X103153333Y-110705295D01*
X103153333Y-110705295D02*
X103153333Y-110848152D01*
X103153333Y-110848152D02*
X103105714Y-110943390D01*
X103105714Y-110943390D02*
X103058095Y-110991009D01*
X103058095Y-110991009D02*
X102962857Y-111038628D01*
X102962857Y-111038628D02*
X102581905Y-111038628D01*
X103534286Y-110610057D02*
X103581905Y-110562438D01*
X103581905Y-110562438D02*
X103677143Y-110514819D01*
X103677143Y-110514819D02*
X103915238Y-110514819D01*
X103915238Y-110514819D02*
X104010476Y-110562438D01*
X104010476Y-110562438D02*
X104058095Y-110610057D01*
X104058095Y-110610057D02*
X104105714Y-110705295D01*
X104105714Y-110705295D02*
X104105714Y-110800533D01*
X104105714Y-110800533D02*
X104058095Y-110943390D01*
X104058095Y-110943390D02*
X103486667Y-111514819D01*
X103486667Y-111514819D02*
X104105714Y-111514819D01*
X107563333Y-114464819D02*
X107230000Y-113988628D01*
X106991905Y-114464819D02*
X106991905Y-113464819D01*
X106991905Y-113464819D02*
X107372857Y-113464819D01*
X107372857Y-113464819D02*
X107468095Y-113512438D01*
X107468095Y-113512438D02*
X107515714Y-113560057D01*
X107515714Y-113560057D02*
X107563333Y-113655295D01*
X107563333Y-113655295D02*
X107563333Y-113798152D01*
X107563333Y-113798152D02*
X107515714Y-113893390D01*
X107515714Y-113893390D02*
X107468095Y-113941009D01*
X107468095Y-113941009D02*
X107372857Y-113988628D01*
X107372857Y-113988628D02*
X106991905Y-113988628D01*
X107896667Y-113464819D02*
X108563333Y-113464819D01*
X108563333Y-113464819D02*
X108134762Y-114464819D01*
X160666667Y-108842200D02*
X160809524Y-108889819D01*
X160809524Y-108889819D02*
X161047619Y-108889819D01*
X161047619Y-108889819D02*
X161142857Y-108842200D01*
X161142857Y-108842200D02*
X161190476Y-108794580D01*
X161190476Y-108794580D02*
X161238095Y-108699342D01*
X161238095Y-108699342D02*
X161238095Y-108604104D01*
X161238095Y-108604104D02*
X161190476Y-108508866D01*
X161190476Y-108508866D02*
X161142857Y-108461247D01*
X161142857Y-108461247D02*
X161047619Y-108413628D01*
X161047619Y-108413628D02*
X160857143Y-108366009D01*
X160857143Y-108366009D02*
X160761905Y-108318390D01*
X160761905Y-108318390D02*
X160714286Y-108270771D01*
X160714286Y-108270771D02*
X160666667Y-108175533D01*
X160666667Y-108175533D02*
X160666667Y-108080295D01*
X160666667Y-108080295D02*
X160714286Y-107985057D01*
X160714286Y-107985057D02*
X160761905Y-107937438D01*
X160761905Y-107937438D02*
X160857143Y-107889819D01*
X160857143Y-107889819D02*
X161095238Y-107889819D01*
X161095238Y-107889819D02*
X161238095Y-107937438D01*
X161571429Y-107889819D02*
X161809524Y-108889819D01*
X161809524Y-108889819D02*
X162000000Y-108175533D01*
X162000000Y-108175533D02*
X162190476Y-108889819D01*
X162190476Y-108889819D02*
X162428572Y-107889819D01*
X162714286Y-107889819D02*
X163333333Y-107889819D01*
X163333333Y-107889819D02*
X163000000Y-108270771D01*
X163000000Y-108270771D02*
X163142857Y-108270771D01*
X163142857Y-108270771D02*
X163238095Y-108318390D01*
X163238095Y-108318390D02*
X163285714Y-108366009D01*
X163285714Y-108366009D02*
X163333333Y-108461247D01*
X163333333Y-108461247D02*
X163333333Y-108699342D01*
X163333333Y-108699342D02*
X163285714Y-108794580D01*
X163285714Y-108794580D02*
X163238095Y-108842200D01*
X163238095Y-108842200D02*
X163142857Y-108889819D01*
X163142857Y-108889819D02*
X162857143Y-108889819D01*
X162857143Y-108889819D02*
X162761905Y-108842200D01*
X162761905Y-108842200D02*
X162714286Y-108794580D01*
X111497142Y-117414819D02*
X111163809Y-116938628D01*
X110925714Y-117414819D02*
X110925714Y-116414819D01*
X110925714Y-116414819D02*
X111306666Y-116414819D01*
X111306666Y-116414819D02*
X111401904Y-116462438D01*
X111401904Y-116462438D02*
X111449523Y-116510057D01*
X111449523Y-116510057D02*
X111497142Y-116605295D01*
X111497142Y-116605295D02*
X111497142Y-116748152D01*
X111497142Y-116748152D02*
X111449523Y-116843390D01*
X111449523Y-116843390D02*
X111401904Y-116891009D01*
X111401904Y-116891009D02*
X111306666Y-116938628D01*
X111306666Y-116938628D02*
X110925714Y-116938628D01*
X112449523Y-117414819D02*
X111878095Y-117414819D01*
X112163809Y-117414819D02*
X112163809Y-116414819D01*
X112163809Y-116414819D02*
X112068571Y-116557676D01*
X112068571Y-116557676D02*
X111973333Y-116652914D01*
X111973333Y-116652914D02*
X111878095Y-116700533D01*
X112830476Y-116510057D02*
X112878095Y-116462438D01*
X112878095Y-116462438D02*
X112973333Y-116414819D01*
X112973333Y-116414819D02*
X113211428Y-116414819D01*
X113211428Y-116414819D02*
X113306666Y-116462438D01*
X113306666Y-116462438D02*
X113354285Y-116510057D01*
X113354285Y-116510057D02*
X113401904Y-116605295D01*
X113401904Y-116605295D02*
X113401904Y-116700533D01*
X113401904Y-116700533D02*
X113354285Y-116843390D01*
X113354285Y-116843390D02*
X112782857Y-117414819D01*
X112782857Y-117414819D02*
X113401904Y-117414819D01*
X106364453Y-94673963D02*
X105364453Y-94673963D01*
X105364453Y-94673963D02*
X105364453Y-94435868D01*
X105364453Y-94435868D02*
X105412072Y-94293011D01*
X105412072Y-94293011D02*
X105507310Y-94197773D01*
X105507310Y-94197773D02*
X105602548Y-94150154D01*
X105602548Y-94150154D02*
X105793024Y-94102535D01*
X105793024Y-94102535D02*
X105935881Y-94102535D01*
X105935881Y-94102535D02*
X106126357Y-94150154D01*
X106126357Y-94150154D02*
X106221595Y-94197773D01*
X106221595Y-94197773D02*
X106316834Y-94293011D01*
X106316834Y-94293011D02*
X106364453Y-94435868D01*
X106364453Y-94435868D02*
X106364453Y-94673963D01*
X105364453Y-93769201D02*
X105364453Y-93150154D01*
X105364453Y-93150154D02*
X105745405Y-93483487D01*
X105745405Y-93483487D02*
X105745405Y-93340630D01*
X105745405Y-93340630D02*
X105793024Y-93245392D01*
X105793024Y-93245392D02*
X105840643Y-93197773D01*
X105840643Y-93197773D02*
X105935881Y-93150154D01*
X105935881Y-93150154D02*
X106173976Y-93150154D01*
X106173976Y-93150154D02*
X106269214Y-93197773D01*
X106269214Y-93197773D02*
X106316834Y-93245392D01*
X106316834Y-93245392D02*
X106364453Y-93340630D01*
X106364453Y-93340630D02*
X106364453Y-93626344D01*
X106364453Y-93626344D02*
X106316834Y-93721582D01*
X106316834Y-93721582D02*
X106269214Y-93769201D01*
X194761905Y-45353135D02*
X194761905Y-44353135D01*
X194761905Y-44353135D02*
X195000000Y-44353135D01*
X195000000Y-44353135D02*
X195142857Y-44400754D01*
X195142857Y-44400754D02*
X195238095Y-44495992D01*
X195238095Y-44495992D02*
X195285714Y-44591230D01*
X195285714Y-44591230D02*
X195333333Y-44781706D01*
X195333333Y-44781706D02*
X195333333Y-44924563D01*
X195333333Y-44924563D02*
X195285714Y-45115039D01*
X195285714Y-45115039D02*
X195238095Y-45210277D01*
X195238095Y-45210277D02*
X195142857Y-45305516D01*
X195142857Y-45305516D02*
X195000000Y-45353135D01*
X195000000Y-45353135D02*
X194761905Y-45353135D01*
X195809524Y-45353135D02*
X196000000Y-45353135D01*
X196000000Y-45353135D02*
X196095238Y-45305516D01*
X196095238Y-45305516D02*
X196142857Y-45257896D01*
X196142857Y-45257896D02*
X196238095Y-45115039D01*
X196238095Y-45115039D02*
X196285714Y-44924563D01*
X196285714Y-44924563D02*
X196285714Y-44543611D01*
X196285714Y-44543611D02*
X196238095Y-44448373D01*
X196238095Y-44448373D02*
X196190476Y-44400754D01*
X196190476Y-44400754D02*
X196095238Y-44353135D01*
X196095238Y-44353135D02*
X195904762Y-44353135D01*
X195904762Y-44353135D02*
X195809524Y-44400754D01*
X195809524Y-44400754D02*
X195761905Y-44448373D01*
X195761905Y-44448373D02*
X195714286Y-44543611D01*
X195714286Y-44543611D02*
X195714286Y-44781706D01*
X195714286Y-44781706D02*
X195761905Y-44876944D01*
X195761905Y-44876944D02*
X195809524Y-44924563D01*
X195809524Y-44924563D02*
X195904762Y-44972182D01*
X195904762Y-44972182D02*
X196095238Y-44972182D01*
X196095238Y-44972182D02*
X196190476Y-44924563D01*
X196190476Y-44924563D02*
X196238095Y-44876944D01*
X196238095Y-44876944D02*
X196285714Y-44781706D01*
X179322405Y-90530509D02*
X179322405Y-89530509D01*
X179322405Y-89530509D02*
X179560500Y-89530509D01*
X179560500Y-89530509D02*
X179703357Y-89578128D01*
X179703357Y-89578128D02*
X179798595Y-89673366D01*
X179798595Y-89673366D02*
X179846214Y-89768604D01*
X179846214Y-89768604D02*
X179893833Y-89959080D01*
X179893833Y-89959080D02*
X179893833Y-90101937D01*
X179893833Y-90101937D02*
X179846214Y-90292413D01*
X179846214Y-90292413D02*
X179798595Y-90387651D01*
X179798595Y-90387651D02*
X179703357Y-90482890D01*
X179703357Y-90482890D02*
X179560500Y-90530509D01*
X179560500Y-90530509D02*
X179322405Y-90530509D01*
X180227167Y-89530509D02*
X180846214Y-89530509D01*
X180846214Y-89530509D02*
X180512881Y-89911461D01*
X180512881Y-89911461D02*
X180655738Y-89911461D01*
X180655738Y-89911461D02*
X180750976Y-89959080D01*
X180750976Y-89959080D02*
X180798595Y-90006699D01*
X180798595Y-90006699D02*
X180846214Y-90101937D01*
X180846214Y-90101937D02*
X180846214Y-90340032D01*
X180846214Y-90340032D02*
X180798595Y-90435270D01*
X180798595Y-90435270D02*
X180750976Y-90482890D01*
X180750976Y-90482890D02*
X180655738Y-90530509D01*
X180655738Y-90530509D02*
X180370024Y-90530509D01*
X180370024Y-90530509D02*
X180274786Y-90482890D01*
X180274786Y-90482890D02*
X180227167Y-90435270D01*
X181322405Y-90530509D02*
X181512881Y-90530509D01*
X181512881Y-90530509D02*
X181608119Y-90482890D01*
X181608119Y-90482890D02*
X181655738Y-90435270D01*
X181655738Y-90435270D02*
X181750976Y-90292413D01*
X181750976Y-90292413D02*
X181798595Y-90101937D01*
X181798595Y-90101937D02*
X181798595Y-89720985D01*
X181798595Y-89720985D02*
X181750976Y-89625747D01*
X181750976Y-89625747D02*
X181703357Y-89578128D01*
X181703357Y-89578128D02*
X181608119Y-89530509D01*
X181608119Y-89530509D02*
X181417643Y-89530509D01*
X181417643Y-89530509D02*
X181322405Y-89578128D01*
X181322405Y-89578128D02*
X181274786Y-89625747D01*
X181274786Y-89625747D02*
X181227167Y-89720985D01*
X181227167Y-89720985D02*
X181227167Y-89959080D01*
X181227167Y-89959080D02*
X181274786Y-90054318D01*
X181274786Y-90054318D02*
X181322405Y-90101937D01*
X181322405Y-90101937D02*
X181417643Y-90149556D01*
X181417643Y-90149556D02*
X181608119Y-90149556D01*
X181608119Y-90149556D02*
X181703357Y-90101937D01*
X181703357Y-90101937D02*
X181750976Y-90054318D01*
X181750976Y-90054318D02*
X181798595Y-89959080D01*
X171712959Y-98009738D02*
X171712959Y-97009738D01*
X171712959Y-97009738D02*
X171951054Y-97009738D01*
X171951054Y-97009738D02*
X172093911Y-97057357D01*
X172093911Y-97057357D02*
X172189149Y-97152595D01*
X172189149Y-97152595D02*
X172236768Y-97247833D01*
X172236768Y-97247833D02*
X172284387Y-97438309D01*
X172284387Y-97438309D02*
X172284387Y-97581166D01*
X172284387Y-97581166D02*
X172236768Y-97771642D01*
X172236768Y-97771642D02*
X172189149Y-97866880D01*
X172189149Y-97866880D02*
X172093911Y-97962119D01*
X172093911Y-97962119D02*
X171951054Y-98009738D01*
X171951054Y-98009738D02*
X171712959Y-98009738D01*
X173141530Y-97343071D02*
X173141530Y-98009738D01*
X172903435Y-96962119D02*
X172665340Y-97676404D01*
X172665340Y-97676404D02*
X173284387Y-97676404D01*
X174141530Y-97009738D02*
X173665340Y-97009738D01*
X173665340Y-97009738D02*
X173617721Y-97485928D01*
X173617721Y-97485928D02*
X173665340Y-97438309D01*
X173665340Y-97438309D02*
X173760578Y-97390690D01*
X173760578Y-97390690D02*
X173998673Y-97390690D01*
X173998673Y-97390690D02*
X174093911Y-97438309D01*
X174093911Y-97438309D02*
X174141530Y-97485928D01*
X174141530Y-97485928D02*
X174189149Y-97581166D01*
X174189149Y-97581166D02*
X174189149Y-97819261D01*
X174189149Y-97819261D02*
X174141530Y-97914499D01*
X174141530Y-97914499D02*
X174093911Y-97962119D01*
X174093911Y-97962119D02*
X173998673Y-98009738D01*
X173998673Y-98009738D02*
X173760578Y-98009738D01*
X173760578Y-98009738D02*
X173665340Y-97962119D01*
X173665340Y-97962119D02*
X173617721Y-97914499D01*
X115907142Y-114464819D02*
X115573809Y-113988628D01*
X115335714Y-114464819D02*
X115335714Y-113464819D01*
X115335714Y-113464819D02*
X115716666Y-113464819D01*
X115716666Y-113464819D02*
X115811904Y-113512438D01*
X115811904Y-113512438D02*
X115859523Y-113560057D01*
X115859523Y-113560057D02*
X115907142Y-113655295D01*
X115907142Y-113655295D02*
X115907142Y-113798152D01*
X115907142Y-113798152D02*
X115859523Y-113893390D01*
X115859523Y-113893390D02*
X115811904Y-113941009D01*
X115811904Y-113941009D02*
X115716666Y-113988628D01*
X115716666Y-113988628D02*
X115335714Y-113988628D01*
X116859523Y-114464819D02*
X116288095Y-114464819D01*
X116573809Y-114464819D02*
X116573809Y-113464819D01*
X116573809Y-113464819D02*
X116478571Y-113607676D01*
X116478571Y-113607676D02*
X116383333Y-113702914D01*
X116383333Y-113702914D02*
X116288095Y-113750533D01*
X117764285Y-113464819D02*
X117288095Y-113464819D01*
X117288095Y-113464819D02*
X117240476Y-113941009D01*
X117240476Y-113941009D02*
X117288095Y-113893390D01*
X117288095Y-113893390D02*
X117383333Y-113845771D01*
X117383333Y-113845771D02*
X117621428Y-113845771D01*
X117621428Y-113845771D02*
X117716666Y-113893390D01*
X117716666Y-113893390D02*
X117764285Y-113941009D01*
X117764285Y-113941009D02*
X117811904Y-114036247D01*
X117811904Y-114036247D02*
X117811904Y-114274342D01*
X117811904Y-114274342D02*
X117764285Y-114369580D01*
X117764285Y-114369580D02*
X117716666Y-114417200D01*
X117716666Y-114417200D02*
X117621428Y-114464819D01*
X117621428Y-114464819D02*
X117383333Y-114464819D01*
X117383333Y-114464819D02*
X117288095Y-114417200D01*
X117288095Y-114417200D02*
X117240476Y-114369580D01*
X112938918Y-94605981D02*
X111938918Y-94605981D01*
X111938918Y-94605981D02*
X111938918Y-94367886D01*
X111938918Y-94367886D02*
X111986537Y-94225029D01*
X111986537Y-94225029D02*
X112081775Y-94129791D01*
X112081775Y-94129791D02*
X112177013Y-94082172D01*
X112177013Y-94082172D02*
X112367489Y-94034553D01*
X112367489Y-94034553D02*
X112510346Y-94034553D01*
X112510346Y-94034553D02*
X112700822Y-94082172D01*
X112700822Y-94082172D02*
X112796060Y-94129791D01*
X112796060Y-94129791D02*
X112891299Y-94225029D01*
X112891299Y-94225029D02*
X112938918Y-94367886D01*
X112938918Y-94367886D02*
X112938918Y-94605981D01*
X111938918Y-93129791D02*
X111938918Y-93605981D01*
X111938918Y-93605981D02*
X112415108Y-93653600D01*
X112415108Y-93653600D02*
X112367489Y-93605981D01*
X112367489Y-93605981D02*
X112319870Y-93510743D01*
X112319870Y-93510743D02*
X112319870Y-93272648D01*
X112319870Y-93272648D02*
X112367489Y-93177410D01*
X112367489Y-93177410D02*
X112415108Y-93129791D01*
X112415108Y-93129791D02*
X112510346Y-93082172D01*
X112510346Y-93082172D02*
X112748441Y-93082172D01*
X112748441Y-93082172D02*
X112843679Y-93129791D01*
X112843679Y-93129791D02*
X112891299Y-93177410D01*
X112891299Y-93177410D02*
X112938918Y-93272648D01*
X112938918Y-93272648D02*
X112938918Y-93510743D01*
X112938918Y-93510743D02*
X112891299Y-93605981D01*
X112891299Y-93605981D02*
X112843679Y-93653600D01*
X111497142Y-111514819D02*
X111163809Y-111038628D01*
X110925714Y-111514819D02*
X110925714Y-110514819D01*
X110925714Y-110514819D02*
X111306666Y-110514819D01*
X111306666Y-110514819D02*
X111401904Y-110562438D01*
X111401904Y-110562438D02*
X111449523Y-110610057D01*
X111449523Y-110610057D02*
X111497142Y-110705295D01*
X111497142Y-110705295D02*
X111497142Y-110848152D01*
X111497142Y-110848152D02*
X111449523Y-110943390D01*
X111449523Y-110943390D02*
X111401904Y-110991009D01*
X111401904Y-110991009D02*
X111306666Y-111038628D01*
X111306666Y-111038628D02*
X110925714Y-111038628D01*
X112449523Y-111514819D02*
X111878095Y-111514819D01*
X112163809Y-111514819D02*
X112163809Y-110514819D01*
X112163809Y-110514819D02*
X112068571Y-110657676D01*
X112068571Y-110657676D02*
X111973333Y-110752914D01*
X111973333Y-110752914D02*
X111878095Y-110800533D01*
X113068571Y-110514819D02*
X113163809Y-110514819D01*
X113163809Y-110514819D02*
X113259047Y-110562438D01*
X113259047Y-110562438D02*
X113306666Y-110610057D01*
X113306666Y-110610057D02*
X113354285Y-110705295D01*
X113354285Y-110705295D02*
X113401904Y-110895771D01*
X113401904Y-110895771D02*
X113401904Y-111133866D01*
X113401904Y-111133866D02*
X113354285Y-111324342D01*
X113354285Y-111324342D02*
X113306666Y-111419580D01*
X113306666Y-111419580D02*
X113259047Y-111467200D01*
X113259047Y-111467200D02*
X113163809Y-111514819D01*
X113163809Y-111514819D02*
X113068571Y-111514819D01*
X113068571Y-111514819D02*
X112973333Y-111467200D01*
X112973333Y-111467200D02*
X112925714Y-111419580D01*
X112925714Y-111419580D02*
X112878095Y-111324342D01*
X112878095Y-111324342D02*
X112830476Y-111133866D01*
X112830476Y-111133866D02*
X112830476Y-110895771D01*
X112830476Y-110895771D02*
X112878095Y-110705295D01*
X112878095Y-110705295D02*
X112925714Y-110610057D01*
X112925714Y-110610057D02*
X112973333Y-110562438D01*
X112973333Y-110562438D02*
X113068571Y-110514819D01*
X171998040Y-38009378D02*
X171998040Y-37009378D01*
X171998040Y-37009378D02*
X172236135Y-37009378D01*
X172236135Y-37009378D02*
X172378992Y-37056997D01*
X172378992Y-37056997D02*
X172474230Y-37152235D01*
X172474230Y-37152235D02*
X172521849Y-37247473D01*
X172521849Y-37247473D02*
X172569468Y-37437949D01*
X172569468Y-37437949D02*
X172569468Y-37580806D01*
X172569468Y-37580806D02*
X172521849Y-37771282D01*
X172521849Y-37771282D02*
X172474230Y-37866520D01*
X172474230Y-37866520D02*
X172378992Y-37961759D01*
X172378992Y-37961759D02*
X172236135Y-38009378D01*
X172236135Y-38009378D02*
X171998040Y-38009378D01*
X172902802Y-37009378D02*
X173521849Y-37009378D01*
X173521849Y-37009378D02*
X173188516Y-37390330D01*
X173188516Y-37390330D02*
X173331373Y-37390330D01*
X173331373Y-37390330D02*
X173426611Y-37437949D01*
X173426611Y-37437949D02*
X173474230Y-37485568D01*
X173474230Y-37485568D02*
X173521849Y-37580806D01*
X173521849Y-37580806D02*
X173521849Y-37818901D01*
X173521849Y-37818901D02*
X173474230Y-37914139D01*
X173474230Y-37914139D02*
X173426611Y-37961759D01*
X173426611Y-37961759D02*
X173331373Y-38009378D01*
X173331373Y-38009378D02*
X173045659Y-38009378D01*
X173045659Y-38009378D02*
X172950421Y-37961759D01*
X172950421Y-37961759D02*
X172902802Y-37914139D01*
X174378992Y-37342711D02*
X174378992Y-38009378D01*
X174140897Y-36961759D02*
X173902802Y-37676044D01*
X173902802Y-37676044D02*
X174521849Y-37676044D01*
X177814761Y-108200057D02*
X177719523Y-108152438D01*
X177719523Y-108152438D02*
X177624285Y-108057200D01*
X177624285Y-108057200D02*
X177481428Y-107914342D01*
X177481428Y-107914342D02*
X177386190Y-107866723D01*
X177386190Y-107866723D02*
X177290952Y-107866723D01*
X177338571Y-108104819D02*
X177243333Y-108057200D01*
X177243333Y-108057200D02*
X177148095Y-107961961D01*
X177148095Y-107961961D02*
X177100476Y-107771485D01*
X177100476Y-107771485D02*
X177100476Y-107438152D01*
X177100476Y-107438152D02*
X177148095Y-107247676D01*
X177148095Y-107247676D02*
X177243333Y-107152438D01*
X177243333Y-107152438D02*
X177338571Y-107104819D01*
X177338571Y-107104819D02*
X177529047Y-107104819D01*
X177529047Y-107104819D02*
X177624285Y-107152438D01*
X177624285Y-107152438D02*
X177719523Y-107247676D01*
X177719523Y-107247676D02*
X177767142Y-107438152D01*
X177767142Y-107438152D02*
X177767142Y-107771485D01*
X177767142Y-107771485D02*
X177719523Y-107961961D01*
X177719523Y-107961961D02*
X177624285Y-108057200D01*
X177624285Y-108057200D02*
X177529047Y-108104819D01*
X177529047Y-108104819D02*
X177338571Y-108104819D01*
X178671904Y-107104819D02*
X178195714Y-107104819D01*
X178195714Y-107104819D02*
X178148095Y-107581009D01*
X178148095Y-107581009D02*
X178195714Y-107533390D01*
X178195714Y-107533390D02*
X178290952Y-107485771D01*
X178290952Y-107485771D02*
X178529047Y-107485771D01*
X178529047Y-107485771D02*
X178624285Y-107533390D01*
X178624285Y-107533390D02*
X178671904Y-107581009D01*
X178671904Y-107581009D02*
X178719523Y-107676247D01*
X178719523Y-107676247D02*
X178719523Y-107914342D01*
X178719523Y-107914342D02*
X178671904Y-108009580D01*
X178671904Y-108009580D02*
X178624285Y-108057200D01*
X178624285Y-108057200D02*
X178529047Y-108104819D01*
X178529047Y-108104819D02*
X178290952Y-108104819D01*
X178290952Y-108104819D02*
X178195714Y-108057200D01*
X178195714Y-108057200D02*
X178148095Y-108009580D01*
X142015714Y-90494819D02*
X142015714Y-89494819D01*
X142015714Y-89494819D02*
X142253809Y-89494819D01*
X142253809Y-89494819D02*
X142396666Y-89542438D01*
X142396666Y-89542438D02*
X142491904Y-89637676D01*
X142491904Y-89637676D02*
X142539523Y-89732914D01*
X142539523Y-89732914D02*
X142587142Y-89923390D01*
X142587142Y-89923390D02*
X142587142Y-90066247D01*
X142587142Y-90066247D02*
X142539523Y-90256723D01*
X142539523Y-90256723D02*
X142491904Y-90351961D01*
X142491904Y-90351961D02*
X142396666Y-90447200D01*
X142396666Y-90447200D02*
X142253809Y-90494819D01*
X142253809Y-90494819D02*
X142015714Y-90494819D01*
X142920476Y-89494819D02*
X143539523Y-89494819D01*
X143539523Y-89494819D02*
X143206190Y-89875771D01*
X143206190Y-89875771D02*
X143349047Y-89875771D01*
X143349047Y-89875771D02*
X143444285Y-89923390D01*
X143444285Y-89923390D02*
X143491904Y-89971009D01*
X143491904Y-89971009D02*
X143539523Y-90066247D01*
X143539523Y-90066247D02*
X143539523Y-90304342D01*
X143539523Y-90304342D02*
X143491904Y-90399580D01*
X143491904Y-90399580D02*
X143444285Y-90447200D01*
X143444285Y-90447200D02*
X143349047Y-90494819D01*
X143349047Y-90494819D02*
X143063333Y-90494819D01*
X143063333Y-90494819D02*
X142968095Y-90447200D01*
X142968095Y-90447200D02*
X142920476Y-90399580D01*
X144444285Y-89494819D02*
X143968095Y-89494819D01*
X143968095Y-89494819D02*
X143920476Y-89971009D01*
X143920476Y-89971009D02*
X143968095Y-89923390D01*
X143968095Y-89923390D02*
X144063333Y-89875771D01*
X144063333Y-89875771D02*
X144301428Y-89875771D01*
X144301428Y-89875771D02*
X144396666Y-89923390D01*
X144396666Y-89923390D02*
X144444285Y-89971009D01*
X144444285Y-89971009D02*
X144491904Y-90066247D01*
X144491904Y-90066247D02*
X144491904Y-90304342D01*
X144491904Y-90304342D02*
X144444285Y-90399580D01*
X144444285Y-90399580D02*
X144396666Y-90447200D01*
X144396666Y-90447200D02*
X144301428Y-90494819D01*
X144301428Y-90494819D02*
X144063333Y-90494819D01*
X144063333Y-90494819D02*
X143968095Y-90447200D01*
X143968095Y-90447200D02*
X143920476Y-90399580D01*
X128223214Y-50804819D02*
X128223214Y-49804819D01*
X128223214Y-49804819D02*
X128461309Y-49804819D01*
X128461309Y-49804819D02*
X128604166Y-49852438D01*
X128604166Y-49852438D02*
X128699404Y-49947676D01*
X128699404Y-49947676D02*
X128747023Y-50042914D01*
X128747023Y-50042914D02*
X128794642Y-50233390D01*
X128794642Y-50233390D02*
X128794642Y-50376247D01*
X128794642Y-50376247D02*
X128747023Y-50566723D01*
X128747023Y-50566723D02*
X128699404Y-50661961D01*
X128699404Y-50661961D02*
X128604166Y-50757200D01*
X128604166Y-50757200D02*
X128461309Y-50804819D01*
X128461309Y-50804819D02*
X128223214Y-50804819D01*
X129127976Y-49804819D02*
X129747023Y-49804819D01*
X129747023Y-49804819D02*
X129413690Y-50185771D01*
X129413690Y-50185771D02*
X129556547Y-50185771D01*
X129556547Y-50185771D02*
X129651785Y-50233390D01*
X129651785Y-50233390D02*
X129699404Y-50281009D01*
X129699404Y-50281009D02*
X129747023Y-50376247D01*
X129747023Y-50376247D02*
X129747023Y-50614342D01*
X129747023Y-50614342D02*
X129699404Y-50709580D01*
X129699404Y-50709580D02*
X129651785Y-50757200D01*
X129651785Y-50757200D02*
X129556547Y-50804819D01*
X129556547Y-50804819D02*
X129270833Y-50804819D01*
X129270833Y-50804819D02*
X129175595Y-50757200D01*
X129175595Y-50757200D02*
X129127976Y-50709580D01*
X130604166Y-49804819D02*
X130413690Y-49804819D01*
X130413690Y-49804819D02*
X130318452Y-49852438D01*
X130318452Y-49852438D02*
X130270833Y-49900057D01*
X130270833Y-49900057D02*
X130175595Y-50042914D01*
X130175595Y-50042914D02*
X130127976Y-50233390D01*
X130127976Y-50233390D02*
X130127976Y-50614342D01*
X130127976Y-50614342D02*
X130175595Y-50709580D01*
X130175595Y-50709580D02*
X130223214Y-50757200D01*
X130223214Y-50757200D02*
X130318452Y-50804819D01*
X130318452Y-50804819D02*
X130508928Y-50804819D01*
X130508928Y-50804819D02*
X130604166Y-50757200D01*
X130604166Y-50757200D02*
X130651785Y-50709580D01*
X130651785Y-50709580D02*
X130699404Y-50614342D01*
X130699404Y-50614342D02*
X130699404Y-50376247D01*
X130699404Y-50376247D02*
X130651785Y-50281009D01*
X130651785Y-50281009D02*
X130604166Y-50233390D01*
X130604166Y-50233390D02*
X130508928Y-50185771D01*
X130508928Y-50185771D02*
X130318452Y-50185771D01*
X130318452Y-50185771D02*
X130223214Y-50233390D01*
X130223214Y-50233390D02*
X130175595Y-50281009D01*
X130175595Y-50281009D02*
X130127976Y-50376247D01*
X177814761Y-117100057D02*
X177719523Y-117052438D01*
X177719523Y-117052438D02*
X177624285Y-116957200D01*
X177624285Y-116957200D02*
X177481428Y-116814342D01*
X177481428Y-116814342D02*
X177386190Y-116766723D01*
X177386190Y-116766723D02*
X177290952Y-116766723D01*
X177338571Y-117004819D02*
X177243333Y-116957200D01*
X177243333Y-116957200D02*
X177148095Y-116861961D01*
X177148095Y-116861961D02*
X177100476Y-116671485D01*
X177100476Y-116671485D02*
X177100476Y-116338152D01*
X177100476Y-116338152D02*
X177148095Y-116147676D01*
X177148095Y-116147676D02*
X177243333Y-116052438D01*
X177243333Y-116052438D02*
X177338571Y-116004819D01*
X177338571Y-116004819D02*
X177529047Y-116004819D01*
X177529047Y-116004819D02*
X177624285Y-116052438D01*
X177624285Y-116052438D02*
X177719523Y-116147676D01*
X177719523Y-116147676D02*
X177767142Y-116338152D01*
X177767142Y-116338152D02*
X177767142Y-116671485D01*
X177767142Y-116671485D02*
X177719523Y-116861961D01*
X177719523Y-116861961D02*
X177624285Y-116957200D01*
X177624285Y-116957200D02*
X177529047Y-117004819D01*
X177529047Y-117004819D02*
X177338571Y-117004819D01*
X178100476Y-116004819D02*
X178767142Y-116004819D01*
X178767142Y-116004819D02*
X178338571Y-117004819D01*
X186762438Y-97957345D02*
X186762438Y-96957345D01*
X186762438Y-96957345D02*
X187000533Y-96957345D01*
X187000533Y-96957345D02*
X187143390Y-97004964D01*
X187143390Y-97004964D02*
X187238628Y-97100202D01*
X187238628Y-97100202D02*
X187286247Y-97195440D01*
X187286247Y-97195440D02*
X187333866Y-97385916D01*
X187333866Y-97385916D02*
X187333866Y-97528773D01*
X187333866Y-97528773D02*
X187286247Y-97719249D01*
X187286247Y-97719249D02*
X187238628Y-97814487D01*
X187238628Y-97814487D02*
X187143390Y-97909726D01*
X187143390Y-97909726D02*
X187000533Y-97957345D01*
X187000533Y-97957345D02*
X186762438Y-97957345D01*
X188191009Y-97290678D02*
X188191009Y-97957345D01*
X187952914Y-96909726D02*
X187714819Y-97624011D01*
X187714819Y-97624011D02*
X188333866Y-97624011D01*
X188857676Y-97385916D02*
X188762438Y-97338297D01*
X188762438Y-97338297D02*
X188714819Y-97290678D01*
X188714819Y-97290678D02*
X188667200Y-97195440D01*
X188667200Y-97195440D02*
X188667200Y-97147821D01*
X188667200Y-97147821D02*
X188714819Y-97052583D01*
X188714819Y-97052583D02*
X188762438Y-97004964D01*
X188762438Y-97004964D02*
X188857676Y-96957345D01*
X188857676Y-96957345D02*
X189048152Y-96957345D01*
X189048152Y-96957345D02*
X189143390Y-97004964D01*
X189143390Y-97004964D02*
X189191009Y-97052583D01*
X189191009Y-97052583D02*
X189238628Y-97147821D01*
X189238628Y-97147821D02*
X189238628Y-97195440D01*
X189238628Y-97195440D02*
X189191009Y-97290678D01*
X189191009Y-97290678D02*
X189143390Y-97338297D01*
X189143390Y-97338297D02*
X189048152Y-97385916D01*
X189048152Y-97385916D02*
X188857676Y-97385916D01*
X188857676Y-97385916D02*
X188762438Y-97433535D01*
X188762438Y-97433535D02*
X188714819Y-97481154D01*
X188714819Y-97481154D02*
X188667200Y-97576392D01*
X188667200Y-97576392D02*
X188667200Y-97766868D01*
X188667200Y-97766868D02*
X188714819Y-97862106D01*
X188714819Y-97862106D02*
X188762438Y-97909726D01*
X188762438Y-97909726D02*
X188857676Y-97957345D01*
X188857676Y-97957345D02*
X189048152Y-97957345D01*
X189048152Y-97957345D02*
X189143390Y-97909726D01*
X189143390Y-97909726D02*
X189191009Y-97862106D01*
X189191009Y-97862106D02*
X189238628Y-97766868D01*
X189238628Y-97766868D02*
X189238628Y-97576392D01*
X189238628Y-97576392D02*
X189191009Y-97481154D01*
X189191009Y-97481154D02*
X189143390Y-97433535D01*
X189143390Y-97433535D02*
X189048152Y-97385916D01*
X107563333Y-111514819D02*
X107230000Y-111038628D01*
X106991905Y-111514819D02*
X106991905Y-110514819D01*
X106991905Y-110514819D02*
X107372857Y-110514819D01*
X107372857Y-110514819D02*
X107468095Y-110562438D01*
X107468095Y-110562438D02*
X107515714Y-110610057D01*
X107515714Y-110610057D02*
X107563333Y-110705295D01*
X107563333Y-110705295D02*
X107563333Y-110848152D01*
X107563333Y-110848152D02*
X107515714Y-110943390D01*
X107515714Y-110943390D02*
X107468095Y-110991009D01*
X107468095Y-110991009D02*
X107372857Y-111038628D01*
X107372857Y-111038628D02*
X106991905Y-111038628D01*
X108420476Y-110514819D02*
X108230000Y-110514819D01*
X108230000Y-110514819D02*
X108134762Y-110562438D01*
X108134762Y-110562438D02*
X108087143Y-110610057D01*
X108087143Y-110610057D02*
X107991905Y-110752914D01*
X107991905Y-110752914D02*
X107944286Y-110943390D01*
X107944286Y-110943390D02*
X107944286Y-111324342D01*
X107944286Y-111324342D02*
X107991905Y-111419580D01*
X107991905Y-111419580D02*
X108039524Y-111467200D01*
X108039524Y-111467200D02*
X108134762Y-111514819D01*
X108134762Y-111514819D02*
X108325238Y-111514819D01*
X108325238Y-111514819D02*
X108420476Y-111467200D01*
X108420476Y-111467200D02*
X108468095Y-111419580D01*
X108468095Y-111419580D02*
X108515714Y-111324342D01*
X108515714Y-111324342D02*
X108515714Y-111086247D01*
X108515714Y-111086247D02*
X108468095Y-110991009D01*
X108468095Y-110991009D02*
X108420476Y-110943390D01*
X108420476Y-110943390D02*
X108325238Y-110895771D01*
X108325238Y-110895771D02*
X108134762Y-110895771D01*
X108134762Y-110895771D02*
X108039524Y-110943390D01*
X108039524Y-110943390D02*
X107991905Y-110991009D01*
X107991905Y-110991009D02*
X107944286Y-111086247D01*
X149515714Y-97964819D02*
X149515714Y-96964819D01*
X149515714Y-96964819D02*
X149753809Y-96964819D01*
X149753809Y-96964819D02*
X149896666Y-97012438D01*
X149896666Y-97012438D02*
X149991904Y-97107676D01*
X149991904Y-97107676D02*
X150039523Y-97202914D01*
X150039523Y-97202914D02*
X150087142Y-97393390D01*
X150087142Y-97393390D02*
X150087142Y-97536247D01*
X150087142Y-97536247D02*
X150039523Y-97726723D01*
X150039523Y-97726723D02*
X149991904Y-97821961D01*
X149991904Y-97821961D02*
X149896666Y-97917200D01*
X149896666Y-97917200D02*
X149753809Y-97964819D01*
X149753809Y-97964819D02*
X149515714Y-97964819D01*
X150420476Y-96964819D02*
X151039523Y-96964819D01*
X151039523Y-96964819D02*
X150706190Y-97345771D01*
X150706190Y-97345771D02*
X150849047Y-97345771D01*
X150849047Y-97345771D02*
X150944285Y-97393390D01*
X150944285Y-97393390D02*
X150991904Y-97441009D01*
X150991904Y-97441009D02*
X151039523Y-97536247D01*
X151039523Y-97536247D02*
X151039523Y-97774342D01*
X151039523Y-97774342D02*
X150991904Y-97869580D01*
X150991904Y-97869580D02*
X150944285Y-97917200D01*
X150944285Y-97917200D02*
X150849047Y-97964819D01*
X150849047Y-97964819D02*
X150563333Y-97964819D01*
X150563333Y-97964819D02*
X150468095Y-97917200D01*
X150468095Y-97917200D02*
X150420476Y-97869580D01*
X151420476Y-97060057D02*
X151468095Y-97012438D01*
X151468095Y-97012438D02*
X151563333Y-96964819D01*
X151563333Y-96964819D02*
X151801428Y-96964819D01*
X151801428Y-96964819D02*
X151896666Y-97012438D01*
X151896666Y-97012438D02*
X151944285Y-97060057D01*
X151944285Y-97060057D02*
X151991904Y-97155295D01*
X151991904Y-97155295D02*
X151991904Y-97250533D01*
X151991904Y-97250533D02*
X151944285Y-97393390D01*
X151944285Y-97393390D02*
X151372857Y-97964819D01*
X151372857Y-97964819D02*
X151991904Y-97964819D01*
X194315506Y-83379441D02*
X194315506Y-82379441D01*
X194315506Y-82379441D02*
X194553601Y-82379441D01*
X194553601Y-82379441D02*
X194696458Y-82427060D01*
X194696458Y-82427060D02*
X194791696Y-82522298D01*
X194791696Y-82522298D02*
X194839315Y-82617536D01*
X194839315Y-82617536D02*
X194886934Y-82808012D01*
X194886934Y-82808012D02*
X194886934Y-82950869D01*
X194886934Y-82950869D02*
X194839315Y-83141345D01*
X194839315Y-83141345D02*
X194791696Y-83236583D01*
X194791696Y-83236583D02*
X194696458Y-83331822D01*
X194696458Y-83331822D02*
X194553601Y-83379441D01*
X194553601Y-83379441D02*
X194315506Y-83379441D01*
X195839315Y-83379441D02*
X195267887Y-83379441D01*
X195553601Y-83379441D02*
X195553601Y-82379441D01*
X195553601Y-82379441D02*
X195458363Y-82522298D01*
X195458363Y-82522298D02*
X195363125Y-82617536D01*
X195363125Y-82617536D02*
X195267887Y-82665155D01*
X196172649Y-82379441D02*
X196839315Y-82379441D01*
X196839315Y-82379441D02*
X196410744Y-83379441D01*
X124649047Y-107791009D02*
X124791904Y-107838628D01*
X124791904Y-107838628D02*
X124839523Y-107886247D01*
X124839523Y-107886247D02*
X124887142Y-107981485D01*
X124887142Y-107981485D02*
X124887142Y-108124342D01*
X124887142Y-108124342D02*
X124839523Y-108219580D01*
X124839523Y-108219580D02*
X124791904Y-108267200D01*
X124791904Y-108267200D02*
X124696666Y-108314819D01*
X124696666Y-108314819D02*
X124315714Y-108314819D01*
X124315714Y-108314819D02*
X124315714Y-107314819D01*
X124315714Y-107314819D02*
X124649047Y-107314819D01*
X124649047Y-107314819D02*
X124744285Y-107362438D01*
X124744285Y-107362438D02*
X124791904Y-107410057D01*
X124791904Y-107410057D02*
X124839523Y-107505295D01*
X124839523Y-107505295D02*
X124839523Y-107600533D01*
X124839523Y-107600533D02*
X124791904Y-107695771D01*
X124791904Y-107695771D02*
X124744285Y-107743390D01*
X124744285Y-107743390D02*
X124649047Y-107791009D01*
X124649047Y-107791009D02*
X124315714Y-107791009D01*
X125220476Y-107314819D02*
X125887142Y-107314819D01*
X125887142Y-107314819D02*
X125220476Y-108314819D01*
X125220476Y-108314819D02*
X125887142Y-108314819D01*
X126791904Y-108314819D02*
X126220476Y-108314819D01*
X126506190Y-108314819D02*
X126506190Y-107314819D01*
X126506190Y-107314819D02*
X126410952Y-107457676D01*
X126410952Y-107457676D02*
X126315714Y-107552914D01*
X126315714Y-107552914D02*
X126220476Y-107600533D01*
X121339048Y-112593866D02*
X122100953Y-112593866D01*
X121720000Y-112974819D02*
X121720000Y-112212914D01*
X194348214Y-91364819D02*
X194348214Y-90364819D01*
X194348214Y-90364819D02*
X194586309Y-90364819D01*
X194586309Y-90364819D02*
X194729166Y-90412438D01*
X194729166Y-90412438D02*
X194824404Y-90507676D01*
X194824404Y-90507676D02*
X194872023Y-90602914D01*
X194872023Y-90602914D02*
X194919642Y-90793390D01*
X194919642Y-90793390D02*
X194919642Y-90936247D01*
X194919642Y-90936247D02*
X194872023Y-91126723D01*
X194872023Y-91126723D02*
X194824404Y-91221961D01*
X194824404Y-91221961D02*
X194729166Y-91317200D01*
X194729166Y-91317200D02*
X194586309Y-91364819D01*
X194586309Y-91364819D02*
X194348214Y-91364819D01*
X195872023Y-91364819D02*
X195300595Y-91364819D01*
X195586309Y-91364819D02*
X195586309Y-90364819D01*
X195586309Y-90364819D02*
X195491071Y-90507676D01*
X195491071Y-90507676D02*
X195395833Y-90602914D01*
X195395833Y-90602914D02*
X195300595Y-90650533D01*
X196348214Y-91364819D02*
X196538690Y-91364819D01*
X196538690Y-91364819D02*
X196633928Y-91317200D01*
X196633928Y-91317200D02*
X196681547Y-91269580D01*
X196681547Y-91269580D02*
X196776785Y-91126723D01*
X196776785Y-91126723D02*
X196824404Y-90936247D01*
X196824404Y-90936247D02*
X196824404Y-90555295D01*
X196824404Y-90555295D02*
X196776785Y-90460057D01*
X196776785Y-90460057D02*
X196729166Y-90412438D01*
X196729166Y-90412438D02*
X196633928Y-90364819D01*
X196633928Y-90364819D02*
X196443452Y-90364819D01*
X196443452Y-90364819D02*
X196348214Y-90412438D01*
X196348214Y-90412438D02*
X196300595Y-90460057D01*
X196300595Y-90460057D02*
X196252976Y-90555295D01*
X196252976Y-90555295D02*
X196252976Y-90793390D01*
X196252976Y-90793390D02*
X196300595Y-90888628D01*
X196300595Y-90888628D02*
X196348214Y-90936247D01*
X196348214Y-90936247D02*
X196443452Y-90983866D01*
X196443452Y-90983866D02*
X196633928Y-90983866D01*
X196633928Y-90983866D02*
X196729166Y-90936247D01*
X196729166Y-90936247D02*
X196776785Y-90888628D01*
X196776785Y-90888628D02*
X196824404Y-90793390D01*
D11*
%TO.C,+1*%
X136355000Y-112005000D02*
X136355000Y-114765000D01*
X136355000Y-114765000D02*
X141655000Y-114765000D01*
X137305000Y-111692358D02*
X137305000Y-112005000D01*
X137305000Y-120765000D02*
X137305000Y-114765000D01*
X138165000Y-111692358D02*
X138165000Y-112005000D01*
X138165000Y-114765000D02*
X138165000Y-120765000D01*
X138165000Y-120765000D02*
X137305000Y-120765000D01*
X139005000Y-112005000D02*
X139005000Y-114765000D01*
X139845000Y-111775000D02*
X139845000Y-112005000D01*
X140275000Y-109345000D02*
X141545000Y-109345000D01*
X140705000Y-111775000D02*
X140705000Y-112005000D01*
X141545000Y-109345000D02*
X141545000Y-110615000D01*
X141655000Y-112005000D02*
X136355000Y-112005000D01*
X141655000Y-114765000D02*
X141655000Y-112005000D01*
X140705000Y-114765000D02*
X139845000Y-114765000D01*
X139845000Y-120765000D01*
X140705000Y-120765000D01*
X140705000Y-114765000D01*
G36*
X140705000Y-114765000D02*
G01*
X139845000Y-114765000D01*
X139845000Y-120765000D01*
X140705000Y-120765000D01*
X140705000Y-114765000D01*
G37*
%TO.C,D7*%
X119779314Y-92843984D02*
X119779314Y-95528984D01*
X119779314Y-95528984D02*
X121699314Y-95528984D01*
X121699314Y-95528984D02*
X121699314Y-92843984D01*
%TO.C,R13*%
X116322936Y-109025000D02*
X116777064Y-109025000D01*
X116322936Y-110495000D02*
X116777064Y-110495000D01*
%TO.C,D33*%
X155650000Y-39973316D02*
X155650000Y-43063316D01*
X155650000Y-39973486D02*
G75*
G02*
X161200000Y-41518316I2560000J-1544830D01*
G01*
X161200000Y-41518316D02*
G75*
G02*
X155650000Y-43063146I-2990000J0D01*
G01*
X160710000Y-41518316D02*
G75*
G02*
X155710000Y-41518316I-2500000J0D01*
G01*
X155710000Y-41518316D02*
G75*
G02*
X160710000Y-41518316I2500000J0D01*
G01*
%TO.C,R9*%
X111912936Y-109025000D02*
X112367064Y-109025000D01*
X111912936Y-110495000D02*
X112367064Y-110495000D01*
%TO.C,R11*%
X111912936Y-114925000D02*
X112367064Y-114925000D01*
X111912936Y-116395000D02*
X112367064Y-116395000D01*
%TO.C,R1*%
X103092936Y-109025000D02*
X103547064Y-109025000D01*
X103092936Y-110495000D02*
X103547064Y-110495000D01*
%TO.C,R16*%
X116322936Y-117875000D02*
X116777064Y-117875000D01*
X116322936Y-119345000D02*
X116777064Y-119345000D01*
%TO.C,SW1*%
X181937500Y-110750000D02*
X181937500Y-112250000D01*
X183187500Y-114750000D02*
X187687500Y-114750000D01*
X187687500Y-108250000D02*
X183187500Y-108250000D01*
X188937500Y-112250000D02*
X188937500Y-110750000D01*
%TO.C,D49*%
X178080656Y-39971364D02*
X178080656Y-43061364D01*
X178080656Y-39971534D02*
G75*
G02*
X183630656Y-41516364I2560000J-1544830D01*
G01*
X183630656Y-41516364D02*
G75*
G02*
X178080656Y-43061194I-2990000J0D01*
G01*
X183140656Y-41516364D02*
G75*
G02*
X178140656Y-41516364I-2500000J0D01*
G01*
X178140656Y-41516364D02*
G75*
G02*
X183140656Y-41516364I2500000J0D01*
G01*
%TO.C,D51*%
X185500173Y-47449478D02*
X185500173Y-50539478D01*
X185500173Y-47449648D02*
G75*
G02*
X191050173Y-48994478I2560000J-1544830D01*
G01*
X191050173Y-48994478D02*
G75*
G02*
X185500173Y-50539308I-2990000J0D01*
G01*
X190560173Y-48994478D02*
G75*
G02*
X185560173Y-48994478I-2500000J0D01*
G01*
X185560173Y-48994478D02*
G75*
G02*
X190560173Y-48994478I2500000J0D01*
G01*
%TO.C,D30*%
X148170000Y-84985000D02*
X148170000Y-88075000D01*
X148170000Y-84985170D02*
G75*
G02*
X153720000Y-86530000I2560000J-1544830D01*
G01*
X153720000Y-86530000D02*
G75*
G02*
X148170000Y-88074830I-2990000J0D01*
G01*
X153230000Y-86530000D02*
G75*
G02*
X148230000Y-86530000I-2500000J0D01*
G01*
X148230000Y-86530000D02*
G75*
G02*
X153230000Y-86530000I2500000J0D01*
G01*
%TO.C,D18*%
X127690000Y-72540000D02*
X127690000Y-74460000D01*
X127690000Y-74460000D02*
X130375000Y-74460000D01*
X130375000Y-72540000D02*
X127690000Y-72540000D01*
%TO.C,D52*%
X185500173Y-62581162D02*
X185500173Y-65671162D01*
X185500173Y-62581332D02*
G75*
G02*
X191050173Y-64126162I2560000J-1544830D01*
G01*
X191050173Y-64126162D02*
G75*
G02*
X185500173Y-65670992I-2990000J0D01*
G01*
X190560173Y-64126162D02*
G75*
G02*
X185560173Y-64126162I-2500000J0D01*
G01*
X185560173Y-64126162D02*
G75*
G02*
X190560173Y-64126162I2500000J0D01*
G01*
%TO.C,D15*%
X127752500Y-62040000D02*
X127752500Y-63960000D01*
X127752500Y-63960000D02*
X130437500Y-63960000D01*
X130437500Y-62040000D02*
X127752500Y-62040000D01*
%TO.C,D28*%
X148170000Y-70045000D02*
X148170000Y-73135000D01*
X148170000Y-70045170D02*
G75*
G02*
X153720000Y-71590000I2560000J-1544830D01*
G01*
X153720000Y-71590000D02*
G75*
G02*
X148170000Y-73134830I-2990000J0D01*
G01*
X153230000Y-71590000D02*
G75*
G02*
X148230000Y-71590000I-2500000J0D01*
G01*
X148230000Y-71590000D02*
G75*
G02*
X153230000Y-71590000I2500000J0D01*
G01*
%TO.C,D20*%
X127657292Y-77883081D02*
X127657292Y-79803081D01*
X127657292Y-79803081D02*
X130342292Y-79803081D01*
X130342292Y-77883081D02*
X127657292Y-77883081D01*
%TO.C,D43*%
X133265327Y-99896270D02*
X133265327Y-102986270D01*
X133265327Y-99896440D02*
G75*
G02*
X138815327Y-101441270I2560000J-1544830D01*
G01*
X138815327Y-101441270D02*
G75*
G02*
X133265327Y-102986100I-2990000J0D01*
G01*
X138325327Y-101441270D02*
G75*
G02*
X133325327Y-101441270I-2500000J0D01*
G01*
X133325327Y-101441270D02*
G75*
G02*
X138325327Y-101441270I2500000J0D01*
G01*
%TO.C,D14*%
X193813165Y-76060384D02*
X193813165Y-77980384D01*
X193813165Y-77980384D02*
X196498165Y-77980384D01*
X196498165Y-76060384D02*
X193813165Y-76060384D01*
%TO.C,D53*%
X185500173Y-70051162D02*
X185500173Y-73141162D01*
X185500173Y-70051332D02*
G75*
G02*
X191050173Y-71596162I2560000J-1544830D01*
G01*
X191050173Y-71596162D02*
G75*
G02*
X185500173Y-73140992I-2990000J0D01*
G01*
X190560173Y-71596162D02*
G75*
G02*
X185560173Y-71596162I-2500000J0D01*
G01*
X185560173Y-71596162D02*
G75*
G02*
X190560173Y-71596162I2500000J0D01*
G01*
%TO.C,D50*%
X185500173Y-39979478D02*
X185500173Y-43069478D01*
X185500173Y-39979648D02*
G75*
G02*
X191050173Y-41524478I2560000J-1544830D01*
G01*
X191050173Y-41524478D02*
G75*
G02*
X185500173Y-43069308I-2990000J0D01*
G01*
X190560173Y-41524478D02*
G75*
G02*
X185560173Y-41524478I-2500000J0D01*
G01*
X185560173Y-41524478D02*
G75*
G02*
X190560173Y-41524478I2500000J0D01*
G01*
%TO.C,D42*%
X133265327Y-92426270D02*
X133265327Y-95516270D01*
X133265327Y-92426440D02*
G75*
G02*
X138815327Y-93971270I2560000J-1544830D01*
G01*
X138815327Y-93971270D02*
G75*
G02*
X133265327Y-95516100I-2990000J0D01*
G01*
X138325327Y-93971270D02*
G75*
G02*
X133325327Y-93971270I-2500000J0D01*
G01*
X133325327Y-93971270D02*
G75*
G02*
X138325327Y-93971270I2500000J0D01*
G01*
%TO.C,R4*%
X103092936Y-117875000D02*
X103547064Y-117875000D01*
X103092936Y-119345000D02*
X103547064Y-119345000D01*
%TO.C,D55*%
X185500173Y-84991162D02*
X185500173Y-88081162D01*
X185500173Y-84991332D02*
G75*
G02*
X191050173Y-86536162I2560000J-1544830D01*
G01*
X191050173Y-86536162D02*
G75*
G02*
X185500173Y-88080992I-2990000J0D01*
G01*
X190560173Y-86536162D02*
G75*
G02*
X185560173Y-86536162I-2500000J0D01*
G01*
X185560173Y-86536162D02*
G75*
G02*
X190560173Y-86536162I2500000J0D01*
G01*
%TO.C,R14*%
X116322936Y-111975000D02*
X116777064Y-111975000D01*
X116322936Y-113445000D02*
X116777064Y-113445000D01*
%TO.C,D44*%
X170367245Y-92499919D02*
X170367245Y-95589919D01*
X170367245Y-92500089D02*
G75*
G02*
X175917245Y-94044919I2560000J-1544830D01*
G01*
X175917245Y-94044919D02*
G75*
G02*
X170367245Y-95589749I-2990000J0D01*
G01*
X175427245Y-94044919D02*
G75*
G02*
X170427245Y-94044919I-2500000J0D01*
G01*
X170427245Y-94044919D02*
G75*
G02*
X175427245Y-94044919I2500000J0D01*
G01*
%TO.C,R8*%
X107502936Y-117875000D02*
X107957064Y-117875000D01*
X107502936Y-119345000D02*
X107957064Y-119345000D01*
%TO.C,D24*%
X140690000Y-99925000D02*
X140690000Y-103015000D01*
X140690000Y-99925170D02*
G75*
G02*
X146240000Y-101470000I2560000J-1544830D01*
G01*
X146240000Y-101470000D02*
G75*
G02*
X140690000Y-103014830I-2990000J0D01*
G01*
X145750000Y-101470000D02*
G75*
G02*
X140750000Y-101470000I-2500000J0D01*
G01*
X140750000Y-101470000D02*
G75*
G02*
X145750000Y-101470000I2500000J0D01*
G01*
%TO.C,D4*%
X109893030Y-92916243D02*
X109893030Y-95601243D01*
X109893030Y-95601243D02*
X111813030Y-95601243D01*
X111813030Y-95601243D02*
X111813030Y-92916243D01*
%TO.C,SW4*%
X182000000Y-119750000D02*
X182000000Y-121250000D01*
X183250000Y-123750000D02*
X187750000Y-123750000D01*
X187750000Y-117250000D02*
X183250000Y-117250000D01*
X189000000Y-121250000D02*
X189000000Y-119750000D01*
%TO.C,D13*%
X127752500Y-56540000D02*
X127752500Y-58460000D01*
X127752500Y-58460000D02*
X130437500Y-58460000D01*
X130437500Y-56540000D02*
X127752500Y-56540000D01*
%TO.C,Q6*%
X177150000Y-112940000D02*
X178670000Y-112940000D01*
X177150000Y-112990000D02*
X177150000Y-112940000D01*
X177150000Y-114890000D02*
X177150000Y-114110000D01*
X177150000Y-116060000D02*
X177150000Y-116010000D01*
X178670000Y-112940000D02*
X178670000Y-113940000D01*
X178670000Y-115060000D02*
X178670000Y-116060000D01*
X178670000Y-116060000D02*
X177150000Y-116060000D01*
X176850000Y-114450000D02*
X176370000Y-114450000D01*
X176610000Y-114120000D01*
X176850000Y-114450000D01*
G36*
X176850000Y-114450000D02*
G01*
X176370000Y-114450000D01*
X176610000Y-114120000D01*
X176850000Y-114450000D01*
G37*
%TO.C,D29*%
X148170000Y-77515000D02*
X148170000Y-80605000D01*
X148170000Y-77515170D02*
G75*
G02*
X153720000Y-79060000I2560000J-1544830D01*
G01*
X153720000Y-79060000D02*
G75*
G02*
X148170000Y-80604830I-2990000J0D01*
G01*
X153230000Y-79060000D02*
G75*
G02*
X148230000Y-79060000I-2500000J0D01*
G01*
X148230000Y-79060000D02*
G75*
G02*
X153230000Y-79060000I2500000J0D01*
G01*
%TO.C,D1*%
X100040000Y-92937500D02*
X100040000Y-95622500D01*
X100040000Y-95622500D02*
X101960000Y-95622500D01*
X101960000Y-95622500D02*
X101960000Y-92937500D01*
%TO.C,D27*%
X148170000Y-62575000D02*
X148170000Y-65665000D01*
X148170000Y-62575170D02*
G75*
G02*
X153720000Y-64120000I2560000J-1544830D01*
G01*
X153720000Y-64120000D02*
G75*
G02*
X148170000Y-65664830I-2990000J0D01*
G01*
X153230000Y-64120000D02*
G75*
G02*
X148230000Y-64120000I-2500000J0D01*
G01*
X148230000Y-64120000D02*
G75*
G02*
X153230000Y-64120000I2500000J0D01*
G01*
%TO.C,D31*%
X148170000Y-92455000D02*
X148170000Y-95545000D01*
X148170000Y-92455170D02*
G75*
G02*
X153720000Y-94000000I2560000J-1544830D01*
G01*
X153720000Y-94000000D02*
G75*
G02*
X148170000Y-95544830I-2990000J0D01*
G01*
X153230000Y-94000000D02*
G75*
G02*
X148230000Y-94000000I-2500000J0D01*
G01*
X148230000Y-94000000D02*
G75*
G02*
X153230000Y-94000000I2500000J0D01*
G01*
%TO.C,D25*%
X148170000Y-39973316D02*
X148170000Y-43063316D01*
X148170000Y-39973486D02*
G75*
G02*
X153720000Y-41518316I2560000J-1544830D01*
G01*
X153720000Y-41518316D02*
G75*
G02*
X148170000Y-43063146I-2990000J0D01*
G01*
X153230000Y-41518316D02*
G75*
G02*
X148230000Y-41518316I-2500000J0D01*
G01*
X148230000Y-41518316D02*
G75*
G02*
X153230000Y-41518316I2500000J0D01*
G01*
%TO.C,Q2*%
X172240000Y-112940000D02*
X173760000Y-112940000D01*
X172240000Y-112990000D02*
X172240000Y-112940000D01*
X172240000Y-114890000D02*
X172240000Y-114110000D01*
X172240000Y-116060000D02*
X172240000Y-116010000D01*
X173760000Y-112940000D02*
X173760000Y-113940000D01*
X173760000Y-115060000D02*
X173760000Y-116060000D01*
X173760000Y-116060000D02*
X172240000Y-116060000D01*
X171940000Y-114450000D02*
X171460000Y-114450000D01*
X171700000Y-114120000D01*
X171940000Y-114450000D01*
G36*
X171940000Y-114450000D02*
G01*
X171460000Y-114450000D01*
X171700000Y-114120000D01*
X171940000Y-114450000D01*
G37*
%TO.C,R5*%
X107502936Y-109025000D02*
X107957064Y-109025000D01*
X107502936Y-110495000D02*
X107957064Y-110495000D01*
%TO.C,R3*%
X103092936Y-114925000D02*
X103547064Y-114925000D01*
X103092936Y-116395000D02*
X103547064Y-116395000D01*
%TO.C,D10*%
X193815000Y-53570000D02*
X193815000Y-55490000D01*
X193815000Y-55490000D02*
X196500000Y-55490000D01*
X196500000Y-53570000D02*
X193815000Y-53570000D01*
%TO.C,D6*%
X116504942Y-92867887D02*
X116504942Y-95552887D01*
X116504942Y-95552887D02*
X118424942Y-95552887D01*
X118424942Y-95552887D02*
X118424942Y-92867887D01*
%TO.C,D12*%
X193815000Y-68510000D02*
X193815000Y-70430000D01*
X193815000Y-70430000D02*
X196500000Y-70430000D01*
X196500000Y-68510000D02*
X193815000Y-68510000D01*
%TO.C,J2*%
X118170000Y-49690000D02*
X118170000Y-85310000D01*
X118170000Y-49690000D02*
X120830000Y-49690000D01*
X118170000Y-85310000D02*
X120830000Y-85310000D01*
X119500000Y-47090000D02*
X120830000Y-47090000D01*
X120830000Y-47090000D02*
X120830000Y-48420000D01*
X120830000Y-49690000D02*
X120830000Y-85310000D01*
%TO.C,D37*%
X140689772Y-85011557D02*
X140689772Y-88101557D01*
X140689772Y-85011727D02*
G75*
G02*
X146239772Y-86556557I2560000J-1544830D01*
G01*
X146239772Y-86556557D02*
G75*
G02*
X140689772Y-88101387I-2990000J0D01*
G01*
X145749772Y-86556557D02*
G75*
G02*
X140749772Y-86556557I-2500000J0D01*
G01*
X140749772Y-86556557D02*
G75*
G02*
X145749772Y-86556557I2500000J0D01*
G01*
%TO.C,D41*%
X163130000Y-39973316D02*
X163130000Y-43063316D01*
X163130000Y-39973486D02*
G75*
G02*
X168680000Y-41518316I2560000J-1544830D01*
G01*
X168680000Y-41518316D02*
G75*
G02*
X163130000Y-43063146I-2990000J0D01*
G01*
X168190000Y-41518316D02*
G75*
G02*
X163190000Y-41518316I-2500000J0D01*
G01*
X163190000Y-41518316D02*
G75*
G02*
X168190000Y-41518316I2500000J0D01*
G01*
%TO.C,J1*%
X104670000Y-49650000D02*
X104670000Y-85270000D01*
X104670000Y-49650000D02*
X107330000Y-49650000D01*
X104670000Y-85270000D02*
X107330000Y-85270000D01*
X106000000Y-47050000D02*
X107330000Y-47050000D01*
X107330000Y-47050000D02*
X107330000Y-48380000D01*
X107330000Y-49650000D02*
X107330000Y-85270000D01*
%TO.C,Q1*%
X172240000Y-108490000D02*
X173760000Y-108490000D01*
X172240000Y-108540000D02*
X172240000Y-108490000D01*
X172240000Y-110440000D02*
X172240000Y-109660000D01*
X172240000Y-111610000D02*
X172240000Y-111560000D01*
X173760000Y-108490000D02*
X173760000Y-109490000D01*
X173760000Y-110610000D02*
X173760000Y-111610000D01*
X173760000Y-111610000D02*
X172240000Y-111610000D01*
X171940000Y-110000000D02*
X171460000Y-110000000D01*
X171700000Y-109670000D01*
X171940000Y-110000000D01*
G36*
X171940000Y-110000000D02*
G01*
X171460000Y-110000000D01*
X171700000Y-109670000D01*
X171940000Y-110000000D01*
G37*
%TO.C,SW2*%
X156890000Y-117640000D02*
X167110000Y-117640000D01*
X167110000Y-120360000D01*
X156890000Y-120360000D01*
X156890000Y-117640000D01*
%TO.C,D21*%
X133240213Y-85012974D02*
X133240213Y-88102974D01*
X133240213Y-85013144D02*
G75*
G02*
X138790213Y-86557974I2560000J-1544830D01*
G01*
X138790213Y-86557974D02*
G75*
G02*
X133240213Y-88102804I-2990000J0D01*
G01*
X138300213Y-86557974D02*
G75*
G02*
X133300213Y-86557974I-2500000J0D01*
G01*
X133300213Y-86557974D02*
G75*
G02*
X138300213Y-86557974I2500000J0D01*
G01*
%TO.C,D40*%
X177976691Y-99960690D02*
X177976691Y-103050690D01*
X177976691Y-99960860D02*
G75*
G02*
X183526691Y-101505690I2560000J-1544830D01*
G01*
X183526691Y-101505690D02*
G75*
G02*
X177976691Y-103050520I-2990000J0D01*
G01*
X183036691Y-101505690D02*
G75*
G02*
X178036691Y-101505690I-2500000J0D01*
G01*
X178036691Y-101505690D02*
G75*
G02*
X183036691Y-101505690I2500000J0D01*
G01*
%TO.C,D54*%
X185500173Y-77521162D02*
X185500173Y-80611162D01*
X185500173Y-77521332D02*
G75*
G02*
X191050173Y-79066162I2560000J-1544830D01*
G01*
X191050173Y-79066162D02*
G75*
G02*
X185500173Y-80610992I-2990000J0D01*
G01*
X190560173Y-79066162D02*
G75*
G02*
X185560173Y-79066162I-2500000J0D01*
G01*
X185560173Y-79066162D02*
G75*
G02*
X190560173Y-79066162I2500000J0D01*
G01*
%TO.C,C1*%
X145862500Y-112652500D02*
X146650000Y-112652500D01*
X146256250Y-112258750D02*
X146256250Y-113046250D01*
X146890000Y-112154437D02*
X146890000Y-113440000D01*
X146890000Y-112154437D02*
X147954437Y-111090000D01*
X146890000Y-116845563D02*
X146890000Y-115560000D01*
X146890000Y-116845563D02*
X147954437Y-117910000D01*
X147954437Y-111090000D02*
X153710000Y-111090000D01*
X147954437Y-117910000D02*
X153710000Y-117910000D01*
X153710000Y-111090000D02*
X153710000Y-113440000D01*
X153710000Y-117910000D02*
X153710000Y-115560000D01*
%TO.C,D11*%
X193815000Y-61040000D02*
X193815000Y-62960000D01*
X193815000Y-62960000D02*
X196500000Y-62960000D01*
X196500000Y-61040000D02*
X193815000Y-61040000D01*
%TO.C,D46*%
X177956691Y-84990690D02*
X177956691Y-88080690D01*
X177956691Y-84990860D02*
G75*
G02*
X183506691Y-86535690I2560000J-1544830D01*
G01*
X183506691Y-86535690D02*
G75*
G02*
X177956691Y-88080520I-2990000J0D01*
G01*
X183016691Y-86535690D02*
G75*
G02*
X178016691Y-86535690I-2500000J0D01*
G01*
X178016691Y-86535690D02*
G75*
G02*
X183016691Y-86535690I2500000J0D01*
G01*
%TO.C,D38*%
X170351536Y-85005734D02*
X170351536Y-88095734D01*
X170351536Y-85005904D02*
G75*
G02*
X175901536Y-86550734I2560000J-1544830D01*
G01*
X175901536Y-86550734D02*
G75*
G02*
X170351536Y-88095564I-2990000J0D01*
G01*
X175411536Y-86550734D02*
G75*
G02*
X170411536Y-86550734I-2500000J0D01*
G01*
X170411536Y-86550734D02*
G75*
G02*
X175411536Y-86550734I2500000J0D01*
G01*
%TO.C,D16*%
X127752500Y-67040000D02*
X127752500Y-68960000D01*
X127752500Y-68960000D02*
X130437500Y-68960000D01*
X130437500Y-67040000D02*
X127752500Y-67040000D01*
%TO.C,D2*%
X103313984Y-92936956D02*
X103313984Y-95621956D01*
X103313984Y-95621956D02*
X105233984Y-95621956D01*
X105233984Y-95621956D02*
X105233984Y-92936956D01*
%TO.C,Q3*%
X172240000Y-117390000D02*
X173760000Y-117390000D01*
X172240000Y-117440000D02*
X172240000Y-117390000D01*
X172240000Y-119340000D02*
X172240000Y-118560000D01*
X172240000Y-120510000D02*
X172240000Y-120460000D01*
X173760000Y-117390000D02*
X173760000Y-118390000D01*
X173760000Y-119510000D02*
X173760000Y-120510000D01*
X173760000Y-120510000D02*
X172240000Y-120510000D01*
X171940000Y-118900000D02*
X171460000Y-118900000D01*
X171700000Y-118570000D01*
X171940000Y-118900000D01*
G36*
X171940000Y-118900000D02*
G01*
X171460000Y-118900000D01*
X171700000Y-118570000D01*
X171940000Y-118900000D01*
G37*
%TO.C,D23*%
X185488347Y-55010674D02*
X185488347Y-58100674D01*
X185488347Y-55010844D02*
G75*
G02*
X191038347Y-56555674I2560000J-1544830D01*
G01*
X191038347Y-56555674D02*
G75*
G02*
X185488347Y-58100504I-2990000J0D01*
G01*
X190548347Y-56555674D02*
G75*
G02*
X185548347Y-56555674I-2500000J0D01*
G01*
X185548347Y-56555674D02*
G75*
G02*
X190548347Y-56555674I2500000J0D01*
G01*
%TO.C,D8*%
X123099314Y-92843984D02*
X123099314Y-95528984D01*
X123099314Y-95528984D02*
X125019314Y-95528984D01*
X125019314Y-95528984D02*
X125019314Y-92843984D01*
%TO.C,D47*%
X185416724Y-92447526D02*
X185416724Y-95537526D01*
X185416724Y-92447696D02*
G75*
G02*
X190966724Y-93992526I2560000J-1544830D01*
G01*
X190966724Y-93992526D02*
G75*
G02*
X185416724Y-95537356I-2990000J0D01*
G01*
X190476724Y-93992526D02*
G75*
G02*
X185476724Y-93992526I-2500000J0D01*
G01*
X185476724Y-93992526D02*
G75*
G02*
X190476724Y-93992526I2500000J0D01*
G01*
%TO.C,D22*%
X148155046Y-54964405D02*
X148155046Y-58054405D01*
X148155046Y-54964575D02*
G75*
G02*
X153705046Y-56509405I2560000J-1544830D01*
G01*
X153705046Y-56509405D02*
G75*
G02*
X148155046Y-58054235I-2990000J0D01*
G01*
X153215046Y-56509405D02*
G75*
G02*
X148215046Y-56509405I-2500000J0D01*
G01*
X148215046Y-56509405D02*
G75*
G02*
X153215046Y-56509405I2500000J0D01*
G01*
%TO.C,D26*%
X148170000Y-47443316D02*
X148170000Y-50533316D01*
X148170000Y-47443486D02*
G75*
G02*
X153720000Y-48988316I2560000J-1544830D01*
G01*
X153720000Y-48988316D02*
G75*
G02*
X148170000Y-50533146I-2990000J0D01*
G01*
X153230000Y-48988316D02*
G75*
G02*
X148230000Y-48988316I-2500000J0D01*
G01*
X148230000Y-48988316D02*
G75*
G02*
X153230000Y-48988316I2500000J0D01*
G01*
%TO.C,Q4*%
X172240000Y-121840000D02*
X173760000Y-121840000D01*
X172240000Y-121890000D02*
X172240000Y-121840000D01*
X172240000Y-123790000D02*
X172240000Y-123010000D01*
X172240000Y-124960000D02*
X172240000Y-124910000D01*
X173760000Y-121840000D02*
X173760000Y-122840000D01*
X173760000Y-123960000D02*
X173760000Y-124960000D01*
X173760000Y-124960000D02*
X172240000Y-124960000D01*
X171940000Y-123350000D02*
X171460000Y-123350000D01*
X171700000Y-123020000D01*
X171940000Y-123350000D01*
G36*
X171940000Y-123350000D02*
G01*
X171460000Y-123350000D01*
X171700000Y-123020000D01*
X171940000Y-123350000D01*
G37*
%TO.C,R2*%
X103092936Y-111975000D02*
X103547064Y-111975000D01*
X103092936Y-113445000D02*
X103547064Y-113445000D01*
%TO.C,R7*%
X107502936Y-114925000D02*
X107957064Y-114925000D01*
X107502936Y-116395000D02*
X107957064Y-116395000D01*
%TO.C,SW3*%
X156890000Y-109615000D02*
X167110000Y-109615000D01*
X167110000Y-112335000D01*
X156890000Y-112335000D01*
X156890000Y-109615000D01*
%TO.C,R12*%
X111912936Y-117875000D02*
X112367064Y-117875000D01*
X111912936Y-119345000D02*
X112367064Y-119345000D01*
%TO.C,D3*%
X106599634Y-92935869D02*
X106599634Y-95620869D01*
X106599634Y-95620869D02*
X108519634Y-95620869D01*
X108519634Y-95620869D02*
X108519634Y-92935869D01*
%TO.C,D9*%
X193815000Y-45588316D02*
X193815000Y-47508316D01*
X193815000Y-47508316D02*
X196500000Y-47508316D01*
X196500000Y-45588316D02*
X193815000Y-45588316D01*
%TO.C,D39*%
X177976691Y-92490690D02*
X177976691Y-95580690D01*
X177976691Y-92490860D02*
G75*
G02*
X183526691Y-94035690I2560000J-1544830D01*
G01*
X183526691Y-94035690D02*
G75*
G02*
X177976691Y-95580520I-2990000J0D01*
G01*
X183036691Y-94035690D02*
G75*
G02*
X178036691Y-94035690I-2500000J0D01*
G01*
X178036691Y-94035690D02*
G75*
G02*
X183036691Y-94035690I2500000J0D01*
G01*
%TO.C,D45*%
X170367245Y-99969919D02*
X170367245Y-103059919D01*
X170367245Y-99970089D02*
G75*
G02*
X175917245Y-101514919I2560000J-1544830D01*
G01*
X175917245Y-101514919D02*
G75*
G02*
X170367245Y-103059749I-2990000J0D01*
G01*
X175427245Y-101514919D02*
G75*
G02*
X170427245Y-101514919I-2500000J0D01*
G01*
X170427245Y-101514919D02*
G75*
G02*
X175427245Y-101514919I2500000J0D01*
G01*
%TO.C,R15*%
X116322936Y-114925000D02*
X116777064Y-114925000D01*
X116322936Y-116395000D02*
X116777064Y-116395000D01*
%TO.C,D5*%
X113174099Y-92867887D02*
X113174099Y-95552887D01*
X113174099Y-95552887D02*
X115094099Y-95552887D01*
X115094099Y-95552887D02*
X115094099Y-92867887D01*
%TO.C,R10*%
X111912936Y-111975000D02*
X112367064Y-111975000D01*
X111912936Y-113445000D02*
X112367064Y-113445000D01*
%TO.C,D34*%
X170652326Y-39969559D02*
X170652326Y-43059559D01*
X170652326Y-39969729D02*
G75*
G02*
X176202326Y-41514559I2560000J-1544830D01*
G01*
X176202326Y-41514559D02*
G75*
G02*
X170652326Y-43059389I-2990000J0D01*
G01*
X175712326Y-41514559D02*
G75*
G02*
X170712326Y-41514559I-2500000J0D01*
G01*
X170712326Y-41514559D02*
G75*
G02*
X175712326Y-41514559I2500000J0D01*
G01*
%TO.C,Q5*%
X177150000Y-108490000D02*
X178670000Y-108490000D01*
X177150000Y-108540000D02*
X177150000Y-108490000D01*
X177150000Y-110440000D02*
X177150000Y-109660000D01*
X177150000Y-111610000D02*
X177150000Y-111560000D01*
X178670000Y-108490000D02*
X178670000Y-109490000D01*
X178670000Y-110610000D02*
X178670000Y-111610000D01*
X178670000Y-111610000D02*
X177150000Y-111610000D01*
X176850000Y-110000000D02*
X176370000Y-110000000D01*
X176610000Y-109670000D01*
X176850000Y-110000000D01*
G36*
X176850000Y-110000000D02*
G01*
X176370000Y-110000000D01*
X176610000Y-109670000D01*
X176850000Y-110000000D01*
G37*
%TO.C,D35*%
X140670000Y-92455000D02*
X140670000Y-95545000D01*
X140670000Y-92455170D02*
G75*
G02*
X146220000Y-94000000I2560000J-1544830D01*
G01*
X146220000Y-94000000D02*
G75*
G02*
X140670000Y-95544830I-2990000J0D01*
G01*
X145730000Y-94000000D02*
G75*
G02*
X140730000Y-94000000I-2500000J0D01*
G01*
X140730000Y-94000000D02*
G75*
G02*
X145730000Y-94000000I2500000J0D01*
G01*
%TO.C,D36*%
X127752500Y-51040000D02*
X127752500Y-52960000D01*
X127752500Y-52960000D02*
X130437500Y-52960000D01*
X130437500Y-51040000D02*
X127752500Y-51040000D01*
%TO.C,Q7*%
X177150000Y-117390000D02*
X178670000Y-117390000D01*
X177150000Y-117440000D02*
X177150000Y-117390000D01*
X177150000Y-119340000D02*
X177150000Y-118560000D01*
X177150000Y-120510000D02*
X177150000Y-120460000D01*
X178670000Y-117390000D02*
X178670000Y-118390000D01*
X178670000Y-119510000D02*
X178670000Y-120510000D01*
X178670000Y-120510000D02*
X177150000Y-120510000D01*
X176850000Y-118900000D02*
X176370000Y-118900000D01*
X176610000Y-118570000D01*
X176850000Y-118900000D01*
G36*
X176850000Y-118900000D02*
G01*
X176370000Y-118900000D01*
X176610000Y-118570000D01*
X176850000Y-118900000D01*
G37*
%TO.C,D48*%
X185416724Y-99917526D02*
X185416724Y-103007526D01*
X185416724Y-99917696D02*
G75*
G02*
X190966724Y-101462526I2560000J-1544830D01*
G01*
X190966724Y-101462526D02*
G75*
G02*
X185416724Y-103007356I-2990000J0D01*
G01*
X190476724Y-101462526D02*
G75*
G02*
X185476724Y-101462526I-2500000J0D01*
G01*
X185476724Y-101462526D02*
G75*
G02*
X190476724Y-101462526I2500000J0D01*
G01*
%TO.C,R6*%
X107502936Y-111975000D02*
X107957064Y-111975000D01*
X107502936Y-113445000D02*
X107957064Y-113445000D01*
%TO.C,D32*%
X148170000Y-99925000D02*
X148170000Y-103015000D01*
X148170000Y-99925170D02*
G75*
G02*
X153720000Y-101470000I2560000J-1544830D01*
G01*
X153720000Y-101470000D02*
G75*
G02*
X148170000Y-103014830I-2990000J0D01*
G01*
X153230000Y-101470000D02*
G75*
G02*
X148230000Y-101470000I-2500000J0D01*
G01*
X148230000Y-101470000D02*
G75*
G02*
X153230000Y-101470000I2500000J0D01*
G01*
%TO.C,D17*%
X193844792Y-83614622D02*
X193844792Y-85534622D01*
X193844792Y-85534622D02*
X196529792Y-85534622D01*
X196529792Y-83614622D02*
X193844792Y-83614622D01*
%TO.C,BZ1*%
X131630000Y-115060000D02*
G75*
G02*
X119430000Y-115060000I-6100000J0D01*
G01*
X119430000Y-115060000D02*
G75*
G02*
X131630000Y-115060000I6100000J0D01*
G01*
%TO.C,D19*%
X193877500Y-91600000D02*
X193877500Y-93520000D01*
X193877500Y-93520000D02*
X196562500Y-93520000D01*
X196562500Y-91600000D02*
X193877500Y-91600000D01*
%TD*%
M02*
