%TF.GenerationSoftware,KiCad,Pcbnew,9.0.6*%
%TF.CreationDate,2026-03-01T19:06:55+07:00*%
%TF.ProjectId,Circuit_and_KiCAD,43697263-7569-4745-9f61-6e645f4b6943,rev?*%
%TF.SameCoordinates,Original*%
%TF.FileFunction,Copper,L1,Top*%
%TF.FilePolarity,Positive*%
%FSLAX46Y46*%
G04 Gerber Fmt 4.6, Leading zero omitted, Abs format (unit mm)*
G04 Created by KiCad (PCBNEW 9.0.6) date 2026-03-01 19:06:55*
%MOMM*%
%LPD*%
G01*
G04 APERTURE LIST*
G04 Aperture macros list*
%AMRoundRect*
0 Rectangle with rounded corners*
0 $1 Rounding radius*
0 $2 $3 $4 $5 $6 $7 $8 $9 X,Y pos of 4 corners*
0 Add a 4 corners polygon primitive as box body*
4,1,4,$2,$3,$4,$5,$6,$7,$8,$9,$2,$3,0*
0 Add four circle primitives for the rounded corners*
1,1,$1+$1,$2,$3*
1,1,$1+$1,$4,$5*
1,1,$1+$1,$6,$7*
1,1,$1+$1,$8,$9*
0 Add four rect primitives between the rounded corners*
20,1,$1+$1,$2,$3,$4,$5,0*
20,1,$1+$1,$4,$5,$6,$7,0*
20,1,$1+$1,$6,$7,$8,$9,0*
20,1,$1+$1,$8,$9,$2,$3,0*%
G04 Aperture macros list end*
%TA.AperFunction,ComponentPad*%
%ADD10R,1.700000X1.700000*%
%TD*%
%TA.AperFunction,ComponentPad*%
%ADD11C,1.700000*%
%TD*%
%TA.AperFunction,SMDPad,CuDef*%
%ADD12RoundRect,0.243750X0.456250X-0.243750X0.456250X0.243750X-0.456250X0.243750X-0.456250X-0.243750X0*%
%TD*%
%TA.AperFunction,SMDPad,CuDef*%
%ADD13RoundRect,0.250000X-0.262500X-0.450000X0.262500X-0.450000X0.262500X0.450000X-0.262500X0.450000X0*%
%TD*%
%TA.AperFunction,ComponentPad*%
%ADD14R,1.800000X1.800000*%
%TD*%
%TA.AperFunction,ComponentPad*%
%ADD15C,1.800000*%
%TD*%
%TA.AperFunction,ComponentPad*%
%ADD16C,2.000000*%
%TD*%
%TA.AperFunction,SMDPad,CuDef*%
%ADD17RoundRect,0.243750X-0.243750X-0.456250X0.243750X-0.456250X0.243750X0.456250X-0.243750X0.456250X0*%
%TD*%
%TA.AperFunction,SMDPad,CuDef*%
%ADD18RoundRect,0.150000X-0.587500X-0.150000X0.587500X-0.150000X0.587500X0.150000X-0.587500X0.150000X0*%
%TD*%
%TA.AperFunction,ComponentPad*%
%ADD19R,1.500000X1.500000*%
%TD*%
%TA.AperFunction,ComponentPad*%
%ADD20C,1.600000*%
%TD*%
%TA.AperFunction,SMDPad,CuDef*%
%ADD21RoundRect,0.250000X-1.500000X-0.550000X1.500000X-0.550000X1.500000X0.550000X-1.500000X0.550000X0*%
%TD*%
%TA.AperFunction,ComponentPad*%
%ADD22R,2.000000X2.000000*%
%TD*%
G04 APERTURE END LIST*
D10*
%TO.P,+1,1,Pin_1*%
%TO.N,Net-(+1-Pin_1)*%
X140275000Y-110615000D03*
D11*
%TO.P,+1,2,Pin_2*%
%TO.N,Net-(+1-Pin_2)*%
X137735000Y-110615000D03*
%TD*%
D12*
%TO.P,D7,1,K*%
%TO.N,Net-(D1-K)*%
X120739314Y-94781484D03*
%TO.P,D7,2,A*%
%TO.N,Net-(D7-A)*%
X120739314Y-92906484D03*
%TD*%
D13*
%TO.P,R13,1*%
%TO.N,Net-(Q5-E)*%
X115637500Y-109760000D03*
%TO.P,R13,2*%
%TO.N,Net-(D20-A)*%
X117462500Y-109760000D03*
%TD*%
D14*
%TO.P,D33,1,K*%
%TO.N,Net-(+1-Pin_1)*%
X156940000Y-41518316D03*
D15*
%TO.P,D33,2,A*%
%TO.N,Net-(BZ1-+)*%
X159480000Y-41518316D03*
%TD*%
D13*
%TO.P,R9,1*%
%TO.N,Net-(Q1-E)*%
X111227500Y-109760000D03*
%TO.P,R9,2*%
%TO.N,Net-(D15-A)*%
X113052500Y-109760000D03*
%TD*%
%TO.P,R11,1*%
%TO.N,Net-(Q3-E)*%
X111227500Y-115660000D03*
%TO.P,R11,2*%
%TO.N,Net-(D18-A)*%
X113052500Y-115660000D03*
%TD*%
%TO.P,R1,1*%
%TO.N,Net-(D1-A)*%
X102407500Y-109760000D03*
%TO.P,R1,2*%
%TO.N,Net-(J2-Pin_5)*%
X104232500Y-109760000D03*
%TD*%
%TO.P,R16,1*%
%TO.N,Net-(Q7-C)*%
X115637500Y-118610000D03*
%TO.P,R16,2*%
%TO.N,Net-(+1-Pin_2)*%
X117462500Y-118610000D03*
%TD*%
D16*
%TO.P,SW1,1,1*%
%TO.N,Net-(J2-Pin_14)*%
X182187500Y-109250000D03*
X188687500Y-109250000D03*
%TO.P,SW1,2,2*%
%TO.N,Net-(+1-Pin_2)*%
X182187500Y-113750000D03*
X188687500Y-113750000D03*
%TD*%
D14*
%TO.P,D49,1,K*%
%TO.N,Net-(+1-Pin_1)*%
X179370656Y-41516364D03*
D15*
%TO.P,D49,2,A*%
%TO.N,Net-(BZ1-+)*%
X181910656Y-41516364D03*
%TD*%
D14*
%TO.P,D51,1,K*%
%TO.N,Net-(+1-Pin_1)*%
X186790173Y-48994478D03*
D15*
%TO.P,D51,2,A*%
%TO.N,Net-(BZ1-+)*%
X189330173Y-48994478D03*
%TD*%
D14*
%TO.P,D30,1,K*%
%TO.N,Net-(+1-Pin_1)*%
X149460000Y-86530000D03*
D15*
%TO.P,D30,2,A*%
%TO.N,Net-(BZ1-+)*%
X152000000Y-86530000D03*
%TD*%
D17*
%TO.P,D18,1,K*%
%TO.N,Net-(+1-Pin_1)*%
X128437500Y-73500000D03*
%TO.P,D18,2,A*%
%TO.N,Net-(D18-A)*%
X130312500Y-73500000D03*
%TD*%
D14*
%TO.P,D52,1,K*%
%TO.N,Net-(+1-Pin_1)*%
X186790173Y-64126162D03*
D15*
%TO.P,D52,2,A*%
%TO.N,Net-(BZ1-+)*%
X189330173Y-64126162D03*
%TD*%
D17*
%TO.P,D15,1,K*%
%TO.N,Net-(+1-Pin_1)*%
X128500000Y-63000000D03*
%TO.P,D15,2,A*%
%TO.N,Net-(D15-A)*%
X130375000Y-63000000D03*
%TD*%
D14*
%TO.P,D28,1,K*%
%TO.N,Net-(+1-Pin_1)*%
X149460000Y-71590000D03*
D15*
%TO.P,D28,2,A*%
%TO.N,Net-(BZ1-+)*%
X152000000Y-71590000D03*
%TD*%
D17*
%TO.P,D20,1,K*%
%TO.N,Net-(+1-Pin_1)*%
X128404792Y-78843081D03*
%TO.P,D20,2,A*%
%TO.N,Net-(D20-A)*%
X130279792Y-78843081D03*
%TD*%
D14*
%TO.P,D43,1,K*%
%TO.N,Net-(+1-Pin_1)*%
X134555327Y-101441270D03*
D15*
%TO.P,D43,2,A*%
%TO.N,Net-(BZ1-+)*%
X137095327Y-101441270D03*
%TD*%
D17*
%TO.P,D14,1,K*%
%TO.N,Net-(D1-K)*%
X194560665Y-77020384D03*
%TO.P,D14,2,A*%
%TO.N,Net-(D10-A)*%
X196435665Y-77020384D03*
%TD*%
D14*
%TO.P,D53,1,K*%
%TO.N,Net-(+1-Pin_1)*%
X186790173Y-71596162D03*
D15*
%TO.P,D53,2,A*%
%TO.N,Net-(BZ1-+)*%
X189330173Y-71596162D03*
%TD*%
D14*
%TO.P,D50,1,K*%
%TO.N,Net-(+1-Pin_1)*%
X186790173Y-41524478D03*
D15*
%TO.P,D50,2,A*%
%TO.N,Net-(BZ1-+)*%
X189330173Y-41524478D03*
%TD*%
D14*
%TO.P,D42,1,K*%
%TO.N,Net-(+1-Pin_1)*%
X134555327Y-93971270D03*
D15*
%TO.P,D42,2,A*%
%TO.N,Net-(BZ1-+)*%
X137095327Y-93971270D03*
%TD*%
D13*
%TO.P,R4,1*%
%TO.N,Net-(D4-A)*%
X102407500Y-118610000D03*
%TO.P,R4,2*%
%TO.N,Net-(J2-Pin_8)*%
X104232500Y-118610000D03*
%TD*%
D14*
%TO.P,D55,1,K*%
%TO.N,Net-(+1-Pin_1)*%
X186790173Y-86536162D03*
D15*
%TO.P,D55,2,A*%
%TO.N,Net-(BZ1-+)*%
X189330173Y-86536162D03*
%TD*%
D13*
%TO.P,R14,1*%
%TO.N,Net-(Q6-B)*%
X115637500Y-112710000D03*
%TO.P,R14,2*%
%TO.N,Net-(+1-Pin_1)*%
X117462500Y-112710000D03*
%TD*%
D14*
%TO.P,D44,1,K*%
%TO.N,Net-(+1-Pin_1)*%
X171657245Y-94044919D03*
D15*
%TO.P,D44,2,A*%
%TO.N,Net-(BZ1-+)*%
X174197245Y-94044919D03*
%TD*%
D13*
%TO.P,R8,1*%
%TO.N,Net-(D8-A)*%
X106817500Y-118610000D03*
%TO.P,R8,2*%
%TO.N,Net-(J2-Pin_12)*%
X108642500Y-118610000D03*
%TD*%
D14*
%TO.P,D24,1,K*%
%TO.N,Net-(+1-Pin_1)*%
X141980000Y-101470000D03*
D15*
%TO.P,D24,2,A*%
%TO.N,Net-(BZ1-+)*%
X144520000Y-101470000D03*
%TD*%
D12*
%TO.P,D4,1,K*%
%TO.N,Net-(D1-K)*%
X110853030Y-94853743D03*
%TO.P,D4,2,A*%
%TO.N,Net-(D4-A)*%
X110853030Y-92978743D03*
%TD*%
D16*
%TO.P,SW4,1,1*%
%TO.N,Net-(J2-Pin_13)*%
X182250000Y-118250000D03*
X188750000Y-118250000D03*
%TO.P,SW4,2,2*%
X182250000Y-122750000D03*
X188750000Y-122750000D03*
%TD*%
D17*
%TO.P,D13,1,K*%
%TO.N,Net-(+1-Pin_1)*%
X128500000Y-57500000D03*
%TO.P,D13,2,A*%
%TO.N,Net-(D13-A)*%
X130375000Y-57500000D03*
%TD*%
D18*
%TO.P,Q6,1,C*%
%TO.N,Net-(Q6-C)*%
X176972500Y-113550000D03*
%TO.P,Q6,2,B*%
%TO.N,Net-(Q6-B)*%
X176972500Y-115450000D03*
%TO.P,Q6,3,E*%
%TO.N,Net-(Q6-E)*%
X178847500Y-114500000D03*
%TD*%
D14*
%TO.P,D29,1,K*%
%TO.N,Net-(+1-Pin_1)*%
X149460000Y-79060000D03*
D15*
%TO.P,D29,2,A*%
%TO.N,Net-(BZ1-+)*%
X152000000Y-79060000D03*
%TD*%
D12*
%TO.P,D1,1,K*%
%TO.N,Net-(D1-K)*%
X101000000Y-94875000D03*
%TO.P,D1,2,A*%
%TO.N,Net-(D1-A)*%
X101000000Y-93000000D03*
%TD*%
D14*
%TO.P,D27,1,K*%
%TO.N,Net-(+1-Pin_1)*%
X149460000Y-64120000D03*
D15*
%TO.P,D27,2,A*%
%TO.N,Net-(BZ1-+)*%
X152000000Y-64120000D03*
%TD*%
D14*
%TO.P,D31,1,K*%
%TO.N,Net-(+1-Pin_1)*%
X149460000Y-94000000D03*
D15*
%TO.P,D31,2,A*%
%TO.N,Net-(BZ1-+)*%
X152000000Y-94000000D03*
%TD*%
D14*
%TO.P,D25,1,K*%
%TO.N,Net-(+1-Pin_1)*%
X149460000Y-41518316D03*
D15*
%TO.P,D25,2,A*%
%TO.N,Net-(BZ1-+)*%
X152000000Y-41518316D03*
%TD*%
D18*
%TO.P,Q2,1,C*%
%TO.N,Net-(+1-Pin_2)*%
X172062500Y-113550000D03*
%TO.P,Q2,2,B*%
%TO.N,Net-(J2-Pin_13)*%
X172062500Y-115450000D03*
%TO.P,Q2,3,E*%
%TO.N,Net-(Q2-E)*%
X173937500Y-114500000D03*
%TD*%
D13*
%TO.P,R5,1*%
%TO.N,Net-(D5-A)*%
X106817500Y-109760000D03*
%TO.P,R5,2*%
%TO.N,Net-(J2-Pin_9)*%
X108642500Y-109760000D03*
%TD*%
%TO.P,R3,1*%
%TO.N,Net-(D3-A)*%
X102407500Y-115660000D03*
%TO.P,R3,2*%
%TO.N,Net-(J2-Pin_7)*%
X104232500Y-115660000D03*
%TD*%
D17*
%TO.P,D10,1,K*%
%TO.N,Net-(D1-K)*%
X194562500Y-54530000D03*
%TO.P,D10,2,A*%
%TO.N,Net-(D10-A)*%
X196437500Y-54530000D03*
%TD*%
D12*
%TO.P,D6,1,K*%
%TO.N,Net-(D1-K)*%
X117464942Y-94805387D03*
%TO.P,D6,2,A*%
%TO.N,Net-(D6-A)*%
X117464942Y-92930387D03*
%TD*%
D17*
%TO.P,D12,1,K*%
%TO.N,Net-(D1-K)*%
X194562500Y-69470000D03*
%TO.P,D12,2,A*%
%TO.N,Net-(D10-A)*%
X196437500Y-69470000D03*
%TD*%
D10*
%TO.P,J2,1,Pin_1*%
%TO.N,unconnected-(J2-Pin_1-Pad1)*%
X119500000Y-48420000D03*
D11*
%TO.P,J2,2,Pin_2*%
%TO.N,Net-(D1-K)*%
X119500000Y-50960000D03*
%TO.P,J2,3,Pin_3*%
%TO.N,unconnected-(J2-Pin_3-Pad3)*%
X119500000Y-53500000D03*
%TO.P,J2,4,Pin_4*%
%TO.N,unconnected-(J2-Pin_4-Pad4)*%
X119500000Y-56040000D03*
%TO.P,J2,5,Pin_5*%
%TO.N,Net-(J2-Pin_5)*%
X119500000Y-58580000D03*
%TO.P,J2,6,Pin_6*%
%TO.N,Net-(J2-Pin_6)*%
X119500000Y-61120000D03*
%TO.P,J2,7,Pin_7*%
%TO.N,Net-(J2-Pin_7)*%
X119500000Y-63660000D03*
%TO.P,J2,8,Pin_8*%
%TO.N,Net-(J2-Pin_8)*%
X119500000Y-66200000D03*
%TO.P,J2,9,Pin_9*%
%TO.N,Net-(J2-Pin_9)*%
X119500000Y-68740000D03*
%TO.P,J2,10,Pin_10*%
%TO.N,Net-(J2-Pin_10)*%
X119500000Y-71280000D03*
%TO.P,J2,11,Pin_11*%
%TO.N,Net-(J2-Pin_11)*%
X119500000Y-73820000D03*
%TO.P,J2,12,Pin_12*%
%TO.N,Net-(J2-Pin_12)*%
X119500000Y-76360000D03*
%TO.P,J2,13,Pin_13*%
%TO.N,Net-(J2-Pin_13)*%
X119500000Y-78900000D03*
%TO.P,J2,14,Pin_14*%
%TO.N,Net-(J2-Pin_14)*%
X119500000Y-81440000D03*
%TO.P,J2,15,Pin_15*%
%TO.N,Net-(D10-A)*%
X119500000Y-83980000D03*
%TD*%
D14*
%TO.P,D37,1,K*%
%TO.N,Net-(+1-Pin_1)*%
X141979772Y-86556557D03*
D15*
%TO.P,D37,2,A*%
%TO.N,Net-(BZ1-+)*%
X144519772Y-86556557D03*
%TD*%
D14*
%TO.P,D41,1,K*%
%TO.N,Net-(+1-Pin_1)*%
X164420000Y-41518316D03*
D15*
%TO.P,D41,2,A*%
%TO.N,Net-(BZ1-+)*%
X166960000Y-41518316D03*
%TD*%
D10*
%TO.P,J1,1,Pin_1*%
%TO.N,unconnected-(J1-Pin_1-Pad1)*%
X106000000Y-48380000D03*
D11*
%TO.P,J1,2,Pin_2*%
%TO.N,unconnected-(J1-Pin_2-Pad2)*%
X106000000Y-50920000D03*
%TO.P,J1,3,Pin_3*%
%TO.N,unconnected-(J1-Pin_3-Pad3)*%
X106000000Y-53460000D03*
%TO.P,J1,4,Pin_4*%
%TO.N,unconnected-(J1-Pin_4-Pad4)*%
X106000000Y-56000000D03*
%TO.P,J1,5,Pin_5*%
%TO.N,unconnected-(J1-Pin_5-Pad5)*%
X106000000Y-58540000D03*
%TO.P,J1,6,Pin_6*%
%TO.N,unconnected-(J1-Pin_6-Pad6)*%
X106000000Y-61080000D03*
%TO.P,J1,7,Pin_7*%
%TO.N,unconnected-(J1-Pin_7-Pad7)*%
X106000000Y-63620000D03*
%TO.P,J1,8,Pin_8*%
%TO.N,unconnected-(J1-Pin_8-Pad8)*%
X106000000Y-66160000D03*
%TO.P,J1,9,Pin_9*%
%TO.N,unconnected-(J1-Pin_9-Pad9)*%
X106000000Y-68700000D03*
%TO.P,J1,10,Pin_10*%
%TO.N,unconnected-(J1-Pin_10-Pad10)*%
X106000000Y-71240000D03*
%TO.P,J1,11,Pin_11*%
%TO.N,unconnected-(J1-Pin_11-Pad11)*%
X106000000Y-73780000D03*
%TO.P,J1,12,Pin_12*%
%TO.N,unconnected-(J1-Pin_12-Pad12)*%
X106000000Y-76320000D03*
%TO.P,J1,13,Pin_13*%
%TO.N,unconnected-(J1-Pin_13-Pad13)*%
X106000000Y-78860000D03*
%TO.P,J1,14,Pin_14*%
%TO.N,unconnected-(J1-Pin_14-Pad14)*%
X106000000Y-81400000D03*
%TO.P,J1,15,Pin_15*%
%TO.N,unconnected-(J1-Pin_15-Pad15)*%
X106000000Y-83940000D03*
%TD*%
D18*
%TO.P,Q1,1,C*%
%TO.N,Net-(+1-Pin_2)*%
X172062500Y-109100000D03*
%TO.P,Q1,2,B*%
%TO.N,Net-(J2-Pin_14)*%
X172062500Y-111000000D03*
%TO.P,Q1,3,E*%
%TO.N,Net-(Q1-E)*%
X173937500Y-110050000D03*
%TD*%
D19*
%TO.P,SW2,1,A*%
%TO.N,Net-(Q6-E)*%
X162000000Y-119000000D03*
D20*
%TO.P,SW2,2,B*%
%TO.N,Net-(+1-Pin_2)*%
X159460000Y-119000000D03*
%TO.P,SW2,3*%
%TO.N,N/C*%
X164540000Y-119000000D03*
%TD*%
D14*
%TO.P,D21,1,K*%
%TO.N,Net-(+1-Pin_1)*%
X134530213Y-86557974D03*
D15*
%TO.P,D21,2,A*%
%TO.N,Net-(BZ1-+)*%
X137070213Y-86557974D03*
%TD*%
D14*
%TO.P,D40,1,K*%
%TO.N,Net-(+1-Pin_1)*%
X179266691Y-101505690D03*
D15*
%TO.P,D40,2,A*%
%TO.N,Net-(BZ1-+)*%
X181806691Y-101505690D03*
%TD*%
D14*
%TO.P,D54,1,K*%
%TO.N,Net-(+1-Pin_1)*%
X186790173Y-79066162D03*
D15*
%TO.P,D54,2,A*%
%TO.N,Net-(BZ1-+)*%
X189330173Y-79066162D03*
%TD*%
D21*
%TO.P,C1,1*%
%TO.N,Net-(Q7-C)*%
X147600000Y-114500000D03*
%TO.P,C1,2*%
%TO.N,Net-(Q6-B)*%
X153000000Y-114500000D03*
%TD*%
D17*
%TO.P,D11,1,K*%
%TO.N,Net-(D1-K)*%
X194562500Y-62000000D03*
%TO.P,D11,2,A*%
%TO.N,Net-(D10-A)*%
X196437500Y-62000000D03*
%TD*%
D14*
%TO.P,D46,1,K*%
%TO.N,Net-(+1-Pin_1)*%
X179246691Y-86535690D03*
D15*
%TO.P,D46,2,A*%
%TO.N,Net-(BZ1-+)*%
X181786691Y-86535690D03*
%TD*%
D14*
%TO.P,D38,1,K*%
%TO.N,Net-(+1-Pin_1)*%
X171641536Y-86550734D03*
D15*
%TO.P,D38,2,A*%
%TO.N,Net-(BZ1-+)*%
X174181536Y-86550734D03*
%TD*%
D17*
%TO.P,D16,1,K*%
%TO.N,Net-(+1-Pin_1)*%
X128500000Y-68000000D03*
%TO.P,D16,2,A*%
%TO.N,Net-(D16-A)*%
X130375000Y-68000000D03*
%TD*%
D12*
%TO.P,D2,1,K*%
%TO.N,Net-(D1-K)*%
X104273984Y-94874456D03*
%TO.P,D2,2,A*%
%TO.N,Net-(D2-A)*%
X104273984Y-92999456D03*
%TD*%
D18*
%TO.P,Q3,1,C*%
%TO.N,Net-(+1-Pin_2)*%
X172062500Y-118000000D03*
%TO.P,Q3,2,B*%
%TO.N,Net-(Q1-E)*%
X172062500Y-119900000D03*
%TO.P,Q3,3,E*%
%TO.N,Net-(Q3-E)*%
X173937500Y-118950000D03*
%TD*%
D14*
%TO.P,D23,1,K*%
%TO.N,Net-(+1-Pin_1)*%
X186778347Y-56555674D03*
D15*
%TO.P,D23,2,A*%
%TO.N,Net-(BZ1-+)*%
X189318347Y-56555674D03*
%TD*%
D12*
%TO.P,D8,1,K*%
%TO.N,Net-(D1-K)*%
X124059314Y-94781484D03*
%TO.P,D8,2,A*%
%TO.N,Net-(D8-A)*%
X124059314Y-92906484D03*
%TD*%
D14*
%TO.P,D47,1,K*%
%TO.N,Net-(+1-Pin_1)*%
X186706724Y-93992526D03*
D15*
%TO.P,D47,2,A*%
%TO.N,Net-(BZ1-+)*%
X189246724Y-93992526D03*
%TD*%
D14*
%TO.P,D22,1,K*%
%TO.N,Net-(+1-Pin_1)*%
X149445046Y-56509405D03*
D15*
%TO.P,D22,2,A*%
%TO.N,Net-(BZ1-+)*%
X151985046Y-56509405D03*
%TD*%
D14*
%TO.P,D26,1,K*%
%TO.N,Net-(+1-Pin_1)*%
X149460000Y-48988316D03*
D15*
%TO.P,D26,2,A*%
%TO.N,Net-(BZ1-+)*%
X152000000Y-48988316D03*
%TD*%
D18*
%TO.P,Q4,1,C*%
%TO.N,Net-(+1-Pin_2)*%
X172062500Y-122450000D03*
%TO.P,Q4,2,B*%
%TO.N,Net-(J2-Pin_13)*%
X172062500Y-124350000D03*
%TO.P,Q4,3,E*%
%TO.N,Net-(Q4-E)*%
X173937500Y-123400000D03*
%TD*%
D13*
%TO.P,R2,1*%
%TO.N,Net-(D2-A)*%
X102407500Y-112710000D03*
%TO.P,R2,2*%
%TO.N,Net-(J2-Pin_6)*%
X104232500Y-112710000D03*
%TD*%
%TO.P,R7,1*%
%TO.N,Net-(D7-A)*%
X106817500Y-115660000D03*
%TO.P,R7,2*%
%TO.N,Net-(J2-Pin_11)*%
X108642500Y-115660000D03*
%TD*%
D19*
%TO.P,SW3,1,A*%
%TO.N,Net-(+1-Pin_1)*%
X162000000Y-110975000D03*
D20*
%TO.P,SW3,2,B*%
%TO.N,Net-(BZ1--)*%
X159460000Y-110975000D03*
%TO.P,SW3,3*%
%TO.N,N/C*%
X164540000Y-110975000D03*
%TD*%
D13*
%TO.P,R12,1*%
%TO.N,Net-(Q4-E)*%
X111227500Y-118610000D03*
%TO.P,R12,2*%
%TO.N,Net-(D16-A)*%
X113052500Y-118610000D03*
%TD*%
D12*
%TO.P,D3,1,K*%
%TO.N,Net-(D1-K)*%
X107559634Y-94873369D03*
%TO.P,D3,2,A*%
%TO.N,Net-(D3-A)*%
X107559634Y-92998369D03*
%TD*%
D17*
%TO.P,D9,1,K*%
%TO.N,Net-(D1-K)*%
X194562500Y-46548316D03*
%TO.P,D9,2,A*%
%TO.N,Net-(D10-A)*%
X196437500Y-46548316D03*
%TD*%
D14*
%TO.P,D39,1,K*%
%TO.N,Net-(+1-Pin_1)*%
X179266691Y-94035690D03*
D15*
%TO.P,D39,2,A*%
%TO.N,Net-(BZ1-+)*%
X181806691Y-94035690D03*
%TD*%
D14*
%TO.P,D45,1,K*%
%TO.N,Net-(+1-Pin_1)*%
X171657245Y-101514919D03*
D15*
%TO.P,D45,2,A*%
%TO.N,Net-(BZ1-+)*%
X174197245Y-101514919D03*
%TD*%
D13*
%TO.P,R15,1*%
%TO.N,Net-(Q6-C)*%
X115637500Y-115660000D03*
%TO.P,R15,2*%
%TO.N,Net-(Q7-B)*%
X117462500Y-115660000D03*
%TD*%
D12*
%TO.P,D5,1,K*%
%TO.N,Net-(D1-K)*%
X114134099Y-94805387D03*
%TO.P,D5,2,A*%
%TO.N,Net-(D5-A)*%
X114134099Y-92930387D03*
%TD*%
D13*
%TO.P,R10,1*%
%TO.N,Net-(Q2-E)*%
X111227500Y-112710000D03*
%TO.P,R10,2*%
%TO.N,Net-(D13-A)*%
X113052500Y-112710000D03*
%TD*%
D14*
%TO.P,D34,1,K*%
%TO.N,Net-(+1-Pin_1)*%
X171942326Y-41514559D03*
D15*
%TO.P,D34,2,A*%
%TO.N,Net-(BZ1-+)*%
X174482326Y-41514559D03*
%TD*%
D18*
%TO.P,Q5,1,C*%
%TO.N,Net-(+1-Pin_2)*%
X176972500Y-109100000D03*
%TO.P,Q5,2,B*%
%TO.N,Net-(J2-Pin_13)*%
X176972500Y-111000000D03*
%TO.P,Q5,3,E*%
%TO.N,Net-(Q5-E)*%
X178847500Y-110050000D03*
%TD*%
D14*
%TO.P,D35,1,K*%
%TO.N,Net-(+1-Pin_1)*%
X141960000Y-94000000D03*
D15*
%TO.P,D35,2,A*%
%TO.N,Net-(BZ1-+)*%
X144500000Y-94000000D03*
%TD*%
D17*
%TO.P,D36,1,K*%
%TO.N,Net-(+1-Pin_1)*%
X128500000Y-52000000D03*
%TO.P,D36,2,A*%
%TO.N,Net-(BZ1-+)*%
X130375000Y-52000000D03*
%TD*%
D18*
%TO.P,Q7,1,C*%
%TO.N,Net-(Q7-C)*%
X176972500Y-118000000D03*
%TO.P,Q7,2,B*%
%TO.N,Net-(Q7-B)*%
X176972500Y-119900000D03*
%TO.P,Q7,3,E*%
%TO.N,Net-(BZ1-+)*%
X178847500Y-118950000D03*
%TD*%
D14*
%TO.P,D48,1,K*%
%TO.N,Net-(+1-Pin_1)*%
X186706724Y-101462526D03*
D15*
%TO.P,D48,2,A*%
%TO.N,Net-(BZ1-+)*%
X189246724Y-101462526D03*
%TD*%
D13*
%TO.P,R6,1*%
%TO.N,Net-(D6-A)*%
X106817500Y-112710000D03*
%TO.P,R6,2*%
%TO.N,Net-(J2-Pin_10)*%
X108642500Y-112710000D03*
%TD*%
D14*
%TO.P,D32,1,K*%
%TO.N,Net-(+1-Pin_1)*%
X149460000Y-101470000D03*
D15*
%TO.P,D32,2,A*%
%TO.N,Net-(BZ1-+)*%
X152000000Y-101470000D03*
%TD*%
D17*
%TO.P,D17,1,K*%
%TO.N,Net-(D1-K)*%
X194592292Y-84574622D03*
%TO.P,D17,2,A*%
%TO.N,Net-(D10-A)*%
X196467292Y-84574622D03*
%TD*%
D22*
%TO.P,BZ1,1,+*%
%TO.N,Net-(BZ1-+)*%
X121730000Y-115060000D03*
D16*
%TO.P,BZ1,2,-*%
%TO.N,Net-(BZ1--)*%
X129330000Y-115060000D03*
%TD*%
D17*
%TO.P,D19,1,K*%
%TO.N,Net-(D1-K)*%
X194625000Y-92560000D03*
%TO.P,D19,2,A*%
%TO.N,Net-(D10-A)*%
X196500000Y-92560000D03*
%TD*%
M02*
